<?xml version="1.0" encoding="UTF-8"?>
<svg id="Layer_1" data-name="Layer 1" xmlns="http://www.w3.org/2000/svg" xmlns:xlink="http://www.w3.org/1999/xlink" version="1.1" viewBox="0 0 460.8 345.6">
  <defs>
    <style>
      .cls-1 {
        clip-path: url(#clippath);
      }

      .cls-2 {
        fill: none;
      }

      .cls-2, .cls-3, .cls-4, .cls-5, .cls-6, .cls-7, .cls-8, .cls-9, .cls-10 {
        stroke-width: 0px;
      }

      .cls-3 {
        fill: #b34d66;
      }

      .cls-3, .cls-4, .cls-5, .cls-6, .cls-8, .cls-9 {
        isolation: isolate;
        opacity: .4;
      }

      .cls-4 {
        fill: blue;
      }

      .cls-5 {
        fill: #8686b2;
      }

      .cls-6 {
        fill: #ff8600;
      }

      .cls-11 {
        clip-path: url(#clippath-1);
      }

      .cls-12 {
        clip-path: url(#clippath-4);
      }

      .cls-13 {
        clip-path: url(#clippath-3);
      }

      .cls-14 {
        clip-path: url(#clippath-2);
      }

      .cls-15 {
        clip-path: url(#clippath-5);
      }

      .cls-7 {
        fill: #000;
      }

      .cls-8 {
        fill: red;
      }

      .cls-9 {
        fill: #b200b2;
      }

      .cls-10 {
        fill: #fff;
      }
    </style>
    <clipPath id="clippath">
      <rect class="cls-2" x="84.9" y="41.5" width="302.5" height="266.1"/>
    </clipPath>
    <clipPath id="clippath-1">
      <rect class="cls-2" x="84.9" y="41.5" width="302.5" height="266.1"/>
    </clipPath>
    <clipPath id="clippath-2">
      <rect class="cls-2" x="84.9" y="41.5" width="302.5" height="266.1"/>
    </clipPath>
    <clipPath id="clippath-3">
      <rect class="cls-2" x="84.9" y="41.5" width="302.5" height="266.1"/>
    </clipPath>
    <clipPath id="clippath-4">
      <rect class="cls-2" x="84.9" y="41.5" width="302.5" height="266.1"/>
    </clipPath>
    <clipPath id="clippath-5">
      <rect class="cls-2" x="84.9" y="41.5" width="302.5" height="266.1"/>
    </clipPath>
  </defs>
  <g id="figure_1" data-name="figure 1">
    <g id="patch_1" data-name="patch 1">
      <path class="cls-10" d="M0,345.6h460.8V0H0v345.6Z"/>
    </g>
    <g id="axes_1" data-name="axes 1">
      <g id="patch_2" data-name="patch 2">
        <g class="cls-1">
          <path class="cls-8" d="M190.7,82.5c-16.4,1.4-32.1,7.1-45.5,16.6s-24.1,22.4-30.9,37.3c-6.8,15-9.4,31.5-7.7,47.8s7.8,31.9,17.6,45.1c-4.1-13.4-4.3-27.8-.7-41.4,3.6-13.6,11-25.9,21.2-35.5,2.8-14.1,8.3-27.5,16.2-39.5,7.9-12,18-22.4,29.8-30.5"/>
        </g>
      </g>
      <g id="patch_3" data-name="patch 3">
        <g class="cls-11">
          <path class="cls-4" d="M190.7,82.5c18.6-1.6,37.3,2.6,53.5,11.8,16.2,9.3,29.3,23.2,37.4,40.1,8.1,16.8,10.9,35.7,8.1,54.2s-11.3,35.6-24.1,49.2c-4.5,10.1-11.1,19.2-19.4,26.5-8.3,7.3-18.2,12.6-28.8,15.7,18.1,6.3,37.4,7.9,56.3,4.7,18.9-3.3,36.5-11.4,51.4-23.4s26.3-27.8,33.4-45.6c7-17.8,9.4-37.1,6.9-56.1-2.6-19-9.9-37-21.4-52.3-11.5-15.3-26.7-27.4-44.2-35.1-17.5-7.7-36.7-10.8-55.8-9s-37.3,8.5-53.1,19.4"/>
        </g>
      </g>
      <g id="patch_4" data-name="patch 4">
        <g class="cls-14">
          <path class="cls-9" d="M190.7,82.5c-11.8,8.2-21.9,18.5-29.8,30.5-7.9,12-13.4,25.4-16.2,39.5,12.7-11.9,29.1-19.1,46.5-20.4,17.4-1.2,34.6,3.6,48.9,13.6s24.5,24.7,29.2,41.5c4.7,16.8,3.4,34.7-3.6,50.6,12.8-13.6,21.2-30.8,24.1-49.2s0-37.4-8.1-54.2c-8.1-16.8-21.1-30.8-37.4-40.1-16.2-9.3-34.9-13.4-53.5-11.8"/>
        </g>
      </g>
      <g id="patch_6" data-name="patch 6">
        <g class="cls-13">
          <path class="cls-6" d="M124.2,229.4c7.8,10.6,17.8,19.3,29.2,25.7,11.5,6.4,24.2,10.3,37.3,11.4-18-12.4-31.9-29.8-40.1-50.1-8.2-20.3-10.2-42.5-6-63.9-10.2,9.6-17.6,21.9-21.2,35.5-3.6,13.6-3.4,27.9.7,41.4"/>
        </g>
      </g>
      <g id="patch_7" data-name="patch 7">
        <g class="cls-12">
          <path class="cls-5" d="M265.6,237.9c-9.5,10.1-21.2,17.9-34.2,22.9-13,5-26.9,6.9-40.7,5.8,4.1,2.8,8.4,5.4,12.8,7.7s9,4.2,13.7,5.9c10.7-3.1,20.5-8.4,28.8-15.7,8.3-7.3,15-16.3,19.4-26.5"/>
        </g>
      </g>
      <g id="patch_8" data-name="patch 8">
        <g class="cls-15">
          <path class="cls-3" d="M144.7,152.5c-4.3,21.4-2.2,43.6,6,63.9,8.2,20.3,22.1,37.7,40.1,50.1,13.8,1.2,27.7-.8,40.7-5.8,13-5,24.6-12.8,34.2-22.9,7-15.9,8.3-33.8,3.6-50.6-4.7-16.8-15-31.4-29.2-41.5s-31.5-14.9-48.9-13.6c-17.4,1.2-33.8,8.4-46.5,20.4"/>
        </g>
      </g>
      <g id="text_1" data-name="text 1">
        <g>
          <path id="DejaVuSans-38" class="cls-7" d="M122.3,145.5c-.5,0-.9.1-1.2.4-.3.3-.4.7-.4,1.1s.1.9.4,1.1c.3.3.7.4,1.2.4s.9-.1,1.2-.4c.3-.3.4-.7.4-1.1s-.1-.9-.4-1.1c-.3-.3-.7-.4-1.2-.4ZM121.2,145c-.5-.1-.8-.3-1.1-.6-.3-.3-.4-.7-.4-1.2s.2-1.1.7-1.5c.5-.4,1.1-.6,1.9-.6s1.4.2,1.9.6.7.9.7,1.5-.1.8-.4,1.2c-.3.3-.6.5-1.1.6.5.1.9.4,1.2.7.3.4.4.8.4,1.3,0,.8-.2,1.4-.7,1.8-.5.4-1.2.6-2,.6s-1.6-.2-2-.6c-.5-.4-.7-1-.7-1.8s.1-.9.4-1.3c.3-.4.7-.6,1.2-.7ZM120.8,143.3c0,.4.1.7.4,1,.3.2.6.3,1.1.3s.8-.1,1.1-.3c.3-.2.4-.6.4-1s-.1-.7-.4-1c-.3-.2-.6-.3-1.1-.3s-.8.1-1.1.3c-.3.2-.4.6-.4,1Z"/>
          <path id="DejaVuSans-31" class="cls-7" d="M127.2,148.4h1.8v-6.1l-1.9.4v-1l1.9-.4h1.1v7.1h1.8v.9h-4.6v-.9Z"/>
        </g>
      </g>
      <g id="text_2" data-name="text 2">
        <g>
          <path id="DejaVuSans-36" class="cls-7" d="M316.8,162.4c-.5,0-.9.2-1.2.5-.3.3-.4.8-.4,1.4s.1,1,.4,1.4c.3.3.7.5,1.2.5s.9-.2,1.2-.5c.3-.3.4-.8.4-1.4s-.1-1-.4-1.4c-.3-.3-.7-.5-1.2-.5ZM319,159v1c-.3-.1-.5-.2-.8-.3-.3,0-.6-.1-.8-.1-.7,0-1.3.2-1.6.7-.4.5-.6,1.2-.6,2.2.2-.3.5-.6.8-.7.3-.2.7-.2,1.1-.2.8,0,1.4.2,1.9.7.5.5.7,1.2.7,2s-.2,1.5-.7,2c-.5.5-1.1.7-1.9.7s-1.6-.4-2.1-1.1c-.5-.7-.7-1.7-.7-3.1s.3-2.3.9-3c.6-.8,1.4-1.1,2.4-1.1s.5,0,.8,0,.6.1.9.2Z"/>
          <path id="DejaVuSans-30" class="cls-7" d="M323.7,159.6c-.6,0-1,.3-1.3.8-.3.5-.4,1.4-.4,2.5s.1,1.9.4,2.5c.3.5.7.8,1.3.8s1-.3,1.3-.8c.3-.5.4-1.4.4-2.5s-.1-1.9-.4-2.5c-.3-.5-.7-.8-1.3-.8ZM323.7,158.7c.9,0,1.6.4,2.1,1.1.5.7.7,1.7.7,3.1s-.2,2.4-.7,3.1c-.5.7-1.2,1.1-2.1,1.1s-1.6-.4-2.1-1.1c-.5-.7-.7-1.7-.7-3.1s.2-2.4.7-3.1c.5-.7,1.2-1.1,2.1-1.1Z"/>
          <path id="DejaVuSans-35" class="cls-7" d="M328.4,158.9h4.3v.9h-3.3v2c.2,0,.3,0,.5-.1.2,0,.3,0,.5,0,.9,0,1.6.2,2.1.7.5.5.8,1.2.8,2s-.3,1.5-.8,2c-.5.5-1.3.7-2.3.7s-.7,0-1,0c-.3,0-.7-.1-1.1-.3v-1.1c.3.2.7.3,1,.4s.7.1,1.1.1c.6,0,1.1-.2,1.5-.5.4-.3.5-.8.5-1.3s-.2-1-.5-1.3c-.4-.3-.9-.5-1.5-.5s-.6,0-.9,0c-.3,0-.6.2-.9.3v-4Z"/>
        </g>
      </g>
      <g id="text_3" data-name="text 3">
        <g>
          <path id="DejaVuSans-33" class="cls-7" d="M240.7,135.6c.5.1.9.3,1.2.7.3.4.4.8.4,1.3,0,.8-.3,1.4-.8,1.8-.5.4-1.3.6-2.3.6s-.7,0-1,0c-.4,0-.7-.2-1.1-.3v-1c.3.2.6.3,1,.4.4,0,.7.1,1.1.1.7,0,1.2-.1,1.6-.4s.5-.7.5-1.2-.2-.8-.5-1.1c-.3-.3-.8-.4-1.4-.4h-.9v-.9h1c.5,0,.9-.1,1.2-.3s.4-.5.4-.9-.1-.7-.4-.9c-.3-.2-.7-.3-1.3-.3s-.6,0-1,0c-.3,0-.7.2-1.1.3v-1c.4-.1.8-.2,1.2-.3s.7,0,1,0c.8,0,1.5.2,2,.6.5.4.7.9.7,1.5s-.1.8-.4,1.1-.6.5-1.1.6Z"/>
          <path id="DejaVuSans-31-2" data-name="DejaVuSans-31" class="cls-7" d="M244.6,139.1h1.8v-6.1l-1.9.4v-1l1.9-.4h1.1v7.1h1.8v.9h-4.6v-.9Z"/>
          <path id="DejaVuSans-32" class="cls-7" d="M252.3,139.1h3.8v.9h-5.1v-.9c.4-.4,1-1,1.7-1.7.7-.7,1.2-1.2,1.3-1.4.3-.4.6-.7.7-1,.1-.3.2-.5.2-.8,0-.4-.1-.8-.4-1-.3-.3-.7-.4-1.2-.4s-.7,0-1.1.2c-.4.1-.8.3-1.2.5v-1.1c.4-.2.8-.3,1.2-.4.4,0,.7-.1,1-.1.8,0,1.5.2,2,.6.5.4.7,1,.7,1.7s0,.6-.2.9c-.1.3-.3.6-.7,1,0,.1-.4.4-.9.9-.5.5-1.2,1.2-2,2.1Z"/>
        </g>
      </g>
      <g id="text_5" data-name="text 5">
        <g>
          <path id="DejaVuSans-31-3" data-name="DejaVuSans-31" class="cls-7" d="M132.6,219h1.8v-6.1l-1.9.4v-1l1.9-.4h1.1v7.1h1.8v.9h-4.6v-.9Z"/>
          <path id="DejaVuSans-33-2" data-name="DejaVuSans-33" class="cls-7" d="M142.7,215.6c.5.1.9.3,1.2.7.3.4.4.8.4,1.3,0,.8-.3,1.4-.8,1.8-.5.4-1.3.6-2.3.6s-.7,0-1,0c-.4,0-.7-.2-1.1-.3v-1c.3.2.6.3,1,.4.4,0,.7.1,1.1.1.7,0,1.2-.1,1.6-.4s.5-.7.5-1.2-.2-.8-.5-1.1c-.3-.3-.8-.4-1.4-.4h-.9v-.9h1c.5,0,.9-.1,1.2-.3s.4-.5.4-.9-.1-.7-.4-.9c-.3-.2-.7-.3-1.3-.3s-.6,0-1,0c-.3,0-.7.2-1.1.3v-1c.4-.1.8-.2,1.2-.3s.7,0,1,0c.8,0,1.5.2,2,.6.5.4.7.9.7,1.5s-.1.8-.4,1.1-.6.5-1.1.6Z"/>
          <path id="DejaVuSans-30-2" data-name="DejaVuSans-30" class="cls-7" d="M148.8,212.6c-.6,0-1,.3-1.3.8-.3.5-.4,1.4-.4,2.5s.1,1.9.4,2.5c.3.5.7.8,1.3.8s1-.3,1.3-.8c.3-.5.4-1.4.4-2.5s-.1-1.9-.4-2.5c-.3-.5-.7-.8-1.3-.8ZM148.8,211.7c.9,0,1.6.4,2.1,1.1.5.7.7,1.7.7,3.1s-.2,2.4-.7,3.1c-.5.7-1.2,1.1-2.1,1.1s-1.6-.4-2.1-1.1c-.5-.7-.7-1.7-.7-3.1s.2-2.4.7-3.1c.5-.7,1.2-1.1,2.1-1.1Z"/>
        </g>
      </g>
      <g id="text_6" data-name="text 6">
        <g>
          <path id="DejaVuSans-36-2" data-name="DejaVuSans-36" class="cls-7" d="M230.7,262.6c-.5,0-.9.2-1.2.5-.3.3-.4.8-.4,1.4s.1,1,.4,1.4c.3.3.7.5,1.2.5s.9-.2,1.2-.5c.3-.3.4-.8.4-1.4s-.1-1-.4-1.4c-.3-.3-.7-.5-1.2-.5ZM232.9,259.2v1c-.3-.1-.5-.2-.8-.3-.3,0-.6-.1-.8-.1-.7,0-1.3.2-1.6.7-.4.5-.6,1.2-.6,2.2.2-.3.5-.6.8-.7.3-.2.7-.2,1.1-.2.8,0,1.4.2,1.9.7.5.5.7,1.2.7,2s-.2,1.5-.7,2c-.5.5-1.1.7-1.9.7s-1.6-.4-2.1-1.1c-.5-.7-.7-1.7-.7-3.1s.3-2.3.9-3c.6-.8,1.4-1.1,2.4-1.1s.5,0,.8,0,.6.1.9.2Z"/>
          <path id="DejaVuSans-37" class="cls-7" d="M235,259.1h5.2v.5l-2.9,7.6h-1.1l2.7-7.1h-3.9v-.9Z"/>
        </g>
      </g>
      <g id="text_7" data-name="text 7">
        <g>
          <path id="DejaVuSans-34" class="cls-7" d="M210.4,180.4l-2.7,4.3h2.7v-4.3ZM210.1,179.4h1.4v5.2h1.1v.9h-1.1v1.9h-1.1v-1.9h-3.6v-1l3.3-5.1Z"/>
          <path id="DejaVuSans-36-3" data-name="DejaVuSans-36" class="cls-7" d="M216.9,183c-.5,0-.9.2-1.2.5-.3.3-.4.8-.4,1.4s.1,1,.4,1.4c.3.3.7.5,1.2.5s.9-.2,1.2-.5c.3-.3.4-.8.4-1.4s-.1-1-.4-1.4c-.3-.3-.7-.5-1.2-.5ZM219,179.6v1c-.3-.1-.5-.2-.8-.3-.3,0-.6-.1-.8-.1-.7,0-1.3.2-1.6.7-.4.5-.6,1.2-.6,2.2.2-.3.5-.6.8-.7.3-.2.7-.2,1.1-.2.8,0,1.4.2,1.9.7.5.5.7,1.2.7,2s-.2,1.5-.7,2c-.5.5-1.1.7-1.9.7s-1.6-.4-2.1-1.1c-.5-.7-.7-1.7-.7-3.1s.3-2.3.9-3c.6-.8,1.4-1.1,2.4-1.1s.5,0,.8,0,.6.1.9.2Z"/>
          <path id="DejaVuSans-32-2" data-name="DejaVuSans-32" class="cls-7" d="M222.4,186.5h3.8v.9h-5.1v-.9c.4-.4,1-1,1.7-1.7.7-.7,1.2-1.2,1.3-1.4.3-.4.6-.7.7-1,.1-.3.2-.5.2-.8,0-.4-.1-.8-.4-1-.3-.3-.7-.4-1.2-.4s-.7,0-1.1.2c-.4.1-.8.3-1.2.5v-1.1c.4-.2.8-.3,1.2-.4.4,0,.7-.1,1-.1.8,0,1.5.2,2,.6.5.4.7,1,.7,1.7s0,.6-.2.9c-.1.3-.3.6-.7,1,0,.1-.4.4-.9.9-.5.5-1.2,1.2-2,2.1Z"/>
        </g>
      </g>
      <g id="text_8" data-name="text 8">
        <g>
          <path id="DejaVuSans-4e" class="cls-7" d="M40.7,72.6h1.8l4.3,8v-8h1.3v9.6h-1.8l-4.3-8v8h-1.3v-9.6Z"/>
          <path id="DejaVuSans-6f" class="cls-7" d="M53.3,75.8c-.6,0-1.1.2-1.5.7s-.6,1.2-.6,2,.2,1.5.6,2c.4.5.9.7,1.5.7s1.1-.2,1.5-.7c.4-.5.6-1.2.6-2s-.2-1.5-.6-2c-.4-.5-.9-.8-1.5-.8ZM53.3,74.8c1,0,1.8.3,2.4,1,.6.7.9,1.6.9,2.8s-.3,2.1-.9,2.8c-.6.7-1.4,1-2.4,1s-1.8-.3-2.4-1c-.6-.7-.9-1.6-.9-2.8s.3-2.1.9-2.8c.6-.7,1.4-1,2.4-1Z"/>
          <path id="DejaVuSans-6e" class="cls-7" d="M64.6,77.9v4.4h-1.2v-4.3c0-.7-.1-1.2-.4-1.5-.3-.3-.7-.5-1.2-.5s-1.1.2-1.5.6c-.4.4-.6,1-.6,1.7v4.1h-1.2v-7.2h1.2v1.1c.3-.4.6-.8,1-1,.4-.2.8-.3,1.3-.3.8,0,1.5.3,1.9.8.4.5.6,1.3.6,2.3Z"/>
          <path id="DejaVuSans-2d" class="cls-7" d="M66.4,78.1h3.5v1.1h-3.5v-1.1Z"/>
          <path id="DejaVuSans-62" class="cls-7" d="M76.9,78.6c0-.9-.2-1.6-.5-2.1s-.9-.7-1.5-.7-1.1.2-1.5.7-.5,1.2-.5,2.1.2,1.6.5,2.1c.4.5.9.7,1.5.7s1.1-.2,1.5-.7c.4-.5.5-1.2.5-2.1ZM72.9,76.1c.3-.4.6-.7.9-1,.4-.2.8-.3,1.4-.3.9,0,1.6.3,2.1,1,.5.7.8,1.6.8,2.7s-.3,2.1-.8,2.7c-.5.7-1.3,1-2.1,1s-1-.1-1.4-.3c-.4-.2-.7-.5-.9-1v1.1h-1.2v-10h1.2v3.9Z"/>
          <path id="DejaVuSans-6c" class="cls-7" d="M80.1,72.2h1.2v10h-1.2v-10Z"/>
          <path id="DejaVuSans-6f-2" data-name="DejaVuSans-6f" class="cls-7" d="M86.6,75.8c-.6,0-1.1.2-1.5.7s-.6,1.2-.6,2,.2,1.5.6,2c.4.5.9.7,1.5.7s1.1-.2,1.5-.7c.4-.5.6-1.2.6-2s-.2-1.5-.6-2c-.4-.5-.9-.8-1.5-.8ZM86.6,74.8c1,0,1.8.3,2.4,1,.6.7.9,1.6.9,2.8s-.3,2.1-.9,2.8c-.6.7-1.4,1-2.4,1s-1.8-.3-2.4-1c-.6-.7-.9-1.6-.9-2.8s.3-2.1.9-2.8c.6-.7,1.4-1,2.4-1Z"/>
          <path id="DejaVuSans-63" class="cls-7" d="M97,75.3v1.1c-.3-.2-.7-.3-1-.4s-.7-.1-1-.1c-.8,0-1.4.2-1.8.7-.4.5-.6,1.2-.6,2.1s.2,1.6.6,2.1c.4.5,1,.7,1.8.7s.7,0,1-.1.7-.2,1-.4v1.1c-.3.2-.7.3-1,.3-.4,0-.7.1-1.1.1-1.1,0-2-.3-2.6-1-.6-.7-1-1.6-1-2.8s.3-2.1,1-2.8c.6-.7,1.5-1,2.7-1s.7,0,1.1.1c.3,0,.7.2,1,.3Z"/>
          <path id="DejaVuSans-6b" class="cls-7" d="M99,72.2h1.2v5.9l3.5-3.1h1.5l-3.8,3.4,4,3.8h-1.5l-3.7-3.5v3.5h-1.2v-10Z"/>
          <path id="DejaVuSans-65" class="cls-7" d="M112.4,78.3v.6h-5.5c0,.8.3,1.4.7,1.9.4.4,1.1.6,1.8.6s.9,0,1.3-.2.9-.3,1.3-.5v1.1c-.4.2-.9.3-1.3.4s-.9.1-1.4.1c-1.2,0-2.1-.3-2.7-1-.7-.7-1-1.6-1-2.7s.3-2.1,1-2.8c.6-.7,1.5-1,2.6-1s1.7.3,2.3.9c.6.6.8,1.5.8,2.5ZM111.2,78c0-.6-.2-1.2-.5-1.6-.4-.4-.8-.6-1.4-.6s-1.2.2-1.6.6-.6.9-.7,1.6h4.2Z"/>
          <path id="DejaVuSans-64" class="cls-7" d="M119.1,76.1v-3.9h1.2v10h-1.2v-1.1c-.2.4-.6.7-.9,1-.4.2-.8.3-1.4.3-.9,0-1.6-.3-2.1-1-.5-.7-.8-1.6-.8-2.7s.3-2,.8-2.7c.5-.7,1.3-1,2.1-1s1,.1,1.4.3c.4.2.7.5.9,1ZM115.1,78.6c0,.9.2,1.6.5,2.1.4.5.9.7,1.5.7s1.1-.2,1.5-.7c.4-.5.5-1.2.5-2.1s-.2-1.6-.5-2.1c-.4-.5-.9-.7-1.5-.7s-1.1.2-1.5.7-.5,1.2-.5,2.1Z"/>
          <path id="DejaVuSans-20" class="cls-7" d="M121.5,82.2"/>
          <path id="DejaVuSans-28" class="cls-7" d="M129.8,72.2c-.6,1-1,2-1.3,2.9-.3,1-.4,1.9-.4,2.9s.1,2,.4,2.9.7,2,1.3,2.9h-1c-.6-1-1.1-2-1.4-3-.3-1-.5-1.9-.5-2.9s.2-1.9.5-2.9c.3-1,.8-2,1.4-3h1Z"/>
          <path id="DejaVuSans-52" class="cls-7" d="M136.7,77.7c.3,0,.6.3.8.6s.5.7.8,1.3l1.3,2.6h-1.4l-1.2-2.5c-.3-.6-.6-1.1-.9-1.3s-.7-.3-1.2-.3h-1.4v4.1h-1.3v-9.6h2.9c1.1,0,1.9.2,2.5.7.5.5.8,1.2.8,2.1s-.1,1.1-.4,1.5c-.3.4-.7.7-1.2.8ZM133.5,73.7v3.4h1.6c.6,0,1.1-.1,1.4-.4s.5-.7.5-1.3-.2-1-.5-1.3-.8-.4-1.4-.4h-1.6Z"/>
          <path id="DejaVuSans-54" class="cls-7" d="M139,72.6h8.1v1.1h-3.4v8.5h-1.3v-8.5h-3.4v-1.1Z"/>
          <path id="DejaVuSans-29" class="cls-7" d="M148.2,72.2h1c.6,1,1.1,2,1.4,3,.3,1,.5,1.9.5,2.9s-.2,1.9-.5,2.9c-.3,1-.8,2-1.4,3h-1c.6-1,1-2,1.3-2.9.3-1,.4-2,.4-2.9s-.1-2-.4-2.9c-.3-1-.7-1.9-1.3-2.9Z"/>
        </g>
      </g>
      <g id="text_9" data-name="text 9">
        <g>
          <path id="DejaVuSans-4e-2" data-name="DejaVuSans-4e" class="cls-7" d="M311.6,53.1h1.8l4.3,8v-8h1.3v9.6h-1.8l-4.3-8v8h-1.3v-9.6Z"/>
          <path id="DejaVuSans-6f-3" data-name="DejaVuSans-6f" class="cls-7" d="M324.2,56.3c-.6,0-1.1.2-1.5.7s-.6,1.2-.6,2,.2,1.5.6,2c.4.5.9.7,1.5.7s1.1-.2,1.5-.7c.4-.5.6-1.2.6-2s-.2-1.5-.6-2c-.4-.5-.9-.8-1.5-.8ZM324.2,55.3c1,0,1.8.3,2.4,1,.6.7.9,1.6.9,2.8s-.3,2.1-.9,2.8c-.6.7-1.4,1-2.4,1s-1.8-.3-2.4-1c-.6-.7-.9-1.6-.9-2.8s.3-2.1.9-2.8c.6-.7,1.4-1,2.4-1Z"/>
          <path id="DejaVuSans-6e-2" data-name="DejaVuSans-6e" class="cls-7" d="M335.5,58.3v4.4h-1.2v-4.3c0-.7-.1-1.2-.4-1.5-.3-.3-.7-.5-1.2-.5s-1.1.2-1.5.6c-.4.4-.6,1-.6,1.7v4.1h-1.2v-7.2h1.2v1.1c.3-.4.6-.8,1-1,.4-.2.8-.3,1.3-.3.8,0,1.5.3,1.9.8.4.5.6,1.3.6,2.3Z"/>
          <path id="DejaVuSans-2d-2" data-name="DejaVuSans-2d" class="cls-7" d="M337.2,58.5h3.5v1.1h-3.5v-1.1Z"/>
          <path id="DejaVuSans-62-2" data-name="DejaVuSans-62" class="cls-7" d="M347.8,59.1c0-.9-.2-1.6-.5-2.1s-.9-.7-1.5-.7-1.1.2-1.5.7-.5,1.2-.5,2.1.2,1.6.5,2.1c.4.5.9.7,1.5.7s1.1-.2,1.5-.7c.4-.5.5-1.2.5-2.1ZM343.7,56.6c.3-.4.6-.7.9-1,.4-.2.8-.3,1.4-.3.9,0,1.6.3,2.1,1,.5.7.8,1.6.8,2.7s-.3,2.1-.8,2.7c-.5.7-1.3,1-2.1,1s-1-.1-1.4-.3c-.4-.2-.7-.5-.9-1v1.1h-1.2v-10h1.2v3.9Z"/>
          <path id="DejaVuSans-6c-2" data-name="DejaVuSans-6c" class="cls-7" d="M351,52.7h1.2v10h-1.2v-10Z"/>
          <path id="DejaVuSans-6f-4" data-name="DejaVuSans-6f" class="cls-7" d="M357.4,56.3c-.6,0-1.1.2-1.5.7s-.6,1.2-.6,2,.2,1.5.6,2c.4.5.9.7,1.5.7s1.1-.2,1.5-.7c.4-.5.6-1.2.6-2s-.2-1.5-.6-2c-.4-.5-.9-.8-1.5-.8ZM357.4,55.3c1,0,1.8.3,2.4,1,.6.7.9,1.6.9,2.8s-.3,2.1-.9,2.8c-.6.7-1.4,1-2.4,1s-1.8-.3-2.4-1c-.6-.7-.9-1.6-.9-2.8s.3-2.1.9-2.8c.6-.7,1.4-1,2.4-1Z"/>
          <path id="DejaVuSans-63-2" data-name="DejaVuSans-63" class="cls-7" d="M367.9,55.7v1.1c-.3-.2-.7-.3-1-.4s-.7-.1-1-.1c-.8,0-1.4.2-1.8.7-.4.5-.6,1.2-.6,2.1s.2,1.6.6,2.1c.4.5,1,.7,1.8.7s.7,0,1-.1.7-.2,1-.4v1.1c-.3.2-.7.3-1,.3-.4,0-.7.1-1.1.1-1.1,0-2-.3-2.6-1-.6-.7-1-1.6-1-2.8s.3-2.1,1-2.8c.6-.7,1.5-1,2.7-1s.7,0,1.1.1c.3,0,.7.2,1,.3Z"/>
          <path id="DejaVuSans-6b-2" data-name="DejaVuSans-6b" class="cls-7" d="M369.9,52.7h1.2v5.9l3.5-3.1h1.5l-3.8,3.4,4,3.8h-1.5l-3.7-3.5v3.5h-1.2v-10Z"/>
          <path id="DejaVuSans-65-2" data-name="DejaVuSans-65" class="cls-7" d="M383.3,58.8v.6h-5.5c0,.8.3,1.4.7,1.9.4.4,1.1.6,1.8.6s.9,0,1.3-.2.9-.3,1.3-.5v1.1c-.4.2-.9.3-1.3.4s-.9.1-1.4.1c-1.2,0-2.1-.3-2.7-1-.7-.7-1-1.6-1-2.7s.3-2.1,1-2.8c.6-.7,1.5-1,2.6-1s1.7.3,2.3.9c.6.6.8,1.5.8,2.5ZM382.1,58.4c0-.6-.2-1.2-.5-1.6-.4-.4-.8-.6-1.4-.6s-1.2.2-1.6.6-.6.9-.7,1.6h4.2Z"/>
          <path id="DejaVuSans-64-2" data-name="DejaVuSans-64" class="cls-7" d="M390,56.6v-3.9h1.2v10h-1.2v-1.1c-.2.4-.6.7-.9,1-.4.2-.8.3-1.4.3-.9,0-1.6-.3-2.1-1-.5-.7-.8-1.6-.8-2.7s.3-2,.8-2.7c.5-.7,1.3-1,2.1-1s1,.1,1.4.3c.4.2.7.5.9,1ZM386,59.1c0,.9.2,1.6.5,2.1.4.5.9.7,1.5.7s1.1-.2,1.5-.7c.4-.5.5-1.2.5-2.1s-.2-1.6-.5-2.1c-.4-.5-.9-.7-1.5-.7s-1.1.2-1.5.7-.5,1.2-.5,2.1Z"/>
          <path id="DejaVuSans-20-2" data-name="DejaVuSans-20" class="cls-7" d="M392.4,62.7"/>
          <path id="DejaVuSans-28-2" data-name="DejaVuSans-28" class="cls-7" d="M400.7,52.7c-.6,1-1,2-1.3,2.9-.3,1-.4,1.9-.4,2.9s.1,2,.4,2.9.7,2,1.3,2.9h-1c-.6-1-1.1-2-1.4-3-.3-1-.5-1.9-.5-2.9s.2-1.9.5-2.9c.3-1,.8-2,1.4-3h1Z"/>
          <path id="DejaVuSans-53" class="cls-7" d="M408.8,53.4v1.3c-.5-.2-1-.4-1.4-.5-.4-.1-.9-.2-1.3-.2-.7,0-1.3.1-1.6.4-.4.3-.6.7-.6,1.2s.1.7.4,1c.3.2.7.4,1.5.5l.8.2c1,.2,1.7.5,2.1,1s.7,1.1.7,1.9-.3,1.6-.9,2.1c-.6.5-1.5.7-2.7.7s-.9,0-1.5-.2c-.5-.1-1-.3-1.6-.5v-1.3c.5.3,1,.5,1.6.7.5.1,1,.2,1.5.2.7,0,1.3-.1,1.7-.4.4-.3.6-.7.6-1.3s-.1-.8-.4-1.1-.8-.5-1.4-.6l-.8-.2c-1-.2-1.7-.5-2.1-.9-.4-.4-.6-1-.6-1.7s.3-1.5.9-2c.6-.5,1.4-.7,2.5-.7s.9,0,1.4.1c.5,0,.9.2,1.4.4Z"/>
          <path id="DejaVuSans-43" class="cls-7" d="M418.6,53.8v1.4c-.4-.4-.9-.7-1.4-.9-.5-.2-1-.3-1.6-.3-1.1,0-1.9.3-2.5,1s-.9,1.6-.9,2.9.3,2.2.9,2.9,1.4,1,2.5,1,1.1-.1,1.6-.3,1-.5,1.4-.9v1.4c-.5.3-.9.5-1.4.7-.5.2-1,.2-1.6.2-1.5,0-2.6-.4-3.4-1.3-.8-.9-1.3-2.1-1.3-3.7s.4-2.8,1.3-3.7c.8-.9,2-1.3,3.4-1.3s1.1,0,1.6.2c.5.2,1,.4,1.4.7Z"/>
          <path id="DejaVuSans-29-2" data-name="DejaVuSans-29" class="cls-7" d="M420.4,52.7h1c.6,1,1.1,2,1.4,3,.3,1,.5,1.9.5,2.9s-.2,1.9-.5,2.9c-.3,1-.8,2-1.4,3h-1c.6-1,1-2,1.3-2.9.3-1,.4-2,.4-2.9s-.1-2-.4-2.9c-.3-1-.7-1.9-1.3-2.9Z"/>
        </g>
      </g>
      <g id="text_10" data-name="text 10">
        <g>
          <path id="DejaVuSans-55" class="cls-7" d="M102.4,290.9h1.3v5.8c0,1,.2,1.8.6,2.2.4.5,1,.7,1.8.7s1.4-.2,1.8-.7c.4-.5.6-1.2.6-2.2v-5.8h1.3v6c0,1.3-.3,2.2-.9,2.8-.6.6-1.5,1-2.7,1s-2.1-.3-2.8-1c-.6-.6-.9-1.6-.9-2.8v-6Z"/>
          <path id="DejaVuSans-73" class="cls-7" d="M116.8,293.5v1.1c-.3-.2-.7-.3-1-.4-.4,0-.7-.1-1.1-.1-.6,0-1,0-1.3.3-.3.2-.4.5-.4.8s.1.5.3.6.6.3,1.3.4h.4c.8.3,1.4.5,1.8.9s.5.8.5,1.4-.3,1.2-.8,1.6c-.5.4-1.3.6-2.2.6s-.8,0-1.2-.1c-.4,0-.9-.2-1.3-.3v-1.2c.4.2.9.4,1.3.5.4.1.8.2,1.3.2s1,0,1.3-.3c.3-.2.5-.5.5-.8s-.1-.6-.3-.7c-.2-.2-.7-.3-1.4-.5h-.4c-.7-.3-1.3-.5-1.6-.8-.3-.3-.5-.8-.5-1.3s.2-1.2.7-1.6c.5-.4,1.2-.6,2.1-.6s.8,0,1.2,0c.4,0,.7.2,1.1.3Z"/>
          <path id="DejaVuSans-65-3" data-name="DejaVuSans-65" class="cls-7" d="M125.3,296.6v.6h-5.5c0,.8.3,1.4.7,1.9.4.4,1.1.6,1.8.6s.9,0,1.3-.2.9-.3,1.3-.5v1.1c-.4.2-.9.3-1.3.4s-.9.1-1.4.1c-1.2,0-2.1-.3-2.7-1-.7-.7-1-1.6-1-2.7s.3-2.1,1-2.8c.6-.7,1.5-1,2.6-1s1.7.3,2.3.9c.6.6.8,1.5.8,2.5ZM124.1,296.3c0-.6-.2-1.2-.5-1.6-.4-.4-.8-.6-1.4-.6s-1.2.2-1.6.6-.6.9-.7,1.6h4.2Z"/>
          <path id="DejaVuSans-64-3" data-name="DejaVuSans-64" class="cls-7" d="M131.9,294.4v-3.9h1.2v10h-1.2v-1.1c-.2.4-.6.7-.9,1-.4.2-.8.3-1.4.3-.9,0-1.6-.3-2.1-1-.5-.7-.8-1.6-.8-2.7s.3-2,.8-2.7c.5-.7,1.3-1,2.1-1s1,.1,1.4.3c.4.2.7.5.9,1ZM127.9,296.9c0,.9.2,1.6.5,2.1.4.5.9.7,1.5.7s1.1-.2,1.5-.7c.4-.5.5-1.2.5-2.1s-.2-1.6-.5-2.1c-.4-.5-.9-.7-1.5-.7s-1.1.2-1.5.7-.5,1.2-.5,2.1Z"/>
          <path id="DejaVuSans-20-3" data-name="DejaVuSans-20" class="cls-7" d="M134.3,300.6"/>
          <path id="DejaVuSans-62-3" data-name="DejaVuSans-62" class="cls-7" d="M145,296.9c0-.9-.2-1.6-.5-2.1s-.9-.7-1.5-.7-1.1.2-1.5.7-.5,1.2-.5,2.1.2,1.6.5,2.1c.4.5.9.7,1.5.7s1.1-.2,1.5-.7c.4-.5.5-1.2.5-2.1ZM140.9,294.4c.3-.4.6-.7.9-1,.4-.2.8-.3,1.4-.3.9,0,1.6.3,2.1,1,.5.7.8,1.6.8,2.7s-.3,2.1-.8,2.7c-.5.7-1.3,1-2.1,1s-1-.1-1.4-.3c-.4-.2-.7-.5-.9-1v1.1h-1.2v-10h1.2v3.9Z"/>
          <path id="DejaVuSans-79" class="cls-7" d="M151.2,301.2c-.3.9-.7,1.4-1,1.7-.3.3-.7.4-1.3.4h-.9v-1h.7c.3,0,.6,0,.8-.2.2-.2.4-.5.6-1.1l.2-.5-2.9-7.1h1.3l2.3,5.6,2.3-5.6h1.3l-3.2,7.9Z"/>
          <path id="DejaVuSans-20-4" data-name="DejaVuSans-20" class="cls-7" d="M154.7,300.6"/>
          <path id="DejaVuSans-65-4" data-name="DejaVuSans-65" class="cls-7" d="M166.3,296.6v.6h-5.5c0,.8.3,1.4.7,1.9.4.4,1.1.6,1.8.6s.9,0,1.3-.2.9-.3,1.3-.5v1.1c-.4.2-.9.3-1.3.4s-.9.1-1.4.1c-1.2,0-2.1-.3-2.7-1-.7-.7-1-1.6-1-2.7s.3-2.1,1-2.8c.6-.7,1.5-1,2.6-1s1.7.3,2.3.9c.6.6.8,1.5.8,2.5ZM165.1,296.3c0-.6-.2-1.2-.5-1.6-.4-.4-.8-.6-1.4-.6s-1.2.2-1.6.6-.6.9-.7,1.6h4.2Z"/>
          <path id="DejaVuSans-69" class="cls-7" d="M168.3,293.3h1.2v7.2h-1.2v-7.2ZM168.3,290.5h1.2v1.5h-1.2v-1.5Z"/>
          <path id="DejaVuSans-74" class="cls-7" d="M173.1,291.3v2.1h2.4v.9h-2.4v3.9c0,.6,0,1,.2,1.1s.5.3,1,.3h1.2v1h-1.2c-.9,0-1.5-.2-1.9-.5-.3-.3-.5-1-.5-1.9v-3.9h-.9v-.9h.9v-2.1h1.2Z"/>
          <path id="DejaVuSans-68" class="cls-7" d="M183.1,296.2v4.4h-1.2v-4.3c0-.7-.1-1.2-.4-1.5-.3-.3-.7-.5-1.2-.5s-1.1.2-1.5.6c-.4.4-.6,1-.6,1.7v4.1h-1.2v-10h1.2v3.9c.3-.4.6-.8,1-1,.4-.2.8-.3,1.3-.3.8,0,1.5.3,1.9.8.4.5.6,1.3.6,2.3Z"/>
          <path id="DejaVuSans-65-5" data-name="DejaVuSans-65" class="cls-7" d="M191.7,296.6v.6h-5.5c0,.8.3,1.4.7,1.9.4.4,1.1.6,1.8.6s.9,0,1.3-.2.9-.3,1.3-.5v1.1c-.4.2-.9.3-1.3.4s-.9.1-1.4.1c-1.2,0-2.1-.3-2.7-1-.7-.7-1-1.6-1-2.7s.3-2.1,1-2.8c.6-.7,1.5-1,2.6-1s1.7.3,2.3.9c.6.6.8,1.5.8,2.5ZM190.5,296.3c0-.6-.2-1.2-.5-1.6-.4-.4-.8-.6-1.4-.6s-1.2.2-1.6.6-.6.9-.7,1.6h4.2Z"/>
          <path id="DejaVuSans-72" class="cls-7" d="M197.8,294.4c-.1,0-.3-.1-.4-.2-.2,0-.3,0-.5,0-.7,0-1.2.2-1.5.7s-.5,1.1-.5,1.9v3.8h-1.2v-7.2h1.2v1.1c.3-.4.6-.8,1-1,.4-.2.9-.3,1.5-.3s.2,0,.3,0c0,0,.2,0,.3,0v1.2Z"/>
          <path id="DejaVuSans-20-5" data-name="DejaVuSans-20" class="cls-7" d="M197.8,300.6"/>
          <path id="DejaVuSans-6d" class="cls-7" d="M208.9,294.7c.3-.5.7-.9,1.1-1.2s.9-.4,1.5-.4,1.3.3,1.7.8c.4.5.6,1.3.6,2.2v4.4h-1.2v-4.3c0-.7-.1-1.2-.4-1.5-.2-.3-.6-.5-1.1-.5s-1.1.2-1.5.6c-.4.4-.5,1-.5,1.7v4.1h-1.2v-4.3c0-.7-.1-1.2-.4-1.5s-.6-.5-1.1-.5-1.1.2-1.4.6c-.4.4-.5,1-.5,1.7v4.1h-1.2v-7.2h1.2v1.1c.3-.4.6-.8,1-1s.8-.3,1.3-.3,1,.1,1.3.4c.4.3.6.7.8,1.2Z"/>
          <path id="DejaVuSans-6f-5" data-name="DejaVuSans-6f" class="cls-7" d="M218.9,294.2c-.6,0-1.1.2-1.5.7s-.6,1.2-.6,2,.2,1.5.6,2c.4.5.9.7,1.5.7s1.1-.2,1.5-.7c.4-.5.6-1.2.6-2s-.2-1.5-.6-2c-.4-.5-.9-.8-1.5-.8ZM218.9,293.2c1,0,1.8.3,2.4,1,.6.7.9,1.6.9,2.8s-.3,2.1-.9,2.8c-.6.7-1.4,1-2.4,1s-1.8-.3-2.4-1c-.6-.7-.9-1.6-.9-2.8s.3-2.1.9-2.8c.6-.7,1.4-1,2.4-1Z"/>
          <path id="DejaVuSans-64-4" data-name="DejaVuSans-64" class="cls-7" d="M228.9,294.4v-3.9h1.2v10h-1.2v-1.1c-.2.4-.6.7-.9,1-.4.2-.8.3-1.4.3-.9,0-1.6-.3-2.1-1-.5-.7-.8-1.6-.8-2.7s.3-2,.8-2.7c.5-.7,1.3-1,2.1-1s1,.1,1.4.3c.4.2.7.5.9,1ZM224.9,296.9c0,.9.2,1.6.5,2.1.4.5.9.7,1.5.7s1.1-.2,1.5-.7c.4-.5.5-1.2.5-2.1s-.2-1.6-.5-2.1c-.4-.5-.9-.7-1.5-.7s-1.1.2-1.5.7-.5,1.2-.5,2.1Z"/>
          <path id="DejaVuSans-65-6" data-name="DejaVuSans-65" class="cls-7" d="M238.7,296.6v.6h-5.5c0,.8.3,1.4.7,1.9.4.4,1.1.6,1.8.6s.9,0,1.3-.2.9-.3,1.3-.5v1.1c-.4.2-.9.3-1.3.4s-.9.1-1.4.1c-1.2,0-2.1-.3-2.7-1-.7-.7-1-1.6-1-2.7s.3-2.1,1-2.8c.6-.7,1.5-1,2.6-1s1.7.3,2.3.9c.6.6.8,1.5.8,2.5ZM237.5,296.3c0-.6-.2-1.2-.5-1.6-.4-.4-.8-.6-1.4-.6s-1.2.2-1.6.6-.6.9-.7,1.6h4.2Z"/>
          <path id="DejaVuSans-6c-3" data-name="DejaVuSans-6c" class="cls-7" d="M240.7,290.5h1.2v10h-1.2v-10Z"/>
          <path id="DejaVuSans-20-6" data-name="DejaVuSans-20" class="cls-7" d="M243.1,300.6"/>
          <path id="DejaVuSans-28-3" data-name="DejaVuSans-28" class="cls-7" d="M251.4,290.5c-.6,1-1,2-1.3,2.9-.3,1-.4,1.9-.4,2.9s.1,2,.4,2.9.7,2,1.3,2.9h-1c-.6-1-1.1-2-1.4-3-.3-1-.5-1.9-.5-2.9s.2-1.9.5-2.9c.3-1,.8-2,1.4-3h1Z"/>
          <path id="DejaVuSans-70" class="cls-7" d="M254.8,299.5v3.8h-1.2v-10h1.2v1.1c.3-.4.6-.7.9-1,.4-.2.8-.3,1.4-.3.9,0,1.6.3,2.1,1,.5.7.8,1.6.8,2.7s-.3,2.1-.8,2.7c-.5.7-1.3,1-2.1,1s-1-.1-1.4-.3c-.4-.2-.7-.5-.9-1ZM258.9,296.9c0-.9-.2-1.6-.5-2.1s-.9-.7-1.5-.7-1.1.2-1.5.7-.5,1.2-.5,2.1.2,1.6.5,2.1c.4.5.9.7,1.5.7s1.1-.2,1.5-.7c.4-.5.5-1.2.5-2.1Z"/>
          <path id="DejaVuSans-46" class="cls-7" d="M262.1,290.9h5.5v1.1h-4.2v2.8h3.8v1.1h-3.8v4.6h-1.3v-9.6Z"/>
          <path id="DejaVuSans-42" class="cls-7" d="M271,296v3.5h2.1c.7,0,1.2-.1,1.6-.4.3-.3.5-.7.5-1.3s-.2-1-.5-1.3c-.3-.3-.9-.4-1.6-.4h-2.1ZM271,292v2.9h1.9c.6,0,1.1-.1,1.4-.4.3-.2.5-.6.5-1.1s-.2-.8-.5-1.1c-.3-.2-.8-.4-1.4-.4h-1.9ZM269.7,290.9h3.3c1,0,1.8.2,2.3.6.5.4.8,1,.8,1.8s-.1,1.1-.4,1.4-.7.6-1.2.6c.6.1,1.1.4,1.5.9.4.4.5,1,.5,1.6s-.3,1.5-.9,2c-.6.5-1.4.7-2.5.7h-3.5v-9.6Z"/>
          <path id="DejaVuSans-41" class="cls-7" d="M282,292.2l-1.8,4.8h3.5l-1.8-4.8ZM281.2,290.9h1.5l3.7,9.6h-1.4l-.9-2.5h-4.3l-.9,2.5h-1.4l3.7-9.6Z"/>
          <path id="DejaVuSans-29-3" data-name="DejaVuSans-29" class="cls-7" d="M287.6,290.5h1c.6,1,1.1,2,1.4,3,.3,1,.5,1.9.5,2.9s-.2,1.9-.5,2.9c-.3,1-.8,2-1.4,3h-1c.6-1,1-2,1.3-2.9.3-1,.4-2,.4-2.9s-.1-2-.4-2.9c-.3-1-.7-1.9-1.3-2.9Z"/>
        </g>
      </g>
    </g>
  </g>
</svg>