<?xml version="1.0" encoding="UTF-8"?>
<svg xmlns="http://www.w3.org/2000/svg" xmlns:xlink="http://www.w3.org/1999/xlink" version="1.1" viewBox="0 0 325.2 331.6">
  <defs>
    <style>
      .cls-1, .cls-2, .cls-3 {
        fill: none;
      }

      .cls-4 {
        clip-path: url(#clippath-1);
      }

      .cls-5 {
        fill: #fff;
      }

      .cls-6 {
        fill: #1f78b4;
        fill-opacity: .5;
      }

      .cls-7, .cls-2 {
        stroke: #000;
        stroke-width: .8px;
      }

      .cls-7, .cls-3 {
        stroke-linejoin: round;
      }

      .cls-2 {
        stroke-linecap: square;
      }

      .cls-3 {
        stroke: gray;
        stroke-dasharray: 3.7 1.6;
      }

      .cls-8 {
        clip-path: url(#clippath);
      }
    </style>
    <clipPath id="clippath">
      <rect class="cls-1" x="49" y="20.6" width="275.8" height="275.8"/>
    </clipPath>
    <clipPath id="clippath-1">
      <rect class="cls-1" x="49" y="20.6" width="275.8" height="275.8"/>
    </clipPath>
  </defs>
  <!-- Generator: Adobe Illustrator 28.6.0, SVG Export Plug-In . SVG Version: 1.2.0 Build 709)  -->
  <g>
    <g id="Layer_1">
      <g id="axes_3">
        <g id="patch_12">
          <path class="cls-5" d="M49,296.4h275.8V20.6H49v275.8Z"/>
        </g>
        <g id="PathCollection_3">
          <g class="cls-8">
            <g>
              <path id="m20b6673cf2" class="cls-6" d="M243.2,85.5c.3,0,.6-.1.8-.3.2-.2.3-.5.3-.8s-.1-.6-.3-.8c-.2-.2-.5-.3-.8-.3s-.6.1-.8.3c-.2.2-.3.5-.3.8s.1.6.3.8c.2.2.5.3.8.3Z"/>
              <path id="m20b6673cf2-2" data-name="m20b6673cf2" class="cls-6" d="M254.8,107.8c.3,0,.6-.1.8-.3.2-.2.3-.5.3-.8s-.1-.6-.3-.8c-.2-.2-.5-.3-.8-.3s-.6.1-.8.3c-.2.2-.3.5-.3.8s.1.6.3.8c.2.2.5.3.8.3Z"/>
              <path id="m20b6673cf2-3" data-name="m20b6673cf2" class="cls-6" d="M254.8,107.8c.3,0,.6-.1.8-.3.2-.2.3-.5.3-.8s-.1-.6-.3-.8c-.2-.2-.5-.3-.8-.3s-.6.1-.8.3c-.2.2-.3.5-.3.8s.1.6.3.8c.2.2.5.3.8.3Z"/>
              <path id="m20b6673cf2-4" data-name="m20b6673cf2" class="cls-6" d="M216,84.2c.3,0,.6-.1.8-.3.2-.2.3-.5.3-.8s-.1-.6-.3-.8c-.2-.2-.5-.3-.8-.3s-.6.1-.8.3c-.2.2-.3.5-.3.8s.1.6.3.8c.2.2.5.3.8.3Z"/>
              <path id="m20b6673cf2-5" data-name="m20b6673cf2" class="cls-6" d="M231.2,131.2c.3,0,.6-.1.8-.3.2-.2.3-.5.3-.8s-.1-.6-.3-.8c-.2-.2-.5-.3-.8-.3s-.6.1-.8.3c-.2.2-.3.5-.3.8s.1.6.3.8c.2.2.5.3.8.3Z"/>
              <path id="m20b6673cf2-6" data-name="m20b6673cf2" class="cls-6" d="M227,137.3c.3,0,.6-.1.8-.3.2-.2.3-.5.3-.8s-.1-.6-.3-.8c-.2-.2-.5-.3-.8-.3s-.6.1-.8.3c-.2.2-.3.5-.3.8s.1.6.3.8c.2.2.5.3.8.3Z"/>
              <path id="m20b6673cf2-7" data-name="m20b6673cf2" class="cls-6" d="M227,137.3c.3,0,.6-.1.8-.3.2-.2.3-.5.3-.8s-.1-.6-.3-.8c-.2-.2-.5-.3-.8-.3s-.6.1-.8.3c-.2.2-.3.5-.3.8s.1.6.3.8c.2.2.5.3.8.3Z"/>
              <path id="m20b6673cf2-8" data-name="m20b6673cf2" class="cls-6" d="M227,137.3c.3,0,.6-.1.8-.3.2-.2.3-.5.3-.8s-.1-.6-.3-.8c-.2-.2-.5-.3-.8-.3s-.6.1-.8.3c-.2.2-.3.5-.3.8s.1.6.3.8c.2.2.5.3.8.3Z"/>
              <path id="m20b6673cf2-9" data-name="m20b6673cf2" class="cls-6" d="M227,137.3c.3,0,.6-.1.8-.3.2-.2.3-.5.3-.8s-.1-.6-.3-.8c-.2-.2-.5-.3-.8-.3s-.6.1-.8.3c-.2.2-.3.5-.3.8s.1.6.3.8c.2.2.5.3.8.3Z"/>
              <path id="m20b6673cf2-10" data-name="m20b6673cf2" class="cls-6" d="M236.7,136.4c.3,0,.6-.1.8-.3.2-.2.3-.5.3-.8s-.1-.6-.3-.8c-.2-.2-.5-.3-.8-.3s-.6.1-.8.3c-.2.2-.3.5-.3.8s.1.6.3.8c.2.2.5.3.8.3Z"/>
              <path id="m20b6673cf2-11" data-name="m20b6673cf2" class="cls-6" d="M236.7,136.4c.3,0,.6-.1.8-.3.2-.2.3-.5.3-.8s-.1-.6-.3-.8c-.2-.2-.5-.3-.8-.3s-.6.1-.8.3c-.2.2-.3.5-.3.8s.1.6.3.8c.2.2.5.3.8.3Z"/>
              <path id="m20b6673cf2-12" data-name="m20b6673cf2" class="cls-6" d="M236.7,136.4c.3,0,.6-.1.8-.3.2-.2.3-.5.3-.8s-.1-.6-.3-.8c-.2-.2-.5-.3-.8-.3s-.6.1-.8.3c-.2.2-.3.5-.3.8s.1.6.3.8c.2.2.5.3.8.3Z"/>
              <path id="m20b6673cf2-13" data-name="m20b6673cf2" class="cls-6" d="M236.7,136.4c.3,0,.6-.1.8-.3.2-.2.3-.5.3-.8s-.1-.6-.3-.8c-.2-.2-.5-.3-.8-.3s-.6.1-.8.3c-.2.2-.3.5-.3.8s.1.6.3.8c.2.2.5.3.8.3Z"/>
              <path id="m20b6673cf2-14" data-name="m20b6673cf2" class="cls-6" d="M229,68.6c.3,0,.6-.1.8-.3.2-.2.3-.5.3-.8s-.1-.6-.3-.8c-.2-.2-.5-.3-.8-.3s-.6.1-.8.3c-.2.2-.3.5-.3.8s.1.6.3.8c.2.2.5.3.8.3Z"/>
              <path id="m20b6673cf2-15" data-name="m20b6673cf2" class="cls-6" d="M220.1,129.4c.3,0,.6-.1.8-.3.2-.2.3-.5.3-.8s-.1-.6-.3-.8c-.2-.2-.5-.3-.8-.3s-.6.1-.8.3c-.2.2-.3.5-.3.8s.1.6.3.8c.2.2.5.3.8.3Z"/>
              <path id="m20b6673cf2-16" data-name="m20b6673cf2" class="cls-6" d="M220.1,129.4c.3,0,.6-.1.8-.3.2-.2.3-.5.3-.8s-.1-.6-.3-.8c-.2-.2-.5-.3-.8-.3s-.6.1-.8.3c-.2.2-.3.5-.3.8s.1.6.3.8c.2.2.5.3.8.3Z"/>
              <path id="m20b6673cf2-17" data-name="m20b6673cf2" class="cls-6" d="M220.1,129.4c.3,0,.6-.1.8-.3.2-.2.3-.5.3-.8s-.1-.6-.3-.8c-.2-.2-.5-.3-.8-.3s-.6.1-.8.3c-.2.2-.3.5-.3.8s.1.6.3.8c.2.2.5.3.8.3Z"/>
              <path id="m20b6673cf2-18" data-name="m20b6673cf2" class="cls-6" d="M239.1,104.8c.3,0,.6-.1.8-.3.2-.2.3-.5.3-.8s-.1-.6-.3-.8c-.2-.2-.5-.3-.8-.3s-.6.1-.8.3c-.2.2-.3.5-.3.8s.1.6.3.8c.2.2.5.3.8.3Z"/>
              <path id="m20b6673cf2-19" data-name="m20b6673cf2" class="cls-6" d="M231.5,118.3c.3,0,.6-.1.8-.3.2-.2.3-.5.3-.8s-.1-.6-.3-.8c-.2-.2-.5-.3-.8-.3s-.6.1-.8.3c-.2.2-.3.5-.3.8s.1.6.3.8c.2.2.5.3.8.3Z"/>
              <path id="m20b6673cf2-20" data-name="m20b6673cf2" class="cls-6" d="M220.7,129.3c.3,0,.6-.1.8-.3.2-.2.3-.5.3-.8s-.1-.6-.3-.8c-.2-.2-.5-.3-.8-.3s-.6.1-.8.3c-.2.2-.3.5-.3.8s.1.6.3.8c.2.2.5.3.8.3Z"/>
              <path id="m20b6673cf2-21" data-name="m20b6673cf2" class="cls-6" d="M221.9,132.4c.3,0,.6-.1.8-.3.2-.2.3-.5.3-.8s-.1-.6-.3-.8c-.2-.2-.5-.3-.8-.3s-.6.1-.8.3c-.2.2-.3.5-.3.8s.1.6.3.8c.2.2.5.3.8.3Z"/>
              <path id="m20b6673cf2-22" data-name="m20b6673cf2" class="cls-6" d="M254.3,113c.3,0,.6-.1.8-.3.2-.2.3-.5.3-.8s-.1-.6-.3-.8c-.2-.2-.5-.3-.8-.3s-.6.1-.8.3c-.2.2-.3.5-.3.8s.1.6.3.8c.2.2.5.3.8.3Z"/>
              <path id="m20b6673cf2-23" data-name="m20b6673cf2" class="cls-6" d="M235.7,124c.3,0,.6-.1.8-.3.2-.2.3-.5.3-.8s-.1-.6-.3-.8c-.2-.2-.5-.3-.8-.3s-.6.1-.8.3c-.2.2-.3.5-.3.8s.1.6.3.8c.2.2.5.3.8.3Z"/>
              <path id="m20b6673cf2-24" data-name="m20b6673cf2" class="cls-6" d="M227.3,140.7c.3,0,.6-.1.8-.3.2-.2.3-.5.3-.8s-.1-.6-.3-.8c-.2-.2-.5-.3-.8-.3s-.6.1-.8.3c-.2.2-.3.5-.3.8s.1.6.3.8c.2.2.5.3.8.3Z"/>
              <path id="m20b6673cf2-25" data-name="m20b6673cf2" class="cls-6" d="M242.5,111.9c.3,0,.6-.1.8-.3.2-.2.3-.5.3-.8s-.1-.6-.3-.8c-.2-.2-.5-.3-.8-.3s-.6.1-.8.3c-.2.2-.3.5-.3.8s.1.6.3.8c.2.2.5.3.8.3Z"/>
              <path id="m20b6673cf2-26" data-name="m20b6673cf2" class="cls-6" d="M242.5,111.9c.3,0,.6-.1.8-.3.2-.2.3-.5.3-.8s-.1-.6-.3-.8c-.2-.2-.5-.3-.8-.3s-.6.1-.8.3c-.2.2-.3.5-.3.8s.1.6.3.8c.2.2.5.3.8.3Z"/>
              <path id="m20b6673cf2-27" data-name="m20b6673cf2" class="cls-6" d="M212.3,135.7c.3,0,.6-.1.8-.3.2-.2.3-.5.3-.8s-.1-.6-.3-.8c-.2-.2-.5-.3-.8-.3s-.6.1-.8.3c-.2.2-.3.5-.3.8s.1.6.3.8c.2.2.5.3.8.3Z"/>
              <path id="m20b6673cf2-28" data-name="m20b6673cf2" class="cls-6" d="M244.7,93.6c.3,0,.6-.1.8-.3.2-.2.3-.5.3-.8s-.1-.6-.3-.8c-.2-.2-.5-.3-.8-.3s-.6.1-.8.3c-.2.2-.3.5-.3.8s.1.6.3.8c.2.2.5.3.8.3Z"/>
              <path id="m20b6673cf2-29" data-name="m20b6673cf2" class="cls-6" d="M214.6,131.8c.3,0,.6-.1.8-.3.2-.2.3-.5.3-.8s-.1-.6-.3-.8c-.2-.2-.5-.3-.8-.3s-.6.1-.8.3c-.2.2-.3.5-.3.8s.1.6.3.8c.2.2.5.3.8.3Z"/>
              <path id="m20b6673cf2-30" data-name="m20b6673cf2" class="cls-6" d="M228.3,116.6c.3,0,.6-.1.8-.3.2-.2.3-.5.3-.8s-.1-.6-.3-.8c-.2-.2-.5-.3-.8-.3s-.6.1-.8.3c-.2.2-.3.5-.3.8s.1.6.3.8c.2.2.5.3.8.3Z"/>
              <path id="m20b6673cf2-31" data-name="m20b6673cf2" class="cls-6" d="M228.3,116.6c.3,0,.6-.1.8-.3.2-.2.3-.5.3-.8s-.1-.6-.3-.8c-.2-.2-.5-.3-.8-.3s-.6.1-.8.3c-.2.2-.3.5-.3.8s.1.6.3.8c.2.2.5.3.8.3Z"/>
              <path id="m20b6673cf2-32" data-name="m20b6673cf2" class="cls-6" d="M224.8,133.9c.3,0,.6-.1.8-.3.2-.2.3-.5.3-.8s-.1-.6-.3-.8c-.2-.2-.5-.3-.8-.3s-.6.1-.8.3c-.2.2-.3.5-.3.8s.1.6.3.8c.2.2.5.3.8.3Z"/>
              <path id="m20b6673cf2-33" data-name="m20b6673cf2" class="cls-6" d="M178.4,184c.3,0,.6-.1.8-.3.2-.2.3-.5.3-.8s-.1-.6-.3-.8c-.2-.2-.5-.3-.8-.3s-.6.1-.8.3c-.2.2-.3.5-.3.8s.1.6.3.8c.2.2.5.3.8.3Z"/>
              <path id="m20b6673cf2-34" data-name="m20b6673cf2" class="cls-6" d="M227.1,188c.3,0,.6-.1.8-.3.2-.2.3-.5.3-.8s-.1-.6-.3-.8c-.2-.2-.5-.3-.8-.3s-.6.1-.8.3c-.2.2-.3.5-.3.8s.1.6.3.8c.2.2.5.3.8.3Z"/>
              <path id="m20b6673cf2-35" data-name="m20b6673cf2" class="cls-6" d="M227.1,188c.3,0,.6-.1.8-.3.2-.2.3-.5.3-.8s-.1-.6-.3-.8c-.2-.2-.5-.3-.8-.3s-.6.1-.8.3c-.2.2-.3.5-.3.8s.1.6.3.8c.2.2.5.3.8.3Z"/>
              <path id="m20b6673cf2-36" data-name="m20b6673cf2" class="cls-6" d="M215.4,117.3c.3,0,.6-.1.8-.3.2-.2.3-.5.3-.8s-.1-.6-.3-.8c-.2-.2-.5-.3-.8-.3s-.6.1-.8.3c-.2.2-.3.5-.3.8s.1.6.3.8c.2.2.5.3.8.3Z"/>
              <path id="m20b6673cf2-37" data-name="m20b6673cf2" class="cls-6" d="M215.4,117.3c.3,0,.6-.1.8-.3.2-.2.3-.5.3-.8s-.1-.6-.3-.8c-.2-.2-.5-.3-.8-.3s-.6.1-.8.3c-.2.2-.3.5-.3.8s.1.6.3.8c.2.2.5.3.8.3Z"/>
              <path id="m20b6673cf2-38" data-name="m20b6673cf2" class="cls-6" d="M221.9,132.4c.3,0,.6-.1.8-.3.2-.2.3-.5.3-.8s-.1-.6-.3-.8c-.2-.2-.5-.3-.8-.3s-.6.1-.8.3c-.2.2-.3.5-.3.8s.1.6.3.8c.2.2.5.3.8.3Z"/>
              <path id="m20b6673cf2-39" data-name="m20b6673cf2" class="cls-6" d="M184.8,137.5c.3,0,.6-.1.8-.3.2-.2.3-.5.3-.8s-.1-.6-.3-.8c-.2-.2-.5-.3-.8-.3s-.6.1-.8.3c-.2.2-.3.5-.3.8s.1.6.3.8c.2.2.5.3.8.3Z"/>
              <path id="m20b6673cf2-40" data-name="m20b6673cf2" class="cls-6" d="M205.9,101.7c.3,0,.6-.1.8-.3.2-.2.3-.5.3-.8s-.1-.6-.3-.8c-.2-.2-.5-.3-.8-.3s-.6.1-.8.3c-.2.2-.3.5-.3.8s.1.6.3.8c.2.2.5.3.8.3Z"/>
              <path id="m20b6673cf2-41" data-name="m20b6673cf2" class="cls-6" d="M227.7,134.4c.3,0,.6-.1.8-.3.2-.2.3-.5.3-.8s-.1-.6-.3-.8c-.2-.2-.5-.3-.8-.3s-.6.1-.8.3c-.2.2-.3.5-.3.8s.1.6.3.8c.2.2.5.3.8.3Z"/>
              <path id="m20b6673cf2-42" data-name="m20b6673cf2" class="cls-6" d="M213,132.7c.3,0,.6-.1.8-.3.2-.2.3-.5.3-.8s-.1-.6-.3-.8c-.2-.2-.5-.3-.8-.3s-.6.1-.8.3c-.2.2-.3.5-.3.8s.1.6.3.8c.2.2.5.3.8.3Z"/>
              <path id="m20b6673cf2-43" data-name="m20b6673cf2" class="cls-6" d="M268.4,101.1c.3,0,.6-.1.8-.3.2-.2.3-.5.3-.8s-.1-.6-.3-.8c-.2-.2-.5-.3-.8-.3s-.6.1-.8.3c-.2.2-.3.5-.3.8s.1.6.3.8c.2.2.5.3.8.3Z"/>
              <path id="m20b6673cf2-44" data-name="m20b6673cf2" class="cls-6" d="M268.4,101.1c.3,0,.6-.1.8-.3.2-.2.3-.5.3-.8s-.1-.6-.3-.8c-.2-.2-.5-.3-.8-.3s-.6.1-.8.3c-.2.2-.3.5-.3.8s.1.6.3.8c.2.2.5.3.8.3Z"/>
              <path id="m20b6673cf2-45" data-name="m20b6673cf2" class="cls-6" d="M238.2,84.2c.3,0,.6-.1.8-.3.2-.2.3-.5.3-.8s-.1-.6-.3-.8c-.2-.2-.5-.3-.8-.3s-.6.1-.8.3c-.2.2-.3.5-.3.8s.1.6.3.8c.2.2.5.3.8.3Z"/>
              <path id="m20b6673cf2-46" data-name="m20b6673cf2" class="cls-6" d="M148.7,157.3c.3,0,.6-.1.8-.3.2-.2.3-.5.3-.8s-.1-.6-.3-.8c-.2-.2-.5-.3-.8-.3s-.6.1-.8.3c-.2.2-.3.5-.3.8s.1.6.3.8c.2.2.5.3.8.3Z"/>
              <path id="m20b6673cf2-47" data-name="m20b6673cf2" class="cls-6" d="M223.9,122.6c.3,0,.6-.1.8-.3.2-.2.3-.5.3-.8s-.1-.6-.3-.8c-.2-.2-.5-.3-.8-.3s-.6.1-.8.3c-.2.2-.3.5-.3.8s.1.6.3.8c.2.2.5.3.8.3Z"/>
              <path id="m20b6673cf2-48" data-name="m20b6673cf2" class="cls-6" d="M214.4,123c.3,0,.6-.1.8-.3.2-.2.3-.5.3-.8s-.1-.6-.3-.8c-.2-.2-.5-.3-.8-.3s-.6.1-.8.3c-.2.2-.3.5-.3.8s.1.6.3.8c.2.2.5.3.8.3Z"/>
              <path id="m20b6673cf2-49" data-name="m20b6673cf2" class="cls-6" d="M232.4,129.8c.3,0,.6-.1.8-.3.2-.2.3-.5.3-.8s-.1-.6-.3-.8c-.2-.2-.5-.3-.8-.3s-.6.1-.8.3c-.2.2-.3.5-.3.8s.1.6.3.8c.2.2.5.3.8.3Z"/>
              <path id="m20b6673cf2-50" data-name="m20b6673cf2" class="cls-6" d="M264.7,129.4c.3,0,.6-.1.8-.3.2-.2.3-.5.3-.8s-.1-.6-.3-.8c-.2-.2-.5-.3-.8-.3s-.6.1-.8.3c-.2.2-.3.5-.3.8s.1.6.3.8c.2.2.5.3.8.3Z"/>
              <path id="m20b6673cf2-51" data-name="m20b6673cf2" class="cls-6" d="M246.3,138.6c.3,0,.6-.1.8-.3.2-.2.3-.5.3-.8s-.1-.6-.3-.8c-.2-.2-.5-.3-.8-.3s-.6.1-.8.3c-.2.2-.3.5-.3.8s.1.6.3.8c.2.2.5.3.8.3Z"/>
              <path id="m20b6673cf2-52" data-name="m20b6673cf2" class="cls-6" d="M213.1,130.2c.3,0,.6-.1.8-.3.2-.2.3-.5.3-.8s-.1-.6-.3-.8c-.2-.2-.5-.3-.8-.3s-.6.1-.8.3c-.2.2-.3.5-.3.8s.1.6.3.8c.2.2.5.3.8.3Z"/>
              <path id="m20b6673cf2-53" data-name="m20b6673cf2" class="cls-6" d="M227.2,128.9c.3,0,.6-.1.8-.3.2-.2.3-.5.3-.8s-.1-.6-.3-.8c-.2-.2-.5-.3-.8-.3s-.6.1-.8.3c-.2.2-.3.5-.3.8s.1.6.3.8c.2.2.5.3.8.3Z"/>
              <path id="m20b6673cf2-54" data-name="m20b6673cf2" class="cls-6" d="M217.5,133.8c.3,0,.6-.1.8-.3.2-.2.3-.5.3-.8s-.1-.6-.3-.8c-.2-.2-.5-.3-.8-.3s-.6.1-.8.3c-.2.2-.3.5-.3.8s.1.6.3.8c.2.2.5.3.8.3Z"/>
              <path id="m20b6673cf2-55" data-name="m20b6673cf2" class="cls-6" d="M214.2,127.6c.3,0,.6-.1.8-.3.2-.2.3-.5.3-.8s-.1-.6-.3-.8c-.2-.2-.5-.3-.8-.3s-.6.1-.8.3c-.2.2-.3.5-.3.8s.1.6.3.8c.2.2.5.3.8.3Z"/>
              <path id="m20b6673cf2-56" data-name="m20b6673cf2" class="cls-6" d="M213.5,135.3c.3,0,.6-.1.8-.3.2-.2.3-.5.3-.8s-.1-.6-.3-.8c-.2-.2-.5-.3-.8-.3s-.6.1-.8.3c-.2.2-.3.5-.3.8s.1.6.3.8c.2.2.5.3.8.3Z"/>
              <path id="m20b6673cf2-57" data-name="m20b6673cf2" class="cls-6" d="M229.8,119c.3,0,.6-.1.8-.3.2-.2.3-.5.3-.8s-.1-.6-.3-.8c-.2-.2-.5-.3-.8-.3s-.6.1-.8.3c-.2.2-.3.5-.3.8s.1.6.3.8c.2.2.5.3.8.3Z"/>
              <path id="m20b6673cf2-58" data-name="m20b6673cf2" class="cls-6" d="M226.8,132c.3,0,.6-.1.8-.3.2-.2.3-.5.3-.8s-.1-.6-.3-.8c-.2-.2-.5-.3-.8-.3s-.6.1-.8.3c-.2.2-.3.5-.3.8s.1.6.3.8c.2.2.5.3.8.3Z"/>
              <path id="m20b6673cf2-59" data-name="m20b6673cf2" class="cls-6" d="M226.4,116.3c.3,0,.6-.1.8-.3.2-.2.3-.5.3-.8s-.1-.6-.3-.8c-.2-.2-.5-.3-.8-.3s-.6.1-.8.3c-.2.2-.3.5-.3.8s.1.6.3.8c.2.2.5.3.8.3Z"/>
              <path id="m20b6673cf2-60" data-name="m20b6673cf2" class="cls-6" d="M226.4,116.3c.3,0,.6-.1.8-.3.2-.2.3-.5.3-.8s-.1-.6-.3-.8c-.2-.2-.5-.3-.8-.3s-.6.1-.8.3c-.2.2-.3.5-.3.8s.1.6.3.8c.2.2.5.3.8.3Z"/>
              <path id="m20b6673cf2-61" data-name="m20b6673cf2" class="cls-6" d="M211.1,140.9c.3,0,.6-.1.8-.3.2-.2.3-.5.3-.8s-.1-.6-.3-.8c-.2-.2-.5-.3-.8-.3s-.6.1-.8.3c-.2.2-.3.5-.3.8s.1.6.3.8c.2.2.5.3.8.3Z"/>
              <path id="m20b6673cf2-62" data-name="m20b6673cf2" class="cls-6" d="M285.6,74.8c.3,0,.6-.1.8-.3.2-.2.3-.5.3-.8s-.1-.6-.3-.8c-.2-.2-.5-.3-.8-.3s-.6.1-.8.3c-.2.2-.3.5-.3.8s.1.6.3.8c.2.2.5.3.8.3Z"/>
              <path id="m20b6673cf2-63" data-name="m20b6673cf2" class="cls-6" d="M253.9,139.9c.3,0,.6-.1.8-.3.2-.2.3-.5.3-.8s-.1-.6-.3-.8c-.2-.2-.5-.3-.8-.3s-.6.1-.8.3c-.2.2-.3.5-.3.8s.1.6.3.8c.2.2.5.3.8.3Z"/>
              <path id="m20b6673cf2-64" data-name="m20b6673cf2" class="cls-6" d="M246.6,110.3c.3,0,.6-.1.8-.3.2-.2.3-.5.3-.8s-.1-.6-.3-.8c-.2-.2-.5-.3-.8-.3s-.6.1-.8.3c-.2.2-.3.5-.3.8s.1.6.3.8c.2.2.5.3.8.3Z"/>
              <path id="m20b6673cf2-65" data-name="m20b6673cf2" class="cls-6" d="M230.1,87.5c.3,0,.6-.1.8-.3.2-.2.3-.5.3-.8s-.1-.6-.3-.8c-.2-.2-.5-.3-.8-.3s-.6.1-.8.3c-.2.2-.3.5-.3.8s.1.6.3.8c.2.2.5.3.8.3Z"/>
              <path id="m20b6673cf2-66" data-name="m20b6673cf2" class="cls-6" d="M230.1,87.5c.3,0,.6-.1.8-.3.2-.2.3-.5.3-.8s-.1-.6-.3-.8c-.2-.2-.5-.3-.8-.3s-.6.1-.8.3c-.2.2-.3.5-.3.8s.1.6.3.8c.2.2.5.3.8.3Z"/>
              <path id="m20b6673cf2-67" data-name="m20b6673cf2" class="cls-6" d="M230.1,87.5c.3,0,.6-.1.8-.3.2-.2.3-.5.3-.8s-.1-.6-.3-.8c-.2-.2-.5-.3-.8-.3s-.6.1-.8.3c-.2.2-.3.5-.3.8s.1.6.3.8c.2.2.5.3.8.3Z"/>
              <path id="m20b6673cf2-68" data-name="m20b6673cf2" class="cls-6" d="M230.1,87.5c.3,0,.6-.1.8-.3.2-.2.3-.5.3-.8s-.1-.6-.3-.8c-.2-.2-.5-.3-.8-.3s-.6.1-.8.3c-.2.2-.3.5-.3.8s.1.6.3.8c.2.2.5.3.8.3Z"/>
              <path id="m20b6673cf2-69" data-name="m20b6673cf2" class="cls-6" d="M268.9,126.6c.3,0,.6-.1.8-.3.2-.2.3-.5.3-.8s-.1-.6-.3-.8c-.2-.2-.5-.3-.8-.3s-.6.1-.8.3c-.2.2-.3.5-.3.8s.1.6.3.8c.2.2.5.3.8.3Z"/>
              <path id="m20b6673cf2-70" data-name="m20b6673cf2" class="cls-6" d="M268.9,126.6c.3,0,.6-.1.8-.3.2-.2.3-.5.3-.8s-.1-.6-.3-.8c-.2-.2-.5-.3-.8-.3s-.6.1-.8.3c-.2.2-.3.5-.3.8s.1.6.3.8c.2.2.5.3.8.3Z"/>
              <path id="m20b6673cf2-71" data-name="m20b6673cf2" class="cls-6" d="M230.6,112c.3,0,.6-.1.8-.3.2-.2.3-.5.3-.8s-.1-.6-.3-.8c-.2-.2-.5-.3-.8-.3s-.6.1-.8.3c-.2.2-.3.5-.3.8s.1.6.3.8c.2.2.5.3.8.3Z"/>
              <path id="m20b6673cf2-72" data-name="m20b6673cf2" class="cls-6" d="M245,125.5c.3,0,.6-.1.8-.3.2-.2.3-.5.3-.8s-.1-.6-.3-.8c-.2-.2-.5-.3-.8-.3s-.6.1-.8.3c-.2.2-.3.5-.3.8s.1.6.3.8c.2.2.5.3.8.3Z"/>
              <path id="m20b6673cf2-73" data-name="m20b6673cf2" class="cls-6" d="M234.7,128.6c.3,0,.6-.1.8-.3.2-.2.3-.5.3-.8s-.1-.6-.3-.8c-.2-.2-.5-.3-.8-.3s-.6.1-.8.3c-.2.2-.3.5-.3.8s.1.6.3.8c.2.2.5.3.8.3Z"/>
              <path id="m20b6673cf2-74" data-name="m20b6673cf2" class="cls-6" d="M247,129c.3,0,.6-.1.8-.3.2-.2.3-.5.3-.8s-.1-.6-.3-.8c-.2-.2-.5-.3-.8-.3s-.6.1-.8.3c-.2.2-.3.5-.3.8s.1.6.3.8c.2.2.5.3.8.3Z"/>
              <path id="m20b6673cf2-75" data-name="m20b6673cf2" class="cls-6" d="M247,129c.3,0,.6-.1.8-.3.2-.2.3-.5.3-.8s-.1-.6-.3-.8c-.2-.2-.5-.3-.8-.3s-.6.1-.8.3c-.2.2-.3.5-.3.8s.1.6.3.8c.2.2.5.3.8.3Z"/>
              <path id="m20b6673cf2-76" data-name="m20b6673cf2" class="cls-6" d="M247,129c.3,0,.6-.1.8-.3.2-.2.3-.5.3-.8s-.1-.6-.3-.8c-.2-.2-.5-.3-.8-.3s-.6.1-.8.3c-.2.2-.3.5-.3.8s.1.6.3.8c.2.2.5.3.8.3Z"/>
              <path id="m20b6673cf2-77" data-name="m20b6673cf2" class="cls-6" d="M247,129c.3,0,.6-.1.8-.3.2-.2.3-.5.3-.8s-.1-.6-.3-.8c-.2-.2-.5-.3-.8-.3s-.6.1-.8.3c-.2.2-.3.5-.3.8s.1.6.3.8c.2.2.5.3.8.3Z"/>
              <path id="m20b6673cf2-78" data-name="m20b6673cf2" class="cls-6" d="M247,129c.3,0,.6-.1.8-.3.2-.2.3-.5.3-.8s-.1-.6-.3-.8c-.2-.2-.5-.3-.8-.3s-.6.1-.8.3c-.2.2-.3.5-.3.8s.1.6.3.8c.2.2.5.3.8.3Z"/>
              <path id="m20b6673cf2-79" data-name="m20b6673cf2" class="cls-6" d="M247,129c.3,0,.6-.1.8-.3.2-.2.3-.5.3-.8s-.1-.6-.3-.8c-.2-.2-.5-.3-.8-.3s-.6.1-.8.3c-.2.2-.3.5-.3.8s.1.6.3.8c.2.2.5.3.8.3Z"/>
              <path id="m20b6673cf2-80" data-name="m20b6673cf2" class="cls-6" d="M247,129c.3,0,.6-.1.8-.3.2-.2.3-.5.3-.8s-.1-.6-.3-.8c-.2-.2-.5-.3-.8-.3s-.6.1-.8.3c-.2.2-.3.5-.3.8s.1.6.3.8c.2.2.5.3.8.3Z"/>
              <path id="m20b6673cf2-81" data-name="m20b6673cf2" class="cls-6" d="M247,129c.3,0,.6-.1.8-.3.2-.2.3-.5.3-.8s-.1-.6-.3-.8c-.2-.2-.5-.3-.8-.3s-.6.1-.8.3c-.2.2-.3.5-.3.8s.1.6.3.8c.2.2.5.3.8.3Z"/>
              <path id="m20b6673cf2-82" data-name="m20b6673cf2" class="cls-6" d="M250.7,82.7c.3,0,.6-.1.8-.3.2-.2.3-.5.3-.8s-.1-.6-.3-.8c-.2-.2-.5-.3-.8-.3s-.6.1-.8.3c-.2.2-.3.5-.3.8s.1.6.3.8c.2.2.5.3.8.3Z"/>
              <path id="m20b6673cf2-83" data-name="m20b6673cf2" class="cls-6" d="M243.7,118c.3,0,.6-.1.8-.3.2-.2.3-.5.3-.8s-.1-.6-.3-.8c-.2-.2-.5-.3-.8-.3s-.6.1-.8.3c-.2.2-.3.5-.3.8s.1.6.3.8c.2.2.5.3.8.3Z"/>
              <path id="m20b6673cf2-84" data-name="m20b6673cf2" class="cls-6" d="M243.7,118c.3,0,.6-.1.8-.3.2-.2.3-.5.3-.8s-.1-.6-.3-.8c-.2-.2-.5-.3-.8-.3s-.6.1-.8.3c-.2.2-.3.5-.3.8s.1.6.3.8c.2.2.5.3.8.3Z"/>
              <path id="m20b6673cf2-85" data-name="m20b6673cf2" class="cls-6" d="M243.7,118c.3,0,.6-.1.8-.3.2-.2.3-.5.3-.8s-.1-.6-.3-.8c-.2-.2-.5-.3-.8-.3s-.6.1-.8.3c-.2.2-.3.5-.3.8s.1.6.3.8c.2.2.5.3.8.3Z"/>
              <path id="m20b6673cf2-86" data-name="m20b6673cf2" class="cls-6" d="M216.8,112.5c.3,0,.6-.1.8-.3.2-.2.3-.5.3-.8s-.1-.6-.3-.8c-.2-.2-.5-.3-.8-.3s-.6.1-.8.3c-.2.2-.3.5-.3.8s.1.6.3.8c.2.2.5.3.8.3Z"/>
              <path id="m20b6673cf2-87" data-name="m20b6673cf2" class="cls-6" d="M234,128.3c.3,0,.6-.1.8-.3.2-.2.3-.5.3-.8s-.1-.6-.3-.8c-.2-.2-.5-.3-.8-.3s-.6.1-.8.3c-.2.2-.3.5-.3.8s.1.6.3.8c.2.2.5.3.8.3Z"/>
              <path id="m20b6673cf2-88" data-name="m20b6673cf2" class="cls-6" d="M198.9,136.8c.3,0,.6-.1.8-.3.2-.2.3-.5.3-.8s-.1-.6-.3-.8c-.2-.2-.5-.3-.8-.3s-.6.1-.8.3c-.2.2-.3.5-.3.8s.1.6.3.8c.2.2.5.3.8.3Z"/>
              <path id="m20b6673cf2-89" data-name="m20b6673cf2" class="cls-6" d="M242.2,119.4c.3,0,.6-.1.8-.3.2-.2.3-.5.3-.8s-.1-.6-.3-.8c-.2-.2-.5-.3-.8-.3s-.6.1-.8.3c-.2.2-.3.5-.3.8s.1.6.3.8c.2.2.5.3.8.3Z"/>
              <path id="m20b6673cf2-90" data-name="m20b6673cf2" class="cls-6" d="M242.2,119.4c.3,0,.6-.1.8-.3.2-.2.3-.5.3-.8s-.1-.6-.3-.8c-.2-.2-.5-.3-.8-.3s-.6.1-.8.3c-.2.2-.3.5-.3.8s.1.6.3.8c.2.2.5.3.8.3Z"/>
              <path id="m20b6673cf2-91" data-name="m20b6673cf2" class="cls-6" d="M201.1,160.1c.3,0,.6-.1.8-.3.2-.2.3-.5.3-.8s-.1-.6-.3-.8c-.2-.2-.5-.3-.8-.3s-.6.1-.8.3c-.2.2-.3.5-.3.8s.1.6.3.8c.2.2.5.3.8.3Z"/>
              <path id="m20b6673cf2-92" data-name="m20b6673cf2" class="cls-6" d="M242.2,140c.3,0,.6-.1.8-.3.2-.2.3-.5.3-.8s-.1-.6-.3-.8c-.2-.2-.5-.3-.8-.3s-.6.1-.8.3c-.2.2-.3.5-.3.8s.1.6.3.8c.2.2.5.3.8.3Z"/>
              <path id="m20b6673cf2-93" data-name="m20b6673cf2" class="cls-6" d="M249.9,119.1c.3,0,.6-.1.8-.3.2-.2.3-.5.3-.8s-.1-.6-.3-.8c-.2-.2-.5-.3-.8-.3s-.6.1-.8.3c-.2.2-.3.5-.3.8s.1.6.3.8c.2.2.5.3.8.3Z"/>
              <path id="m20b6673cf2-94" data-name="m20b6673cf2" class="cls-6" d="M249.9,119.1c.3,0,.6-.1.8-.3.2-.2.3-.5.3-.8s-.1-.6-.3-.8c-.2-.2-.5-.3-.8-.3s-.6.1-.8.3c-.2.2-.3.5-.3.8s.1.6.3.8c.2.2.5.3.8.3Z"/>
              <path id="m20b6673cf2-95" data-name="m20b6673cf2" class="cls-6" d="M249.9,119.1c.3,0,.6-.1.8-.3.2-.2.3-.5.3-.8s-.1-.6-.3-.8c-.2-.2-.5-.3-.8-.3s-.6.1-.8.3c-.2.2-.3.5-.3.8s.1.6.3.8c.2.2.5.3.8.3Z"/>
              <path id="m20b6673cf2-96" data-name="m20b6673cf2" class="cls-6" d="M249.9,119.1c.3,0,.6-.1.8-.3.2-.2.3-.5.3-.8s-.1-.6-.3-.8c-.2-.2-.5-.3-.8-.3s-.6.1-.8.3c-.2.2-.3.5-.3.8s.1.6.3.8c.2.2.5.3.8.3Z"/>
              <path id="m20b6673cf2-97" data-name="m20b6673cf2" class="cls-6" d="M200.4,124c.3,0,.6-.1.8-.3.2-.2.3-.5.3-.8s-.1-.6-.3-.8c-.2-.2-.5-.3-.8-.3s-.6.1-.8.3c-.2.2-.3.5-.3.8s.1.6.3.8c.2.2.5.3.8.3Z"/>
              <path id="m20b6673cf2-98" data-name="m20b6673cf2" class="cls-6" d="M225.4,116.1c.3,0,.6-.1.8-.3.2-.2.3-.5.3-.8s-.1-.6-.3-.8c-.2-.2-.5-.3-.8-.3s-.6.1-.8.3c-.2.2-.3.5-.3.8s.1.6.3.8c.2.2.5.3.8.3Z"/>
              <path id="m20b6673cf2-99" data-name="m20b6673cf2" class="cls-6" d="M245,110c.3,0,.6-.1.8-.3.2-.2.3-.5.3-.8s-.1-.6-.3-.8c-.2-.2-.5-.3-.8-.3s-.6.1-.8.3c-.2.2-.3.5-.3.8s.1.6.3.8c.2.2.5.3.8.3Z"/>
              <path id="m20b6673cf2-100" data-name="m20b6673cf2" class="cls-6" d="M203.5,149.5c.3,0,.6-.1.8-.3.2-.2.3-.5.3-.8s-.1-.6-.3-.8c-.2-.2-.5-.3-.8-.3s-.6.1-.8.3c-.2.2-.3.5-.3.8s.1.6.3.8c.2.2.5.3.8.3Z"/>
              <path id="m20b6673cf2-101" data-name="m20b6673cf2" class="cls-6" d="M197.4,124.7c.3,0,.6-.1.8-.3.2-.2.3-.5.3-.8s-.1-.6-.3-.8c-.2-.2-.5-.3-.8-.3s-.6.1-.8.3c-.2.2-.3.5-.3.8s.1.6.3.8c.2.2.5.3.8.3Z"/>
              <path id="m20b6673cf2-102" data-name="m20b6673cf2" class="cls-6" d="M197.4,124.7c.3,0,.6-.1.8-.3.2-.2.3-.5.3-.8s-.1-.6-.3-.8c-.2-.2-.5-.3-.8-.3s-.6.1-.8.3c-.2.2-.3.5-.3.8s.1.6.3.8c.2.2.5.3.8.3Z"/>
              <path id="m20b6673cf2-103" data-name="m20b6673cf2" class="cls-6" d="M197.4,124.7c.3,0,.6-.1.8-.3.2-.2.3-.5.3-.8s-.1-.6-.3-.8c-.2-.2-.5-.3-.8-.3s-.6.1-.8.3c-.2.2-.3.5-.3.8s.1.6.3.8c.2.2.5.3.8.3Z"/>
              <path id="m20b6673cf2-104" data-name="m20b6673cf2" class="cls-6" d="M197.4,124.7c.3,0,.6-.1.8-.3.2-.2.3-.5.3-.8s-.1-.6-.3-.8c-.2-.2-.5-.3-.8-.3s-.6.1-.8.3c-.2.2-.3.5-.3.8s.1.6.3.8c.2.2.5.3.8.3Z"/>
              <path id="m20b6673cf2-105" data-name="m20b6673cf2" class="cls-6" d="M232.3,113.1c.3,0,.6-.1.8-.3.2-.2.3-.5.3-.8s-.1-.6-.3-.8c-.2-.2-.5-.3-.8-.3s-.6.1-.8.3c-.2.2-.3.5-.3.8s.1.6.3.8c.2.2.5.3.8.3Z"/>
              <path id="m20b6673cf2-106" data-name="m20b6673cf2" class="cls-6" d="M229.3,110.9c.3,0,.6-.1.8-.3.2-.2.3-.5.3-.8s-.1-.6-.3-.8c-.2-.2-.5-.3-.8-.3s-.6.1-.8.3c-.2.2-.3.5-.3.8s.1.6.3.8c.2.2.5.3.8.3Z"/>
              <path id="m20b6673cf2-107" data-name="m20b6673cf2" class="cls-6" d="M218.1,176.4c.3,0,.6-.1.8-.3.2-.2.3-.5.3-.8s-.1-.6-.3-.8c-.2-.2-.5-.3-.8-.3s-.6.1-.8.3c-.2.2-.3.5-.3.8s.1.6.3.8c.2.2.5.3.8.3Z"/>
              <path id="m20b6673cf2-108" data-name="m20b6673cf2" class="cls-6" d="M275.8,30.8c.3,0,.6-.1.8-.3.2-.2.3-.5.3-.8s-.1-.6-.3-.8c-.2-.2-.5-.3-.8-.3s-.6.1-.8.3c-.2.2-.3.5-.3.8s.1.6.3.8c.2.2.5.3.8.3Z"/>
              <path id="m20b6673cf2-109" data-name="m20b6673cf2" class="cls-6" d="M275.8,30.8c.3,0,.6-.1.8-.3.2-.2.3-.5.3-.8s-.1-.6-.3-.8c-.2-.2-.5-.3-.8-.3s-.6.1-.8.3c-.2.2-.3.5-.3.8s.1.6.3.8c.2.2.5.3.8.3Z"/>
              <path id="m20b6673cf2-110" data-name="m20b6673cf2" class="cls-6" d="M275.8,30.8c.3,0,.6-.1.8-.3.2-.2.3-.5.3-.8s-.1-.6-.3-.8c-.2-.2-.5-.3-.8-.3s-.6.1-.8.3c-.2.2-.3.5-.3.8s.1.6.3.8c.2.2.5.3.8.3Z"/>
              <path id="m20b6673cf2-111" data-name="m20b6673cf2" class="cls-6" d="M275.8,30.8c.3,0,.6-.1.8-.3.2-.2.3-.5.3-.8s-.1-.6-.3-.8c-.2-.2-.5-.3-.8-.3s-.6.1-.8.3c-.2.2-.3.5-.3.8s.1.6.3.8c.2.2.5.3.8.3Z"/>
              <path id="m20b6673cf2-112" data-name="m20b6673cf2" class="cls-6" d="M65.2,297.6c.3,0,.6-.1.8-.3.2-.2.3-.5.3-.8s-.1-.6-.3-.8c-.2-.2-.5-.3-.8-.3s-.6.1-.8.3c-.2.2-.3.5-.3.8s.1.6.3.8c.2.2.5.3.8.3Z"/>
              <path id="m20b6673cf2-113" data-name="m20b6673cf2" class="cls-6" d="M248.7,132.5c.3,0,.6-.1.8-.3.2-.2.3-.5.3-.8s-.1-.6-.3-.8c-.2-.2-.5-.3-.8-.3s-.6.1-.8.3c-.2.2-.3.5-.3.8s.1.6.3.8c.2.2.5.3.8.3Z"/>
              <path id="m20b6673cf2-114" data-name="m20b6673cf2" class="cls-6" d="M231.4,112.9c.3,0,.6-.1.8-.3.2-.2.3-.5.3-.8s-.1-.6-.3-.8c-.2-.2-.5-.3-.8-.3s-.6.1-.8.3c-.2.2-.3.5-.3.8s.1.6.3.8c.2.2.5.3.8.3Z"/>
              <path id="m20b6673cf2-115" data-name="m20b6673cf2" class="cls-6" d="M231.4,112.9c.3,0,.6-.1.8-.3.2-.2.3-.5.3-.8s-.1-.6-.3-.8c-.2-.2-.5-.3-.8-.3s-.6.1-.8.3c-.2.2-.3.5-.3.8s.1.6.3.8c.2.2.5.3.8.3Z"/>
              <path id="m20b6673cf2-116" data-name="m20b6673cf2" class="cls-6" d="M205,129.6c.3,0,.6-.1.8-.3.2-.2.3-.5.3-.8s-.1-.6-.3-.8c-.2-.2-.5-.3-.8-.3s-.6.1-.8.3c-.2.2-.3.5-.3.8s.1.6.3.8c.2.2.5.3.8.3Z"/>
              <path id="m20b6673cf2-117" data-name="m20b6673cf2" class="cls-6" d="M205,129.6c.3,0,.6-.1.8-.3.2-.2.3-.5.3-.8s-.1-.6-.3-.8c-.2-.2-.5-.3-.8-.3s-.6.1-.8.3c-.2.2-.3.5-.3.8s.1.6.3.8c.2.2.5.3.8.3Z"/>
              <path id="m20b6673cf2-118" data-name="m20b6673cf2" class="cls-6" d="M217,134.7c.3,0,.6-.1.8-.3.2-.2.3-.5.3-.8s-.1-.6-.3-.8c-.2-.2-.5-.3-.8-.3s-.6.1-.8.3c-.2.2-.3.5-.3.8s.1.6.3.8c.2.2.5.3.8.3Z"/>
              <path id="m20b6673cf2-119" data-name="m20b6673cf2" class="cls-6" d="M270.4,127c.3,0,.6-.1.8-.3.2-.2.3-.5.3-.8s-.1-.6-.3-.8c-.2-.2-.5-.3-.8-.3s-.6.1-.8.3c-.2.2-.3.5-.3.8s.1.6.3.8c.2.2.5.3.8.3Z"/>
              <path id="m20b6673cf2-120" data-name="m20b6673cf2" class="cls-6" d="M238.3,99.9c.3,0,.6-.1.8-.3.2-.2.3-.5.3-.8s-.1-.6-.3-.8c-.2-.2-.5-.3-.8-.3s-.6.1-.8.3c-.2.2-.3.5-.3.8s.1.6.3.8c.2.2.5.3.8.3Z"/>
              <path id="m20b6673cf2-121" data-name="m20b6673cf2" class="cls-6" d="M238.3,99.9c.3,0,.6-.1.8-.3.2-.2.3-.5.3-.8s-.1-.6-.3-.8c-.2-.2-.5-.3-.8-.3s-.6.1-.8.3c-.2.2-.3.5-.3.8s.1.6.3.8c.2.2.5.3.8.3Z"/>
              <path id="m20b6673cf2-122" data-name="m20b6673cf2" class="cls-6" d="M226.1,130.3c.3,0,.6-.1.8-.3.2-.2.3-.5.3-.8s-.1-.6-.3-.8c-.2-.2-.5-.3-.8-.3s-.6.1-.8.3c-.2.2-.3.5-.3.8s.1.6.3.8c.2.2.5.3.8.3Z"/>
              <path id="m20b6673cf2-123" data-name="m20b6673cf2" class="cls-6" d="M227.7,103.9c.3,0,.6-.1.8-.3.2-.2.3-.5.3-.8s-.1-.6-.3-.8c-.2-.2-.5-.3-.8-.3s-.6.1-.8.3c-.2.2-.3.5-.3.8s.1.6.3.8c.2.2.5.3.8.3Z"/>
              <path id="m20b6673cf2-124" data-name="m20b6673cf2" class="cls-6" d="M206.3,150.3c.3,0,.6-.1.8-.3.2-.2.3-.5.3-.8s-.1-.6-.3-.8c-.2-.2-.5-.3-.8-.3s-.6.1-.8.3c-.2.2-.3.5-.3.8s.1.6.3.8c.2.2.5.3.8.3Z"/>
              <path id="m20b6673cf2-125" data-name="m20b6673cf2" class="cls-6" d="M206.3,150.3c.3,0,.6-.1.8-.3.2-.2.3-.5.3-.8s-.1-.6-.3-.8c-.2-.2-.5-.3-.8-.3s-.6.1-.8.3c-.2.2-.3.5-.3.8s.1.6.3.8c.2.2.5.3.8.3Z"/>
              <path id="m20b6673cf2-126" data-name="m20b6673cf2" class="cls-6" d="M238.2,81.7c.3,0,.6-.1.8-.3.2-.2.3-.5.3-.8s-.1-.6-.3-.8c-.2-.2-.5-.3-.8-.3s-.6.1-.8.3c-.2.2-.3.5-.3.8s.1.6.3.8c.2.2.5.3.8.3Z"/>
              <path id="m20b6673cf2-127" data-name="m20b6673cf2" class="cls-6" d="M238.2,81.7c.3,0,.6-.1.8-.3.2-.2.3-.5.3-.8s-.1-.6-.3-.8c-.2-.2-.5-.3-.8-.3s-.6.1-.8.3c-.2.2-.3.5-.3.8s.1.6.3.8c.2.2.5.3.8.3Z"/>
              <path id="m20b6673cf2-128" data-name="m20b6673cf2" class="cls-6" d="M238.2,81.7c.3,0,.6-.1.8-.3.2-.2.3-.5.3-.8s-.1-.6-.3-.8c-.2-.2-.5-.3-.8-.3s-.6.1-.8.3c-.2.2-.3.5-.3.8s.1.6.3.8c.2.2.5.3.8.3Z"/>
              <path id="m20b6673cf2-129" data-name="m20b6673cf2" class="cls-6" d="M238.2,81.7c.3,0,.6-.1.8-.3.2-.2.3-.5.3-.8s-.1-.6-.3-.8c-.2-.2-.5-.3-.8-.3s-.6.1-.8.3c-.2.2-.3.5-.3.8s.1.6.3.8c.2.2.5.3.8.3Z"/>
              <path id="m20b6673cf2-130" data-name="m20b6673cf2" class="cls-6" d="M238.2,81.7c.3,0,.6-.1.8-.3.2-.2.3-.5.3-.8s-.1-.6-.3-.8c-.2-.2-.5-.3-.8-.3s-.6.1-.8.3c-.2.2-.3.5-.3.8s.1.6.3.8c.2.2.5.3.8.3Z"/>
              <path id="m20b6673cf2-131" data-name="m20b6673cf2" class="cls-6" d="M238.2,81.7c.3,0,.6-.1.8-.3.2-.2.3-.5.3-.8s-.1-.6-.3-.8c-.2-.2-.5-.3-.8-.3s-.6.1-.8.3c-.2.2-.3.5-.3.8s.1.6.3.8c.2.2.5.3.8.3Z"/>
              <path id="m20b6673cf2-132" data-name="m20b6673cf2" class="cls-6" d="M285,102.9c.3,0,.6-.1.8-.3.2-.2.3-.5.3-.8s-.1-.6-.3-.8c-.2-.2-.5-.3-.8-.3s-.6.1-.8.3c-.2.2-.3.5-.3.8s.1.6.3.8c.2.2.5.3.8.3Z"/>
              <path id="m20b6673cf2-133" data-name="m20b6673cf2" class="cls-6" d="M223.8,123.8c.3,0,.6-.1.8-.3.2-.2.3-.5.3-.8s-.1-.6-.3-.8c-.2-.2-.5-.3-.8-.3s-.6.1-.8.3c-.2.2-.3.5-.3.8s.1.6.3.8c.2.2.5.3.8.3Z"/>
              <path id="m20b6673cf2-134" data-name="m20b6673cf2" class="cls-6" d="M233.3,112.6c.3,0,.6-.1.8-.3.2-.2.3-.5.3-.8s-.1-.6-.3-.8c-.2-.2-.5-.3-.8-.3s-.6.1-.8.3c-.2.2-.3.5-.3.8s.1.6.3.8c.2.2.5.3.8.3Z"/>
              <path id="m20b6673cf2-135" data-name="m20b6673cf2" class="cls-6" d="M256.7,92.3c.3,0,.6-.1.8-.3.2-.2.3-.5.3-.8s-.1-.6-.3-.8c-.2-.2-.5-.3-.8-.3s-.6.1-.8.3c-.2.2-.3.5-.3.8s.1.6.3.8c.2.2.5.3.8.3Z"/>
              <path id="m20b6673cf2-136" data-name="m20b6673cf2" class="cls-6" d="M227.4,125c.3,0,.6-.1.8-.3.2-.2.3-.5.3-.8s-.1-.6-.3-.8c-.2-.2-.5-.3-.8-.3s-.6.1-.8.3c-.2.2-.3.5-.3.8s.1.6.3.8c.2.2.5.3.8.3Z"/>
              <path id="m20b6673cf2-137" data-name="m20b6673cf2" class="cls-6" d="M246.3,128.8c.3,0,.6-.1.8-.3.2-.2.3-.5.3-.8s-.1-.6-.3-.8c-.2-.2-.5-.3-.8-.3s-.6.1-.8.3c-.2.2-.3.5-.3.8s.1.6.3.8c.2.2.5.3.8.3Z"/>
              <path id="m20b6673cf2-138" data-name="m20b6673cf2" class="cls-6" d="M233,85.8c.3,0,.6-.1.8-.3.2-.2.3-.5.3-.8s-.1-.6-.3-.8c-.2-.2-.5-.3-.8-.3s-.6.1-.8.3c-.2.2-.3.5-.3.8s.1.6.3.8c.2.2.5.3.8.3Z"/>
              <path id="m20b6673cf2-139" data-name="m20b6673cf2" class="cls-6" d="M240.8,85.5c.3,0,.6-.1.8-.3.2-.2.3-.5.3-.8s-.1-.6-.3-.8c-.2-.2-.5-.3-.8-.3s-.6.1-.8.3c-.2.2-.3.5-.3.8s.1.6.3.8c.2.2.5.3.8.3Z"/>
              <path id="m20b6673cf2-140" data-name="m20b6673cf2" class="cls-6" d="M240.8,85.5c.3,0,.6-.1.8-.3.2-.2.3-.5.3-.8s-.1-.6-.3-.8c-.2-.2-.5-.3-.8-.3s-.6.1-.8.3c-.2.2-.3.5-.3.8s.1.6.3.8c.2.2.5.3.8.3Z"/>
              <path id="m20b6673cf2-141" data-name="m20b6673cf2" class="cls-6" d="M225.4,130.2c.3,0,.6-.1.8-.3.2-.2.3-.5.3-.8s-.1-.6-.3-.8c-.2-.2-.5-.3-.8-.3s-.6.1-.8.3c-.2.2-.3.5-.3.8s.1.6.3.8c.2.2.5.3.8.3Z"/>
              <path id="m20b6673cf2-142" data-name="m20b6673cf2" class="cls-6" d="M195.9,141.4c.3,0,.6-.1.8-.3.2-.2.3-.5.3-.8s-.1-.6-.3-.8c-.2-.2-.5-.3-.8-.3s-.6.1-.8.3c-.2.2-.3.5-.3.8s.1.6.3.8c.2.2.5.3.8.3Z"/>
              <path id="m20b6673cf2-143" data-name="m20b6673cf2" class="cls-6" d="M200.4,124c.3,0,.6-.1.8-.3.2-.2.3-.5.3-.8s-.1-.6-.3-.8c-.2-.2-.5-.3-.8-.3s-.6.1-.8.3c-.2.2-.3.5-.3.8s.1.6.3.8c.2.2.5.3.8.3Z"/>
              <path id="m20b6673cf2-144" data-name="m20b6673cf2" class="cls-6" d="M200.6,142.6c.3,0,.6-.1.8-.3.2-.2.3-.5.3-.8s-.1-.6-.3-.8c-.2-.2-.5-.3-.8-.3s-.6.1-.8.3c-.2.2-.3.5-.3.8s.1.6.3.8c.2.2.5.3.8.3Z"/>
              <path id="m20b6673cf2-145" data-name="m20b6673cf2" class="cls-6" d="M260.5,107.7c.3,0,.6-.1.8-.3.2-.2.3-.5.3-.8s-.1-.6-.3-.8c-.2-.2-.5-.3-.8-.3s-.6.1-.8.3c-.2.2-.3.5-.3.8s.1.6.3.8c.2.2.5.3.8.3Z"/>
              <path id="m20b6673cf2-146" data-name="m20b6673cf2" class="cls-6" d="M242.4,93.8c.3,0,.6-.1.8-.3.2-.2.3-.5.3-.8s-.1-.6-.3-.8c-.2-.2-.5-.3-.8-.3s-.6.1-.8.3c-.2.2-.3.5-.3.8s.1.6.3.8c.2.2.5.3.8.3Z"/>
              <path id="m20b6673cf2-147" data-name="m20b6673cf2" class="cls-6" d="M242.4,93.8c.3,0,.6-.1.8-.3.2-.2.3-.5.3-.8s-.1-.6-.3-.8c-.2-.2-.5-.3-.8-.3s-.6.1-.8.3c-.2.2-.3.5-.3.8s.1.6.3.8c.2.2.5.3.8.3Z"/>
              <path id="m20b6673cf2-148" data-name="m20b6673cf2" class="cls-6" d="M214.2,140.5c.3,0,.6-.1.8-.3.2-.2.3-.5.3-.8s-.1-.6-.3-.8c-.2-.2-.5-.3-.8-.3s-.6.1-.8.3c-.2.2-.3.5-.3.8s.1.6.3.8c.2.2.5.3.8.3Z"/>
              <path id="m20b6673cf2-149" data-name="m20b6673cf2" class="cls-6" d="M224.8,122.5c.3,0,.6-.1.8-.3.2-.2.3-.5.3-.8s-.1-.6-.3-.8c-.2-.2-.5-.3-.8-.3s-.6.1-.8.3c-.2.2-.3.5-.3.8s.1.6.3.8c.2.2.5.3.8.3Z"/>
              <path id="m20b6673cf2-150" data-name="m20b6673cf2" class="cls-6" d="M248.6,116.9c.3,0,.6-.1.8-.3.2-.2.3-.5.3-.8s-.1-.6-.3-.8c-.2-.2-.5-.3-.8-.3s-.6.1-.8.3c-.2.2-.3.5-.3.8s.1.6.3.8c.2.2.5.3.8.3Z"/>
              <path id="m20b6673cf2-151" data-name="m20b6673cf2" class="cls-6" d="M238.7,132.3c.3,0,.6-.1.8-.3.2-.2.3-.5.3-.8s-.1-.6-.3-.8c-.2-.2-.5-.3-.8-.3s-.6.1-.8.3c-.2.2-.3.5-.3.8s.1.6.3.8c.2.2.5.3.8.3Z"/>
              <path id="m20b6673cf2-152" data-name="m20b6673cf2" class="cls-6" d="M229.1,92.1c.3,0,.6-.1.8-.3.2-.2.3-.5.3-.8s-.1-.6-.3-.8c-.2-.2-.5-.3-.8-.3s-.6.1-.8.3c-.2.2-.3.5-.3.8s.1.6.3.8c.2.2.5.3.8.3Z"/>
              <path id="m20b6673cf2-153" data-name="m20b6673cf2" class="cls-6" d="M114.7,180.6c.3,0,.6-.1.8-.3.2-.2.3-.5.3-.8s-.1-.6-.3-.8c-.2-.2-.5-.3-.8-.3s-.6.1-.8.3c-.2.2-.3.5-.3.8s.1.6.3.8c.2.2.5.3.8.3Z"/>
              <path id="m20b6673cf2-154" data-name="m20b6673cf2" class="cls-6" d="M222.1,112.4c.3,0,.6-.1.8-.3.2-.2.3-.5.3-.8s-.1-.6-.3-.8c-.2-.2-.5-.3-.8-.3s-.6.1-.8.3c-.2.2-.3.5-.3.8s.1.6.3.8c.2.2.5.3.8.3Z"/>
              <path id="m20b6673cf2-155" data-name="m20b6673cf2" class="cls-6" d="M241.2,119.9c.3,0,.6-.1.8-.3.2-.2.3-.5.3-.8s-.1-.6-.3-.8c-.2-.2-.5-.3-.8-.3s-.6.1-.8.3c-.2.2-.3.5-.3.8s.1.6.3.8c.2.2.5.3.8.3Z"/>
              <path id="m20b6673cf2-156" data-name="m20b6673cf2" class="cls-6" d="M246.8,115.9c.3,0,.6-.1.8-.3.2-.2.3-.5.3-.8s-.1-.6-.3-.8c-.2-.2-.5-.3-.8-.3s-.6.1-.8.3c-.2.2-.3.5-.3.8s.1.6.3.8c.2.2.5.3.8.3Z"/>
              <path id="m20b6673cf2-157" data-name="m20b6673cf2" class="cls-6" d="M222.3,139.1c.3,0,.6-.1.8-.3.2-.2.3-.5.3-.8s-.1-.6-.3-.8c-.2-.2-.5-.3-.8-.3s-.6.1-.8.3c-.2.2-.3.5-.3.8s.1.6.3.8c.2.2.5.3.8.3Z"/>
              <path id="m20b6673cf2-158" data-name="m20b6673cf2" class="cls-6" d="M251.8,100.1c.3,0,.6-.1.8-.3.2-.2.3-.5.3-.8s-.1-.6-.3-.8c-.2-.2-.5-.3-.8-.3s-.6.1-.8.3c-.2.2-.3.5-.3.8s.1.6.3.8c.2.2.5.3.8.3Z"/>
              <path id="m20b6673cf2-159" data-name="m20b6673cf2" class="cls-6" d="M248.3,135c.3,0,.6-.1.8-.3.2-.2.3-.5.3-.8s-.1-.6-.3-.8c-.2-.2-.5-.3-.8-.3s-.6.1-.8.3c-.2.2-.3.5-.3.8s.1.6.3.8c.2.2.5.3.8.3Z"/>
              <path id="m20b6673cf2-160" data-name="m20b6673cf2" class="cls-6" d="M232.5,132.3c.3,0,.6-.1.8-.3.2-.2.3-.5.3-.8s-.1-.6-.3-.8c-.2-.2-.5-.3-.8-.3s-.6.1-.8.3c-.2.2-.3.5-.3.8s.1.6.3.8c.2.2.5.3.8.3Z"/>
              <path id="m20b6673cf2-161" data-name="m20b6673cf2" class="cls-6" d="M218.5,129.9c.3,0,.6-.1.8-.3.2-.2.3-.5.3-.8s-.1-.6-.3-.8c-.2-.2-.5-.3-.8-.3s-.6.1-.8.3c-.2.2-.3.5-.3.8s.1.6.3.8c.2.2.5.3.8.3Z"/>
              <path id="m20b6673cf2-162" data-name="m20b6673cf2" class="cls-6" d="M232.4,136.4c.3,0,.6-.1.8-.3.2-.2.3-.5.3-.8s-.1-.6-.3-.8c-.2-.2-.5-.3-.8-.3s-.6.1-.8.3c-.2.2-.3.5-.3.8s.1.6.3.8c.2.2.5.3.8.3Z"/>
              <path id="m20b6673cf2-163" data-name="m20b6673cf2" class="cls-6" d="M225,133.2c.3,0,.6-.1.8-.3.2-.2.3-.5.3-.8s-.1-.6-.3-.8c-.2-.2-.5-.3-.8-.3s-.6.1-.8.3c-.2.2-.3.5-.3.8s.1.6.3.8c.2.2.5.3.8.3Z"/>
              <path id="m20b6673cf2-164" data-name="m20b6673cf2" class="cls-6" d="M227.7,134.4c.3,0,.6-.1.8-.3.2-.2.3-.5.3-.8s-.1-.6-.3-.8c-.2-.2-.5-.3-.8-.3s-.6.1-.8.3c-.2.2-.3.5-.3.8s.1.6.3.8c.2.2.5.3.8.3Z"/>
              <path id="m20b6673cf2-165" data-name="m20b6673cf2" class="cls-6" d="M243.5,126.9c.3,0,.6-.1.8-.3.2-.2.3-.5.3-.8s-.1-.6-.3-.8c-.2-.2-.5-.3-.8-.3s-.6.1-.8.3c-.2.2-.3.5-.3.8s.1.6.3.8c.2.2.5.3.8.3Z"/>
              <path id="m20b6673cf2-166" data-name="m20b6673cf2" class="cls-6" d="M210.9,124.1c.3,0,.6-.1.8-.3.2-.2.3-.5.3-.8s-.1-.6-.3-.8c-.2-.2-.5-.3-.8-.3s-.6.1-.8.3c-.2.2-.3.5-.3.8s.1.6.3.8c.2.2.5.3.8.3Z"/>
              <path id="m20b6673cf2-167" data-name="m20b6673cf2" class="cls-6" d="M222.2,121.2c.3,0,.6-.1.8-.3.2-.2.3-.5.3-.8s-.1-.6-.3-.8c-.2-.2-.5-.3-.8-.3s-.6.1-.8.3c-.2.2-.3.5-.3.8s.1.6.3.8c.2.2.5.3.8.3Z"/>
              <path id="m20b6673cf2-168" data-name="m20b6673cf2" class="cls-6" d="M217.1,130.7c.3,0,.6-.1.8-.3.2-.2.3-.5.3-.8s-.1-.6-.3-.8c-.2-.2-.5-.3-.8-.3s-.6.1-.8.3c-.2.2-.3.5-.3.8s.1.6.3.8c.2.2.5.3.8.3Z"/>
              <path id="m20b6673cf2-169" data-name="m20b6673cf2" class="cls-6" d="M213.2,136.7c.3,0,.6-.1.8-.3.2-.2.3-.5.3-.8s-.1-.6-.3-.8c-.2-.2-.5-.3-.8-.3s-.6.1-.8.3c-.2.2-.3.5-.3.8s.1.6.3.8c.2.2.5.3.8.3Z"/>
              <path id="m20b6673cf2-170" data-name="m20b6673cf2" class="cls-6" d="M213.2,136.7c.3,0,.6-.1.8-.3.2-.2.3-.5.3-.8s-.1-.6-.3-.8c-.2-.2-.5-.3-.8-.3s-.6.1-.8.3c-.2.2-.3.5-.3.8s.1.6.3.8c.2.2.5.3.8.3Z"/>
              <path id="m20b6673cf2-171" data-name="m20b6673cf2" class="cls-6" d="M236,128.3c.3,0,.6-.1.8-.3.2-.2.3-.5.3-.8s-.1-.6-.3-.8c-.2-.2-.5-.3-.8-.3s-.6.1-.8.3c-.2.2-.3.5-.3.8s.1.6.3.8c.2.2.5.3.8.3Z"/>
              <path id="m20b6673cf2-172" data-name="m20b6673cf2" class="cls-6" d="M225.1,125.3c.3,0,.6-.1.8-.3.2-.2.3-.5.3-.8s-.1-.6-.3-.8c-.2-.2-.5-.3-.8-.3s-.6.1-.8.3c-.2.2-.3.5-.3.8s.1.6.3.8c.2.2.5.3.8.3Z"/>
              <path id="m20b6673cf2-173" data-name="m20b6673cf2" class="cls-6" d="M241.5,122.2c.3,0,.6-.1.8-.3.2-.2.3-.5.3-.8s-.1-.6-.3-.8c-.2-.2-.5-.3-.8-.3s-.6.1-.8.3c-.2.2-.3.5-.3.8s.1.6.3.8c.2.2.5.3.8.3Z"/>
              <path id="m20b6673cf2-174" data-name="m20b6673cf2" class="cls-6" d="M218.5,133c.3,0,.6-.1.8-.3.2-.2.3-.5.3-.8s-.1-.6-.3-.8c-.2-.2-.5-.3-.8-.3s-.6.1-.8.3c-.2.2-.3.5-.3.8s.1.6.3.8c.2.2.5.3.8.3Z"/>
              <path id="m20b6673cf2-175" data-name="m20b6673cf2" class="cls-6" d="M243.4,132.2c.3,0,.6-.1.8-.3.2-.2.3-.5.3-.8s-.1-.6-.3-.8c-.2-.2-.5-.3-.8-.3s-.6.1-.8.3c-.2.2-.3.5-.3.8s.1.6.3.8c.2.2.5.3.8.3Z"/>
              <path id="m20b6673cf2-176" data-name="m20b6673cf2" class="cls-6" d="M252,94.2c.3,0,.6-.1.8-.3.2-.2.3-.5.3-.8s-.1-.6-.3-.8c-.2-.2-.5-.3-.8-.3s-.6.1-.8.3c-.2.2-.3.5-.3.8s.1.6.3.8c.2.2.5.3.8.3Z"/>
              <path id="m20b6673cf2-177" data-name="m20b6673cf2" class="cls-6" d="M257.9,99.2c.3,0,.6-.1.8-.3.2-.2.3-.5.3-.8s-.1-.6-.3-.8c-.2-.2-.5-.3-.8-.3s-.6.1-.8.3c-.2.2-.3.5-.3.8s.1.6.3.8c.2.2.5.3.8.3Z"/>
              <path id="m20b6673cf2-178" data-name="m20b6673cf2" class="cls-6" d="M264.1,86.3c.3,0,.6-.1.8-.3.2-.2.3-.5.3-.8s-.1-.6-.3-.8c-.2-.2-.5-.3-.8-.3s-.6.1-.8.3c-.2.2-.3.5-.3.8s.1.6.3.8c.2.2.5.3.8.3Z"/>
              <path id="m20b6673cf2-179" data-name="m20b6673cf2" class="cls-6" d="M200.4,146.4c.3,0,.6-.1.8-.3.2-.2.3-.5.3-.8s-.1-.6-.3-.8c-.2-.2-.5-.3-.8-.3s-.6.1-.8.3c-.2.2-.3.5-.3.8s.1.6.3.8c.2.2.5.3.8.3Z"/>
              <path id="m20b6673cf2-180" data-name="m20b6673cf2" class="cls-6" d="M201.6,145.3c.3,0,.6-.1.8-.3.2-.2.3-.5.3-.8s-.1-.6-.3-.8c-.2-.2-.5-.3-.8-.3s-.6.1-.8.3c-.2.2-.3.5-.3.8s.1.6.3.8c.2.2.5.3.8.3Z"/>
              <path id="m20b6673cf2-181" data-name="m20b6673cf2" class="cls-6" d="M237.9,133.3c.3,0,.6-.1.8-.3.2-.2.3-.5.3-.8s-.1-.6-.3-.8c-.2-.2-.5-.3-.8-.3s-.6.1-.8.3c-.2.2-.3.5-.3.8s.1.6.3.8c.2.2.5.3.8.3Z"/>
              <path id="m20b6673cf2-182" data-name="m20b6673cf2" class="cls-6" d="M263.5,121.2c.3,0,.6-.1.8-.3.2-.2.3-.5.3-.8s-.1-.6-.3-.8c-.2-.2-.5-.3-.8-.3s-.6.1-.8.3c-.2.2-.3.5-.3.8s.1.6.3.8c.2.2.5.3.8.3Z"/>
              <path id="m20b6673cf2-183" data-name="m20b6673cf2" class="cls-6" d="M258.1,89.7c.3,0,.6-.1.8-.3.2-.2.3-.5.3-.8s-.1-.6-.3-.8c-.2-.2-.5-.3-.8-.3s-.6.1-.8.3c-.2.2-.3.5-.3.8s.1.6.3.8c.2.2.5.3.8.3Z"/>
              <path id="m20b6673cf2-184" data-name="m20b6673cf2" class="cls-6" d="M244.2,114.2c.3,0,.6-.1.8-.3.2-.2.3-.5.3-.8s-.1-.6-.3-.8c-.2-.2-.5-.3-.8-.3s-.6.1-.8.3c-.2.2-.3.5-.3.8s.1.6.3.8c.2.2.5.3.8.3Z"/>
              <path id="m20b6673cf2-185" data-name="m20b6673cf2" class="cls-6" d="M233.8,196c.3,0,.6-.1.8-.3.2-.2.3-.5.3-.8s-.1-.6-.3-.8c-.2-.2-.5-.3-.8-.3s-.6.1-.8.3c-.2.2-.3.5-.3.8s.1.6.3.8c.2.2.5.3.8.3Z"/>
              <path id="m20b6673cf2-186" data-name="m20b6673cf2" class="cls-6" d="M252.5,168c.3,0,.6-.1.8-.3.2-.2.3-.5.3-.8s-.1-.6-.3-.8c-.2-.2-.5-.3-.8-.3s-.6.1-.8.3c-.2.2-.3.5-.3.8s.1.6.3.8c.2.2.5.3.8.3Z"/>
              <path id="m20b6673cf2-187" data-name="m20b6673cf2" class="cls-6" d="M210,176.3c.3,0,.6-.1.8-.3.2-.2.3-.5.3-.8s-.1-.6-.3-.8c-.2-.2-.5-.3-.8-.3s-.6.1-.8.3c-.2.2-.3.5-.3.8s.1.6.3.8c.2.2.5.3.8.3Z"/>
              <path id="m20b6673cf2-188" data-name="m20b6673cf2" class="cls-6" d="M201.5,181.4c.3,0,.6-.1.8-.3.2-.2.3-.5.3-.8s-.1-.6-.3-.8c-.2-.2-.5-.3-.8-.3s-.6.1-.8.3c-.2.2-.3.5-.3.8s.1.6.3.8c.2.2.5.3.8.3Z"/>
              <path id="m20b6673cf2-189" data-name="m20b6673cf2" class="cls-6" d="M261.3,116.4c.3,0,.6-.1.8-.3.2-.2.3-.5.3-.8s-.1-.6-.3-.8c-.2-.2-.5-.3-.8-.3s-.6.1-.8.3c-.2.2-.3.5-.3.8s.1.6.3.8c.2.2.5.3.8.3Z"/>
              <path id="m20b6673cf2-190" data-name="m20b6673cf2" class="cls-6" d="M261.3,116.4c.3,0,.6-.1.8-.3.2-.2.3-.5.3-.8s-.1-.6-.3-.8c-.2-.2-.5-.3-.8-.3s-.6.1-.8.3c-.2.2-.3.5-.3.8s.1.6.3.8c.2.2.5.3.8.3Z"/>
              <path id="m20b6673cf2-191" data-name="m20b6673cf2" class="cls-6" d="M261.3,116.4c.3,0,.6-.1.8-.3.2-.2.3-.5.3-.8s-.1-.6-.3-.8c-.2-.2-.5-.3-.8-.3s-.6.1-.8.3c-.2.2-.3.5-.3.8s.1.6.3.8c.2.2.5.3.8.3Z"/>
              <path id="m20b6673cf2-192" data-name="m20b6673cf2" class="cls-6" d="M261.3,116.4c.3,0,.6-.1.8-.3.2-.2.3-.5.3-.8s-.1-.6-.3-.8c-.2-.2-.5-.3-.8-.3s-.6.1-.8.3c-.2.2-.3.5-.3.8s.1.6.3.8c.2.2.5.3.8.3Z"/>
              <path id="m20b6673cf2-193" data-name="m20b6673cf2" class="cls-6" d="M261.3,116.4c.3,0,.6-.1.8-.3.2-.2.3-.5.3-.8s-.1-.6-.3-.8c-.2-.2-.5-.3-.8-.3s-.6.1-.8.3c-.2.2-.3.5-.3.8s.1.6.3.8c.2.2.5.3.8.3Z"/>
              <path id="m20b6673cf2-194" data-name="m20b6673cf2" class="cls-6" d="M261.3,116.4c.3,0,.6-.1.8-.3.2-.2.3-.5.3-.8s-.1-.6-.3-.8c-.2-.2-.5-.3-.8-.3s-.6.1-.8.3c-.2.2-.3.5-.3.8s.1.6.3.8c.2.2.5.3.8.3Z"/>
              <path id="m20b6673cf2-195" data-name="m20b6673cf2" class="cls-6" d="M261.3,116.4c.3,0,.6-.1.8-.3.2-.2.3-.5.3-.8s-.1-.6-.3-.8c-.2-.2-.5-.3-.8-.3s-.6.1-.8.3c-.2.2-.3.5-.3.8s.1.6.3.8c.2.2.5.3.8.3Z"/>
              <path id="m20b6673cf2-196" data-name="m20b6673cf2" class="cls-6" d="M295.9,25.7c.3,0,.6-.1.8-.3.2-.2.3-.5.3-.8s-.1-.6-.3-.8c-.2-.2-.5-.3-.8-.3s-.6.1-.8.3c-.2.2-.3.5-.3.8s.1.6.3.8c.2.2.5.3.8.3Z"/>
              <path id="m20b6673cf2-197" data-name="m20b6673cf2" class="cls-6" d="M224.1,165.8c.3,0,.6-.1.8-.3.2-.2.3-.5.3-.8s-.1-.6-.3-.8c-.2-.2-.5-.3-.8-.3s-.6.1-.8.3c-.2.2-.3.5-.3.8s.1.6.3.8c.2.2.5.3.8.3Z"/>
              <path id="m20b6673cf2-198" data-name="m20b6673cf2" class="cls-6" d="M244.7,128.7c.3,0,.6-.1.8-.3.2-.2.3-.5.3-.8s-.1-.6-.3-.8c-.2-.2-.5-.3-.8-.3s-.6.1-.8.3c-.2.2-.3.5-.3.8s.1.6.3.8c.2.2.5.3.8.3Z"/>
              <path id="m20b6673cf2-199" data-name="m20b6673cf2" class="cls-6" d="M230.7,132.4c.3,0,.6-.1.8-.3.2-.2.3-.5.3-.8s-.1-.6-.3-.8c-.2-.2-.5-.3-.8-.3s-.6.1-.8.3c-.2.2-.3.5-.3.8s.1.6.3.8c.2.2.5.3.8.3Z"/>
              <path id="m20b6673cf2-200" data-name="m20b6673cf2" class="cls-6" d="M221.8,126.2c.3,0,.6-.1.8-.3.2-.2.3-.5.3-.8s-.1-.6-.3-.8c-.2-.2-.5-.3-.8-.3s-.6.1-.8.3c-.2.2-.3.5-.3.8s.1.6.3.8c.2.2.5.3.8.3Z"/>
              <path id="m20b6673cf2-201" data-name="m20b6673cf2" class="cls-6" d="M254.5,95.7c.3,0,.6-.1.8-.3.2-.2.3-.5.3-.8s-.1-.6-.3-.8c-.2-.2-.5-.3-.8-.3s-.6.1-.8.3c-.2.2-.3.5-.3.8s.1.6.3.8c.2.2.5.3.8.3Z"/>
              <path id="m20b6673cf2-202" data-name="m20b6673cf2" class="cls-6" d="M217.6,126.5c.3,0,.6-.1.8-.3.2-.2.3-.5.3-.8s-.1-.6-.3-.8c-.2-.2-.5-.3-.8-.3s-.6.1-.8.3c-.2.2-.3.5-.3.8s.1.6.3.8c.2.2.5.3.8.3Z"/>
              <path id="m20b6673cf2-203" data-name="m20b6673cf2" class="cls-6" d="M215.2,129c.3,0,.6-.1.8-.3.2-.2.3-.5.3-.8s-.1-.6-.3-.8c-.2-.2-.5-.3-.8-.3s-.6.1-.8.3c-.2.2-.3.5-.3.8s.1.6.3.8c.2.2.5.3.8.3Z"/>
              <path id="m20b6673cf2-204" data-name="m20b6673cf2" class="cls-6" d="M226.2,94.2c.3,0,.6-.1.8-.3.2-.2.3-.5.3-.8s-.1-.6-.3-.8c-.2-.2-.5-.3-.8-.3s-.6.1-.8.3c-.2.2-.3.5-.3.8s.1.6.3.8c.2.2.5.3.8.3Z"/>
              <path id="m20b6673cf2-205" data-name="m20b6673cf2" class="cls-6" d="M226.2,94.2c.3,0,.6-.1.8-.3.2-.2.3-.5.3-.8s-.1-.6-.3-.8c-.2-.2-.5-.3-.8-.3s-.6.1-.8.3c-.2.2-.3.5-.3.8s.1.6.3.8c.2.2.5.3.8.3Z"/>
              <path id="m20b6673cf2-206" data-name="m20b6673cf2" class="cls-6" d="M253,117.2c.3,0,.6-.1.8-.3.2-.2.3-.5.3-.8s-.1-.6-.3-.8c-.2-.2-.5-.3-.8-.3s-.6.1-.8.3c-.2.2-.3.5-.3.8s.1.6.3.8c.2.2.5.3.8.3Z"/>
              <path id="m20b6673cf2-207" data-name="m20b6673cf2" class="cls-6" d="M253,117.2c.3,0,.6-.1.8-.3.2-.2.3-.5.3-.8s-.1-.6-.3-.8c-.2-.2-.5-.3-.8-.3s-.6.1-.8.3c-.2.2-.3.5-.3.8s.1.6.3.8c.2.2.5.3.8.3Z"/>
              <path id="m20b6673cf2-208" data-name="m20b6673cf2" class="cls-6" d="M263.4,89.2c.3,0,.6-.1.8-.3.2-.2.3-.5.3-.8s-.1-.6-.3-.8c-.2-.2-.5-.3-.8-.3s-.6.1-.8.3c-.2.2-.3.5-.3.8s.1.6.3.8c.2.2.5.3.8.3Z"/>
              <path id="m20b6673cf2-209" data-name="m20b6673cf2" class="cls-6" d="M212.6,139.9c.3,0,.6-.1.8-.3.2-.2.3-.5.3-.8s-.1-.6-.3-.8c-.2-.2-.5-.3-.8-.3s-.6.1-.8.3c-.2.2-.3.5-.3.8s.1.6.3.8c.2.2.5.3.8.3Z"/>
              <path id="m20b6673cf2-210" data-name="m20b6673cf2" class="cls-6" d="M212.6,139.9c.3,0,.6-.1.8-.3.2-.2.3-.5.3-.8s-.1-.6-.3-.8c-.2-.2-.5-.3-.8-.3s-.6.1-.8.3c-.2.2-.3.5-.3.8s.1.6.3.8c.2.2.5.3.8.3Z"/>
              <path id="m20b6673cf2-211" data-name="m20b6673cf2" class="cls-6" d="M265.4,59.6c.3,0,.6-.1.8-.3.2-.2.3-.5.3-.8s-.1-.6-.3-.8c-.2-.2-.5-.3-.8-.3s-.6.1-.8.3c-.2.2-.3.5-.3.8s.1.6.3.8c.2.2.5.3.8.3Z"/>
              <path id="m20b6673cf2-212" data-name="m20b6673cf2" class="cls-6" d="M274.6,95.1c.3,0,.6-.1.8-.3.2-.2.3-.5.3-.8s-.1-.6-.3-.8c-.2-.2-.5-.3-.8-.3s-.6.1-.8.3c-.2.2-.3.5-.3.8s.1.6.3.8c.2.2.5.3.8.3Z"/>
              <path id="m20b6673cf2-213" data-name="m20b6673cf2" class="cls-6" d="M274.6,95.1c.3,0,.6-.1.8-.3.2-.2.3-.5.3-.8s-.1-.6-.3-.8c-.2-.2-.5-.3-.8-.3s-.6.1-.8.3c-.2.2-.3.5-.3.8s.1.6.3.8c.2.2.5.3.8.3Z"/>
              <path id="m20b6673cf2-214" data-name="m20b6673cf2" class="cls-6" d="M274.6,95.1c.3,0,.6-.1.8-.3.2-.2.3-.5.3-.8s-.1-.6-.3-.8c-.2-.2-.5-.3-.8-.3s-.6.1-.8.3c-.2.2-.3.5-.3.8s.1.6.3.8c.2.2.5.3.8.3Z"/>
              <path id="m20b6673cf2-215" data-name="m20b6673cf2" class="cls-6" d="M236.8,107.9c.3,0,.6-.1.8-.3.2-.2.3-.5.3-.8s-.1-.6-.3-.8c-.2-.2-.5-.3-.8-.3s-.6.1-.8.3c-.2.2-.3.5-.3.8s.1.6.3.8c.2.2.5.3.8.3Z"/>
              <path id="m20b6673cf2-216" data-name="m20b6673cf2" class="cls-6" d="M219.2,102.1c.3,0,.6-.1.8-.3.2-.2.3-.5.3-.8s-.1-.6-.3-.8c-.2-.2-.5-.3-.8-.3s-.6.1-.8.3c-.2.2-.3.5-.3.8s.1.6.3.8c.2.2.5.3.8.3Z"/>
              <path id="m20b6673cf2-217" data-name="m20b6673cf2" class="cls-6" d="M245.7,111.7c.3,0,.6-.1.8-.3.2-.2.3-.5.3-.8s-.1-.6-.3-.8c-.2-.2-.5-.3-.8-.3s-.6.1-.8.3c-.2.2-.3.5-.3.8s.1.6.3.8c.2.2.5.3.8.3Z"/>
              <path id="m20b6673cf2-218" data-name="m20b6673cf2" class="cls-6" d="M245.7,111.7c.3,0,.6-.1.8-.3.2-.2.3-.5.3-.8s-.1-.6-.3-.8c-.2-.2-.5-.3-.8-.3s-.6.1-.8.3c-.2.2-.3.5-.3.8s.1.6.3.8c.2.2.5.3.8.3Z"/>
              <path id="m20b6673cf2-219" data-name="m20b6673cf2" class="cls-6" d="M235.7,129.1c.3,0,.6-.1.8-.3.2-.2.3-.5.3-.8s-.1-.6-.3-.8c-.2-.2-.5-.3-.8-.3s-.6.1-.8.3c-.2.2-.3.5-.3.8s.1.6.3.8c.2.2.5.3.8.3Z"/>
              <path id="m20b6673cf2-220" data-name="m20b6673cf2" class="cls-6" d="M226.9,129.7c.3,0,.6-.1.8-.3.2-.2.3-.5.3-.8s-.1-.6-.3-.8c-.2-.2-.5-.3-.8-.3s-.6.1-.8.3c-.2.2-.3.5-.3.8s.1.6.3.8c.2.2.5.3.8.3Z"/>
              <path id="m20b6673cf2-221" data-name="m20b6673cf2" class="cls-6" d="M267.5,108.7c.3,0,.6-.1.8-.3.2-.2.3-.5.3-.8s-.1-.6-.3-.8c-.2-.2-.5-.3-.8-.3s-.6.1-.8.3c-.2.2-.3.5-.3.8s.1.6.3.8c.2.2.5.3.8.3Z"/>
              <path id="m20b6673cf2-222" data-name="m20b6673cf2" class="cls-6" d="M274.6,86c.3,0,.6-.1.8-.3.2-.2.3-.5.3-.8s-.1-.6-.3-.8c-.2-.2-.5-.3-.8-.3s-.6.1-.8.3c-.2.2-.3.5-.3.8s.1.6.3.8c.2.2.5.3.8.3Z"/>
              <path id="m20b6673cf2-223" data-name="m20b6673cf2" class="cls-6" d="M274.6,86c.3,0,.6-.1.8-.3.2-.2.3-.5.3-.8s-.1-.6-.3-.8c-.2-.2-.5-.3-.8-.3s-.6.1-.8.3c-.2.2-.3.5-.3.8s.1.6.3.8c.2.2.5.3.8.3Z"/>
              <path id="m20b6673cf2-224" data-name="m20b6673cf2" class="cls-6" d="M288.2,102.1c.3,0,.6-.1.8-.3.2-.2.3-.5.3-.8s-.1-.6-.3-.8c-.2-.2-.5-.3-.8-.3s-.6.1-.8.3c-.2.2-.3.5-.3.8s.1.6.3.8c.2.2.5.3.8.3Z"/>
              <path id="m20b6673cf2-225" data-name="m20b6673cf2" class="cls-6" d="M182,184.9c.3,0,.6-.1.8-.3.2-.2.3-.5.3-.8s-.1-.6-.3-.8c-.2-.2-.5-.3-.8-.3s-.6.1-.8.3c-.2.2-.3.5-.3.8s.1.6.3.8c.2.2.5.3.8.3Z"/>
              <path id="m20b6673cf2-226" data-name="m20b6673cf2" class="cls-6" d="M188.8,192.6c.3,0,.6-.1.8-.3.2-.2.3-.5.3-.8s-.1-.6-.3-.8c-.2-.2-.5-.3-.8-.3s-.6.1-.8.3c-.2.2-.3.5-.3.8s.1.6.3.8c.2.2.5.3.8.3Z"/>
              <path id="m20b6673cf2-227" data-name="m20b6673cf2" class="cls-6" d="M240,118.2c.3,0,.6-.1.8-.3.2-.2.3-.5.3-.8s-.1-.6-.3-.8c-.2-.2-.5-.3-.8-.3s-.6.1-.8.3c-.2.2-.3.5-.3.8s.1.6.3.8c.2.2.5.3.8.3Z"/>
              <path id="m20b6673cf2-228" data-name="m20b6673cf2" class="cls-6" d="M226.6,111.8c.3,0,.6-.1.8-.3.2-.2.3-.5.3-.8s-.1-.6-.3-.8c-.2-.2-.5-.3-.8-.3s-.6.1-.8.3c-.2.2-.3.5-.3.8s.1.6.3.8c.2.2.5.3.8.3Z"/>
              <path id="m20b6673cf2-229" data-name="m20b6673cf2" class="cls-6" d="M219.4,132.2c.3,0,.6-.1.8-.3.2-.2.3-.5.3-.8s-.1-.6-.3-.8c-.2-.2-.5-.3-.8-.3s-.6.1-.8.3c-.2.2-.3.5-.3.8s.1.6.3.8c.2.2.5.3.8.3Z"/>
              <path id="m20b6673cf2-230" data-name="m20b6673cf2" class="cls-6" d="M219.4,132.2c.3,0,.6-.1.8-.3.2-.2.3-.5.3-.8s-.1-.6-.3-.8c-.2-.2-.5-.3-.8-.3s-.6.1-.8.3c-.2.2-.3.5-.3.8s.1.6.3.8c.2.2.5.3.8.3Z"/>
              <path id="m20b6673cf2-231" data-name="m20b6673cf2" class="cls-6" d="M224.8,122.5c.3,0,.6-.1.8-.3.2-.2.3-.5.3-.8s-.1-.6-.3-.8c-.2-.2-.5-.3-.8-.3s-.6.1-.8.3c-.2.2-.3.5-.3.8s.1.6.3.8c.2.2.5.3.8.3Z"/>
              <path id="m20b6673cf2-232" data-name="m20b6673cf2" class="cls-6" d="M199.2,139.6c.3,0,.6-.1.8-.3.2-.2.3-.5.3-.8s-.1-.6-.3-.8c-.2-.2-.5-.3-.8-.3s-.6.1-.8.3c-.2.2-.3.5-.3.8s.1.6.3.8c.2.2.5.3.8.3Z"/>
              <path id="m20b6673cf2-233" data-name="m20b6673cf2" class="cls-6" d="M224.8,122.5c.3,0,.6-.1.8-.3.2-.2.3-.5.3-.8s-.1-.6-.3-.8c-.2-.2-.5-.3-.8-.3s-.6.1-.8.3c-.2.2-.3.5-.3.8s.1.6.3.8c.2.2.5.3.8.3Z"/>
              <path id="m20b6673cf2-234" data-name="m20b6673cf2" class="cls-6" d="M232.8,131.3c.3,0,.6-.1.8-.3.2-.2.3-.5.3-.8s-.1-.6-.3-.8c-.2-.2-.5-.3-.8-.3s-.6.1-.8.3c-.2.2-.3.5-.3.8s.1.6.3.8c.2.2.5.3.8.3Z"/>
              <path id="m20b6673cf2-235" data-name="m20b6673cf2" class="cls-6" d="M233.7,133.7c.3,0,.6-.1.8-.3.2-.2.3-.5.3-.8s-.1-.6-.3-.8c-.2-.2-.5-.3-.8-.3s-.6.1-.8.3c-.2.2-.3.5-.3.8s.1.6.3.8c.2.2.5.3.8.3Z"/>
              <path id="m20b6673cf2-236" data-name="m20b6673cf2" class="cls-6" d="M226.3,142.2c.3,0,.6-.1.8-.3.2-.2.3-.5.3-.8s-.1-.6-.3-.8c-.2-.2-.5-.3-.8-.3s-.6.1-.8.3c-.2.2-.3.5-.3.8s.1.6.3.8c.2.2.5.3.8.3Z"/>
              <path id="m20b6673cf2-237" data-name="m20b6673cf2" class="cls-6" d="M253.8,116.5c.3,0,.6-.1.8-.3.2-.2.3-.5.3-.8s-.1-.6-.3-.8c-.2-.2-.5-.3-.8-.3s-.6.1-.8.3c-.2.2-.3.5-.3.8s.1.6.3.8c.2.2.5.3.8.3Z"/>
              <path id="m20b6673cf2-238" data-name="m20b6673cf2" class="cls-6" d="M239.7,126.1c.3,0,.6-.1.8-.3.2-.2.3-.5.3-.8s-.1-.6-.3-.8c-.2-.2-.5-.3-.8-.3s-.6.1-.8.3c-.2.2-.3.5-.3.8s.1.6.3.8c.2.2.5.3.8.3Z"/>
              <path id="m20b6673cf2-239" data-name="m20b6673cf2" class="cls-6" d="M239.7,126.1c.3,0,.6-.1.8-.3.2-.2.3-.5.3-.8s-.1-.6-.3-.8c-.2-.2-.5-.3-.8-.3s-.6.1-.8.3c-.2.2-.3.5-.3.8s.1.6.3.8c.2.2.5.3.8.3Z"/>
              <path id="m20b6673cf2-240" data-name="m20b6673cf2" class="cls-6" d="M254.4,86.2c.3,0,.6-.1.8-.3.2-.2.3-.5.3-.8s-.1-.6-.3-.8c-.2-.2-.5-.3-.8-.3s-.6.1-.8.3c-.2.2-.3.5-.3.8s.1.6.3.8c.2.2.5.3.8.3Z"/>
              <path id="m20b6673cf2-241" data-name="m20b6673cf2" class="cls-6" d="M226.6,108.6c.3,0,.6-.1.8-.3.2-.2.3-.5.3-.8s-.1-.6-.3-.8c-.2-.2-.5-.3-.8-.3s-.6.1-.8.3c-.2.2-.3.5-.3.8s.1.6.3.8c.2.2.5.3.8.3Z"/>
              <path id="m20b6673cf2-242" data-name="m20b6673cf2" class="cls-6" d="M172.9,167.4c.3,0,.6-.1.8-.3.2-.2.3-.5.3-.8s-.1-.6-.3-.8c-.2-.2-.5-.3-.8-.3s-.6.1-.8.3c-.2.2-.3.5-.3.8s.1.6.3.8c.2.2.5.3.8.3Z"/>
              <path id="m20b6673cf2-243" data-name="m20b6673cf2" class="cls-6" d="M251.1,110.9c.3,0,.6-.1.8-.3.2-.2.3-.5.3-.8s-.1-.6-.3-.8c-.2-.2-.5-.3-.8-.3s-.6.1-.8.3c-.2.2-.3.5-.3.8s.1.6.3.8c.2.2.5.3.8.3Z"/>
              <path id="m20b6673cf2-244" data-name="m20b6673cf2" class="cls-6" d="M217.8,121.3c.3,0,.6-.1.8-.3.2-.2.3-.5.3-.8s-.1-.6-.3-.8c-.2-.2-.5-.3-.8-.3s-.6.1-.8.3c-.2.2-.3.5-.3.8s.1.6.3.8c.2.2.5.3.8.3Z"/>
              <path id="m20b6673cf2-245" data-name="m20b6673cf2" class="cls-6" d="M217.8,121.3c.3,0,.6-.1.8-.3.2-.2.3-.5.3-.8s-.1-.6-.3-.8c-.2-.2-.5-.3-.8-.3s-.6.1-.8.3c-.2.2-.3.5-.3.8s.1.6.3.8c.2.2.5.3.8.3Z"/>
              <path id="m20b6673cf2-246" data-name="m20b6673cf2" class="cls-6" d="M217.8,121.3c.3,0,.6-.1.8-.3.2-.2.3-.5.3-.8s-.1-.6-.3-.8c-.2-.2-.5-.3-.8-.3s-.6.1-.8.3c-.2.2-.3.5-.3.8s.1.6.3.8c.2.2.5.3.8.3Z"/>
              <path id="m20b6673cf2-247" data-name="m20b6673cf2" class="cls-6" d="M256.9,120.4c.3,0,.6-.1.8-.3.2-.2.3-.5.3-.8s-.1-.6-.3-.8c-.2-.2-.5-.3-.8-.3s-.6.1-.8.3c-.2.2-.3.5-.3.8s.1.6.3.8c.2.2.5.3.8.3Z"/>
              <path id="m20b6673cf2-248" data-name="m20b6673cf2" class="cls-6" d="M256.9,120.4c.3,0,.6-.1.8-.3.2-.2.3-.5.3-.8s-.1-.6-.3-.8c-.2-.2-.5-.3-.8-.3s-.6.1-.8.3c-.2.2-.3.5-.3.8s.1.6.3.8c.2.2.5.3.8.3Z"/>
              <path id="m20b6673cf2-249" data-name="m20b6673cf2" class="cls-6" d="M241.3,121.4c.3,0,.6-.1.8-.3.2-.2.3-.5.3-.8s-.1-.6-.3-.8c-.2-.2-.5-.3-.8-.3s-.6.1-.8.3c-.2.2-.3.5-.3.8s.1.6.3.8c.2.2.5.3.8.3Z"/>
              <path id="m20b6673cf2-250" data-name="m20b6673cf2" class="cls-6" d="M212.9,140.6c.3,0,.6-.1.8-.3.2-.2.3-.5.3-.8s-.1-.6-.3-.8c-.2-.2-.5-.3-.8-.3s-.6.1-.8.3c-.2.2-.3.5-.3.8s.1.6.3.8c.2.2.5.3.8.3Z"/>
              <path id="m20b6673cf2-251" data-name="m20b6673cf2" class="cls-6" d="M212.9,140.6c.3,0,.6-.1.8-.3.2-.2.3-.5.3-.8s-.1-.6-.3-.8c-.2-.2-.5-.3-.8-.3s-.6.1-.8.3c-.2.2-.3.5-.3.8s.1.6.3.8c.2.2.5.3.8.3Z"/>
              <path id="m20b6673cf2-252" data-name="m20b6673cf2" class="cls-6" d="M216.2,137.6c.3,0,.6-.1.8-.3.2-.2.3-.5.3-.8s-.1-.6-.3-.8c-.2-.2-.5-.3-.8-.3s-.6.1-.8.3c-.2.2-.3.5-.3.8s.1.6.3.8c.2.2.5.3.8.3Z"/>
              <path id="m20b6673cf2-253" data-name="m20b6673cf2" class="cls-6" d="M233.6,130c.3,0,.6-.1.8-.3.2-.2.3-.5.3-.8s-.1-.6-.3-.8c-.2-.2-.5-.3-.8-.3s-.6.1-.8.3c-.2.2-.3.5-.3.8s.1.6.3.8c.2.2.5.3.8.3Z"/>
              <path id="m20b6673cf2-254" data-name="m20b6673cf2" class="cls-6" d="M233.6,130c.3,0,.6-.1.8-.3.2-.2.3-.5.3-.8s-.1-.6-.3-.8c-.2-.2-.5-.3-.8-.3s-.6.1-.8.3c-.2.2-.3.5-.3.8s.1.6.3.8c.2.2.5.3.8.3Z"/>
              <path id="m20b6673cf2-255" data-name="m20b6673cf2" class="cls-6" d="M225.9,118.5c.3,0,.6-.1.8-.3.2-.2.3-.5.3-.8s-.1-.6-.3-.8c-.2-.2-.5-.3-.8-.3s-.6.1-.8.3c-.2.2-.3.5-.3.8s.1.6.3.8c.2.2.5.3.8.3Z"/>
              <path id="m20b6673cf2-256" data-name="m20b6673cf2" class="cls-6" d="M253.3,94.8c.3,0,.6-.1.8-.3.2-.2.3-.5.3-.8s-.1-.6-.3-.8c-.2-.2-.5-.3-.8-.3s-.6.1-.8.3c-.2.2-.3.5-.3.8s.1.6.3.8c.2.2.5.3.8.3Z"/>
              <path id="m20b6673cf2-257" data-name="m20b6673cf2" class="cls-6" d="M206.1,103.8c.3,0,.6-.1.8-.3.2-.2.3-.5.3-.8s-.1-.6-.3-.8c-.2-.2-.5-.3-.8-.3s-.6.1-.8.3c-.2.2-.3.5-.3.8s.1.6.3.8c.2.2.5.3.8.3Z"/>
              <path id="m20b6673cf2-258" data-name="m20b6673cf2" class="cls-6" d="M204.9,131.8c.3,0,.6-.1.8-.3.2-.2.3-.5.3-.8s-.1-.6-.3-.8c-.2-.2-.5-.3-.8-.3s-.6.1-.8.3c-.2.2-.3.5-.3.8s.1.6.3.8c.2.2.5.3.8.3Z"/>
              <path id="m20b6673cf2-259" data-name="m20b6673cf2" class="cls-6" d="M263.3,118.1c.3,0,.6-.1.8-.3.2-.2.3-.5.3-.8s-.1-.6-.3-.8c-.2-.2-.5-.3-.8-.3s-.6.1-.8.3c-.2.2-.3.5-.3.8s.1.6.3.8c.2.2.5.3.8.3Z"/>
              <path id="m20b6673cf2-260" data-name="m20b6673cf2" class="cls-6" d="M217.3,171.8c.3,0,.6-.1.8-.3.2-.2.3-.5.3-.8s-.1-.6-.3-.8c-.2-.2-.5-.3-.8-.3s-.6.1-.8.3c-.2.2-.3.5-.3.8s.1.6.3.8c.2.2.5.3.8.3Z"/>
              <path id="m20b6673cf2-261" data-name="m20b6673cf2" class="cls-6" d="M212,128.9c.3,0,.6-.1.8-.3.2-.2.3-.5.3-.8s-.1-.6-.3-.8c-.2-.2-.5-.3-.8-.3s-.6.1-.8.3c-.2.2-.3.5-.3.8s.1.6.3.8c.2.2.5.3.8.3Z"/>
              <path id="m20b6673cf2-262" data-name="m20b6673cf2" class="cls-6" d="M221.5,129.7c.3,0,.6-.1.8-.3.2-.2.3-.5.3-.8s-.1-.6-.3-.8c-.2-.2-.5-.3-.8-.3s-.6.1-.8.3c-.2.2-.3.5-.3.8s.1.6.3.8c.2.2.5.3.8.3Z"/>
              <path id="m20b6673cf2-263" data-name="m20b6673cf2" class="cls-6" d="M248.5,134.9c.3,0,.6-.1.8-.3.2-.2.3-.5.3-.8s-.1-.6-.3-.8c-.2-.2-.5-.3-.8-.3s-.6.1-.8.3c-.2.2-.3.5-.3.8s.1.6.3.8c.2.2.5.3.8.3Z"/>
              <path id="m20b6673cf2-264" data-name="m20b6673cf2" class="cls-6" d="M248.5,134.9c.3,0,.6-.1.8-.3.2-.2.3-.5.3-.8s-.1-.6-.3-.8c-.2-.2-.5-.3-.8-.3s-.6.1-.8.3c-.2.2-.3.5-.3.8s.1.6.3.8c.2.2.5.3.8.3Z"/>
              <path id="m20b6673cf2-265" data-name="m20b6673cf2" class="cls-6" d="M207.5,159.2c.3,0,.6-.1.8-.3.2-.2.3-.5.3-.8s-.1-.6-.3-.8c-.2-.2-.5-.3-.8-.3s-.6.1-.8.3c-.2.2-.3.5-.3.8s.1.6.3.8c.2.2.5.3.8.3Z"/>
              <path id="m20b6673cf2-266" data-name="m20b6673cf2" class="cls-6" d="M219.9,102.9c.3,0,.6-.1.8-.3.2-.2.3-.5.3-.8s-.1-.6-.3-.8c-.2-.2-.5-.3-.8-.3s-.6.1-.8.3c-.2.2-.3.5-.3.8s.1.6.3.8c.2.2.5.3.8.3Z"/>
              <path id="m20b6673cf2-267" data-name="m20b6673cf2" class="cls-6" d="M221.9,133.1c.3,0,.6-.1.8-.3.2-.2.3-.5.3-.8s-.1-.6-.3-.8c-.2-.2-.5-.3-.8-.3s-.6.1-.8.3c-.2.2-.3.5-.3.8s.1.6.3.8c.2.2.5.3.8.3Z"/>
              <path id="m20b6673cf2-268" data-name="m20b6673cf2" class="cls-6" d="M211,144.9c.3,0,.6-.1.8-.3.2-.2.3-.5.3-.8s-.1-.6-.3-.8c-.2-.2-.5-.3-.8-.3s-.6.1-.8.3c-.2.2-.3.5-.3.8s.1.6.3.8c.2.2.5.3.8.3Z"/>
              <path id="m20b6673cf2-269" data-name="m20b6673cf2" class="cls-6" d="M226.4,148.2c.3,0,.6-.1.8-.3.2-.2.3-.5.3-.8s-.1-.6-.3-.8c-.2-.2-.5-.3-.8-.3s-.6.1-.8.3c-.2.2-.3.5-.3.8s.1.6.3.8c.2.2.5.3.8.3Z"/>
              <path id="m20b6673cf2-270" data-name="m20b6673cf2" class="cls-6" d="M218,135.4c.3,0,.6-.1.8-.3.2-.2.3-.5.3-.8s-.1-.6-.3-.8c-.2-.2-.5-.3-.8-.3s-.6.1-.8.3c-.2.2-.3.5-.3.8s.1.6.3.8c.2.2.5.3.8.3Z"/>
              <path id="m20b6673cf2-271" data-name="m20b6673cf2" class="cls-6" d="M211.4,138.5c.3,0,.6-.1.8-.3.2-.2.3-.5.3-.8s-.1-.6-.3-.8c-.2-.2-.5-.3-.8-.3s-.6.1-.8.3c-.2.2-.3.5-.3.8s.1.6.3.8c.2.2.5.3.8.3Z"/>
              <path id="m20b6673cf2-272" data-name="m20b6673cf2" class="cls-6" d="M211.4,130.1c.3,0,.6-.1.8-.3.2-.2.3-.5.3-.8s-.1-.6-.3-.8c-.2-.2-.5-.3-.8-.3s-.6.1-.8.3c-.2.2-.3.5-.3.8s.1.6.3.8c.2.2.5.3.8.3Z"/>
              <path id="m20b6673cf2-273" data-name="m20b6673cf2" class="cls-6" d="M236.8,124.3c.3,0,.6-.1.8-.3.2-.2.3-.5.3-.8s-.1-.6-.3-.8c-.2-.2-.5-.3-.8-.3s-.6.1-.8.3c-.2.2-.3.5-.3.8s.1.6.3.8c.2.2.5.3.8.3Z"/>
            </g>
          </g>
        </g>
        <g id="matplotlib.axis_5">
          <g id="xtick_62">
            <g id="line2d_125">
              <path id="m438d5d6848" class="cls-7" d="M88.4,296.4v3.5"/>
            </g>
            <g id="text_37">
              <g>
                <path id="DejaVuSans-31" d="M77.9,310.1h1.6v-5.6l-1.8.4v-.9l1.7-.4h1v6.5h1.6v.8h-4.2v-.8Z"/>
                <path id="DejaVuSans-30" d="M86.2,304.3c-.5,0-.9.3-1.1.8-.3.5-.4,1.3-.4,2.3s.1,1.7.4,2.2c.3.5.6.8,1.1.8s.9-.3,1.2-.8c.3-.5.4-1.2.4-2.2s-.1-1.8-.4-2.3c-.3-.5-.6-.8-1.2-.8ZM86.2,303.5c.8,0,1.4.3,1.9,1,.4.6.6,1.6.6,2.8s-.2,2.2-.6,2.8c-.4.6-1.1,1-1.9,1s-1.4-.3-1.9-1c-.4-.6-.6-1.6-.6-2.8s.2-2.2.6-2.8c.4-.6,1.1-1,1.9-1Z"/>
                <path id="DejaVuSans-2212" d="M90.3,304.7h4.4v.6h-4.4v-.6Z"/>
                <path id="DejaVuSans-32" d="M96.7,306.6h2.4v.6h-3.2v-.6c.3-.3.6-.6,1.1-1.1.5-.5.7-.8.9-.9.2-.2.4-.5.5-.6,0-.2.1-.3.1-.5,0-.3,0-.5-.3-.7-.2-.2-.4-.3-.7-.3s-.4,0-.7.1c-.2,0-.5.2-.8.3v-.7c.3-.1.5-.2.8-.3.2,0,.5,0,.7,0,.5,0,1,.1,1.3.4.3.3.5.6.5,1.1s0,.4-.1.6c0,.2-.2.4-.4.7,0,0-.2.3-.5.6-.3.3-.7.8-1.3,1.3Z"/>
              </g>
            </g>
          </g>
          <g id="xtick_63">
            <g id="line2d_126">
              <path id="m438d5d6848-2" data-name="m438d5d6848" class="cls-7" d="M132.8,296.4v3.5"/>
            </g>
            <g id="text_38">
              <g>
                <path id="DejaVuSans-31-2" data-name="DejaVuSans-31" d="M125.2,310.1h1.6v-5.6l-1.8.4v-.9l1.7-.4h1v6.5h1.6v.8h-4.2v-.8Z"/>
                <path id="DejaVuSans-30-2" data-name="DejaVuSans-30" d="M133.5,304.3c-.5,0-.9.3-1.1.8-.3.5-.4,1.3-.4,2.3s.1,1.7.4,2.2c.3.5.6.8,1.1.8s.9-.3,1.2-.8c.3-.5.4-1.2.4-2.2s-.1-1.8-.4-2.3c-.3-.5-.6-.8-1.2-.8ZM133.5,303.5c.8,0,1.4.3,1.9,1,.4.6.6,1.6.6,2.8s-.2,2.2-.6,2.8c-.4.6-1.1,1-1.9,1s-1.4-.3-1.9-1c-.4-.6-.6-1.6-.6-2.8s.2-2.2.6-2.8c.4-.6,1.1-1,1.9-1Z"/>
                <path id="DejaVuSans-30-3" data-name="DejaVuSans-30" d="M139,302.5c-.4,0-.6.2-.8.5-.2.3-.3.9-.3,1.6s0,1.2.3,1.6c.2.4.4.5.8.5s.6-.2.8-.5c.2-.4.3-.9.3-1.6s0-1.2-.3-1.6c-.2-.4-.4-.5-.8-.5ZM139,301.9c.6,0,1,.2,1.3.7.3.5.5,1.1.5,2s-.2,1.5-.5,2c-.3.5-.7.7-1.3.7s-1-.2-1.3-.7c-.3-.5-.5-1.1-.5-2s.2-1.5.5-2c.3-.5.7-.7,1.3-.7Z"/>
              </g>
            </g>
          </g>
          <g id="xtick_64">
            <g id="line2d_127">
              <path id="m438d5d6848-3" data-name="m438d5d6848" class="cls-7" d="M177.1,296.4v3.5"/>
            </g>
            <g id="text_39">
              <g>
                <path id="DejaVuSans-31-3" data-name="DejaVuSans-31" d="M169.6,310.1h1.6v-5.6l-1.8.4v-.9l1.7-.4h1v6.5h1.6v.8h-4.2v-.8Z"/>
                <path id="DejaVuSans-30-4" data-name="DejaVuSans-30" d="M177.9,304.3c-.5,0-.9.3-1.1.8-.3.5-.4,1.3-.4,2.3s.1,1.7.4,2.2c.3.5.6.8,1.1.8s.9-.3,1.2-.8c.3-.5.4-1.2.4-2.2s-.1-1.8-.4-2.3c-.3-.5-.6-.8-1.2-.8ZM177.9,303.5c.8,0,1.4.3,1.9,1,.4.6.6,1.6.6,2.8s-.2,2.2-.6,2.8c-.4.6-1.1,1-1.9,1s-1.4-.3-1.9-1c-.4-.6-.6-1.6-.6-2.8s.2-2.2.6-2.8c.4-.6,1.1-1,1.9-1Z"/>
                <path id="DejaVuSans-32-2" data-name="DejaVuSans-32" d="M182.5,306.6h2.4v.6h-3.2v-.6c.3-.3.6-.6,1.1-1.1.5-.5.7-.8.9-.9.2-.2.4-.5.5-.6,0-.2.1-.3.1-.5,0-.3,0-.5-.3-.7-.2-.2-.4-.3-.7-.3s-.4,0-.7.1c-.2,0-.5.2-.8.3v-.7c.3-.1.5-.2.8-.3.2,0,.5,0,.7,0,.5,0,1,.1,1.3.4.3.3.5.6.5,1.1s0,.4-.1.6c0,.2-.2.4-.4.7,0,0-.2.3-.5.6-.3.3-.7.8-1.3,1.3Z"/>
              </g>
            </g>
          </g>
          <g id="xtick_65">
            <g id="line2d_128">
              <path id="m438d5d6848-4" data-name="m438d5d6848" class="cls-7" d="M221.5,296.4v3.5"/>
            </g>
            <g id="text_40">
              <g>
                <path id="DejaVuSans-31-4" data-name="DejaVuSans-31" d="M213.9,310.1h1.6v-5.6l-1.8.4v-.9l1.7-.4h1v6.5h1.6v.8h-4.2v-.8Z"/>
                <path id="DejaVuSans-30-5" data-name="DejaVuSans-30" d="M222.2,304.3c-.5,0-.9.3-1.1.8-.3.5-.4,1.3-.4,2.3s.1,1.7.4,2.2c.3.5.6.8,1.1.8s.9-.3,1.2-.8c.3-.5.4-1.2.4-2.2s-.1-1.8-.4-2.3c-.3-.5-.6-.8-1.2-.8ZM222.2,303.6c.8,0,1.4.3,1.9,1,.4.6.6,1.6.6,2.8s-.2,2.2-.6,2.8c-.4.6-1.1,1-1.9,1s-1.4-.3-1.9-1c-.4-.6-.6-1.6-.6-2.8s.2-2.2.6-2.8c.4-.6,1.1-1,1.9-1Z"/>
                <path id="DejaVuSans-34" d="M228.1,302.6l-1.7,2.7h1.7v-2.7ZM228,302h.9v3.3h.7v.6h-.7v1.2h-.7v-1.2h-2.3v-.7l2.1-3.2Z"/>
              </g>
            </g>
          </g>
          <g id="xtick_66">
            <g id="line2d_129">
              <path id="m438d5d6848-5" data-name="m438d5d6848" class="cls-7" d="M265.8,296.4v3.5"/>
            </g>
            <g id="text_41">
              <g>
                <path id="DejaVuSans-31-5" data-name="DejaVuSans-31" d="M258.3,310.1h1.6v-5.6l-1.8.4v-.9l1.7-.4h1v6.5h1.6v.8h-4.2v-.8Z"/>
                <path id="DejaVuSans-30-6" data-name="DejaVuSans-30" d="M266.6,304.3c-.5,0-.9.3-1.1.8-.3.5-.4,1.3-.4,2.3s.1,1.7.4,2.2c.3.5.6.8,1.1.8s.9-.3,1.2-.8c.3-.5.4-1.2.4-2.2s-.1-1.8-.4-2.3c-.3-.5-.6-.8-1.2-.8ZM266.6,303.5c.8,0,1.4.3,1.9,1,.4.6.6,1.6.6,2.8s-.2,2.2-.6,2.8c-.4.6-1.1,1-1.9,1s-1.4-.3-1.9-1c-.4-.6-.6-1.6-.6-2.8s.2-2.2.6-2.8c.4-.6,1.1-1,1.9-1Z"/>
                <path id="DejaVuSans-36" d="M272.2,304.3c-.3,0-.6.1-.7.3-.2.2-.3.5-.3.9s0,.7.3.9c.2.2.4.3.7.3s.6-.1.7-.3c.2-.2.3-.5.3-.9s0-.7-.3-.9c-.2-.2-.4-.3-.7-.3ZM273.5,302.2v.6c-.2,0-.3-.1-.5-.2-.2,0-.4,0-.5,0-.5,0-.8.2-1,.5-.2.3-.4.8-.4,1.4.1-.2.3-.4.5-.5.2-.1.4-.2.7-.2.5,0,.9.2,1.2.5.3.3.4.7.4,1.3s-.2.9-.5,1.3c-.3.3-.7.5-1.2.5s-1-.2-1.4-.7c-.3-.5-.5-1.1-.5-2s.2-1.4.6-1.9c.4-.5.9-.7,1.5-.7s.3,0,.5,0,.4,0,.6.2Z"/>
              </g>
            </g>
          </g>
          <g id="xtick_67">
            <g id="line2d_130">
              <path id="m438d5d6848-6" data-name="m438d5d6848" class="cls-7" d="M310.2,296.4v3.5"/>
            </g>
            <g id="text_42">
              <g>
                <path id="DejaVuSans-31-6" data-name="DejaVuSans-31" d="M302.6,310.1h1.6v-5.6l-1.8.4v-.9l1.7-.4h1v6.5h1.6v.8h-4.2v-.8Z"/>
                <path id="DejaVuSans-30-7" data-name="DejaVuSans-30" d="M310.9,304.3c-.5,0-.9.3-1.1.8-.3.5-.4,1.3-.4,2.3s.1,1.7.4,2.2c.3.5.6.8,1.1.8s.9-.3,1.2-.8c.3-.5.4-1.2.4-2.2s-.1-1.8-.4-2.3c-.3-.5-.6-.8-1.2-.8ZM310.9,303.5c.8,0,1.4.3,1.9,1,.4.6.6,1.6.6,2.8s-.2,2.2-.6,2.8c-.4.6-1.1,1-1.9,1s-1.4-.3-1.9-1c-.4-.6-.6-1.6-.6-2.8s.2-2.2.6-2.8c.4-.6,1.1-1,1.9-1Z"/>
                <path id="DejaVuSans-38" d="M316.4,304.7c-.3,0-.6,0-.8.3-.2.2-.3.4-.3.7s0,.5.3.7c.2.2.4.3.8.3s.6,0,.8-.3c.2-.2.3-.4.3-.7s0-.5-.3-.7c-.2-.2-.4-.3-.8-.3ZM315.7,304.4c-.3,0-.5-.2-.7-.4-.2-.2-.2-.5-.2-.7s.1-.7.4-1c.3-.2.7-.4,1.2-.4s.9.1,1.2.4.4.6.4,1,0,.5-.2.7c-.2.2-.4.3-.7.4.3,0,.6.2.8.5.2.2.3.5.3.8,0,.5-.2.9-.5,1.1-.3.3-.7.4-1.3.4s-1-.1-1.3-.4c-.3-.3-.5-.6-.5-1.1s0-.6.3-.8c.2-.2.4-.4.8-.5ZM315.5,303.3c0,.3,0,.5.2.6.2.1.4.2.7.2s.5,0,.7-.2c.2-.1.3-.4.3-.6s0-.5-.3-.6c-.2-.1-.4-.2-.7-.2s-.5,0-.7.2c-.2.1-.2.4-.2.6Z"/>
              </g>
            </g>
          </g>
          <g id="text_43">
            <g>
              <path id="DejaVuSans-73" d="M142.7,321.5v1c-.3-.2-.6-.3-.9-.4-.3,0-.7-.1-1-.1-.5,0-.9,0-1.2.2-.3.2-.4.4-.4.7s0,.4.3.6.6.3,1.2.4h.4c.8.2,1.3.5,1.6.8s.5.7.5,1.3-.2,1.1-.7,1.4c-.5.4-1.1.5-2,.5s-.7,0-1.1-.1c-.4,0-.8-.2-1.2-.3v-1.1c.4.2.8.4,1.2.5.4.1.8.2,1.1.2s.9,0,1.2-.3c.3-.2.4-.4.4-.7s0-.5-.3-.7c-.2-.2-.6-.3-1.3-.5h-.4c-.7-.2-1.1-.4-1.4-.7-.3-.3-.4-.7-.4-1.2s.2-1.1.7-1.4c.4-.3,1.1-.5,1.9-.5s.8,0,1.1,0c.4,0,.7.1,1,.3Z"/>
              <path id="DejaVuSans-63" d="M149.5,321.5v1c-.3-.2-.6-.3-.9-.4s-.6-.1-.9-.1c-.7,0-1.2.2-1.6.7-.4.4-.6,1.1-.6,1.9s.2,1.4.6,1.9c.4.4.9.7,1.6.7s.6,0,.9-.1.6-.2.9-.4v1c-.3.1-.6.2-.9.3-.3,0-.7.1-1,.1-1,0-1.8-.3-2.4-.9-.6-.6-.9-1.5-.9-2.5s.3-1.9.9-2.5c.6-.6,1.4-.9,2.4-.9s.7,0,1,.1c.3,0,.6.2.9.3Z"/>
              <path id="DejaVuSans-52" d="M155.6,323.7c.3,0,.5.3.7.6s.5.7.7,1.2l1.2,2.4h-1.3l-1.1-2.2c-.3-.6-.6-1-.8-1.2s-.6-.3-1.1-.3h-1.3v3.7h-1.2v-8.7h2.7c1,0,1.7.2,2.2.6.5.4.7,1,.7,1.9s-.1,1-.4,1.4c-.3.4-.6.6-1.1.8ZM152.6,320.1v3.1h1.5c.6,0,1-.1,1.3-.4s.4-.7.4-1.2-.1-.9-.4-1.2-.7-.4-1.3-.4h-1.5Z"/>
              <path id="DejaVuSans-42" d="M161,323.7v3.2h1.9c.6,0,1.1-.1,1.4-.4.3-.3.5-.7.5-1.2s-.2-1-.5-1.2c-.3-.3-.8-.4-1.4-.4h-1.9ZM161,320.1v2.6h1.8c.6,0,1-.1,1.3-.3.3-.2.4-.5.4-1s-.1-.8-.4-1c-.3-.2-.7-.3-1.3-.3h-1.8ZM159.8,319.1h3c.9,0,1.6.2,2.1.6.5.4.7.9.7,1.6s-.1,1-.4,1.3-.6.5-1.1.6c.6.1,1,.4,1.4.8.3.4.5.9.5,1.5s-.3,1.4-.8,1.8c-.5.4-1.3.6-2.3.6h-3.1v-8.7Z"/>
              <path id="DejaVuSans-41" d="M170.9,320.3l-1.6,4.4h3.2l-1.6-4.4ZM170.3,319.1h1.3l3.3,8.7h-1.2l-.8-2.2h-3.9l-.8,2.2h-1.2l3.3-8.7Z"/>
              <path id="DejaVuSans-20" d="M175.1,327.8"/>
              <path id="DejaVuSans-Oblique-6b" d="M181.1,318.7h1.1l-1,5.3,3.7-2.8h1.4l-4.1,3.1,3,3.4h-1.3l-2.8-3.2-.6,3.2h-1.1l1.8-9.1Z"/>
              <path id="DejaVuSans-Oblique-61" d="M190.3,327.2l-.5,2.6h-.8v-.7c0,.3-.3.5-.6.6-.3.1-.6.2-.9.2s-.7-.1-1-.4c-.2-.2-.4-.5-.4-.9,0-.5.2-1,.6-1.3.4-.3,1-.5,1.8-.5h1v-.2s0,0,0,0c0,0,0,0,0-.1,0-.2,0-.4-.3-.6-.2-.1-.5-.2-.8-.2s-.5,0-.8,0c-.3,0-.5.2-.8.3v-.7c.4-.1.7-.2,1-.2.3,0,.5,0,.8,0,.5,0,1,.1,1.2.4.3.2.4.6.4,1s0,.2,0,.3c0,.1,0,.3,0,.4ZM189.5,327.5h-.8c-.6,0-1.1,0-1.4.2s-.4.4-.4.8,0,.4.2.6c.2.1.4.2.6.2.4,0,.8-.1,1.1-.4s.5-.7.6-1.2v-.2Z"/>
              <path id="DejaVuSans-Oblique-70" d="M195.1,327c0-.4,0-.7-.3-.9-.2-.2-.4-.3-.8-.3s-.4,0-.6.2c-.2.1-.4.3-.5.5-.2.2-.3.5-.4.8,0,.3-.1.6-.1.9s0,.7.3.9c.2.2.4.3.7.3s.5,0,.7-.2c.2-.1.4-.3.5-.5.2-.2.3-.5.4-.8,0-.3.1-.6.1-.9ZM192.8,325.9c.2-.3.4-.5.7-.6.3-.1.6-.2.9-.2s.8.2,1.1.5c.3.3.4.7.4,1.3s0,.9-.2,1.3c-.2.4-.4.8-.7,1.1-.2.2-.4.4-.7.5-.3.1-.5.2-.8.2s-.6,0-.8-.2c-.2-.1-.4-.3-.5-.6l-.5,2.4h-.8l1.2-6.3h.8v.7Z"/>
              <path id="DejaVuSans-Oblique-70-2" data-name="DejaVuSans-Oblique-70" d="M200.5,327c0-.4,0-.7-.3-.9-.2-.2-.4-.3-.8-.3s-.4,0-.6.2c-.2.1-.4.3-.5.5-.2.2-.3.5-.4.8,0,.3-.1.6-.1.9s0,.7.3.9c.2.2.4.3.7.3s.5,0,.7-.2c.2-.1.4-.3.5-.5.2-.2.3-.5.4-.8,0-.3.1-.6.1-.9ZM198.1,325.9c.2-.3.4-.5.7-.6.3-.1.6-.2.9-.2s.8.2,1.1.5c.3.3.4.7.4,1.3s0,.9-.2,1.3c-.2.4-.4.8-.7,1.1-.2.2-.4.4-.7.5-.3.1-.5.2-.8.2s-.6,0-.8-.2c-.2-.1-.4-.3-.5-.6l-.5,2.4h-.8l1.2-6.3h.8v.7Z"/>
              <path id="DejaVuSans-20-2" data-name="DejaVuSans-20" d="M202,327.8"/>
              <path id="DejaVuSans-28" d="M209.5,318.7c-.5.9-.9,1.8-1.2,2.7-.3.9-.4,1.8-.4,2.7s.1,1.8.4,2.7.6,1.8,1.2,2.7h-.9c-.6-.9-1-1.8-1.3-2.7-.3-.9-.4-1.8-.4-2.6s.1-1.7.4-2.6c.3-.9.7-1.8,1.3-2.7h.9Z"/>
              <path id="DejaVuSans-Oblique-68" d="M217.1,323.9l-.8,4h-1.1l.8-3.9c0-.2,0-.3,0-.5,0-.1,0-.3,0-.3,0-.3-.1-.6-.3-.8-.2-.2-.5-.3-.9-.3-.6,0-1.1.2-1.5.6-.4.4-.7.9-.8,1.6l-.7,3.6h-1.1l1.8-9.1h1.1l-.7,3.6c.3-.4.6-.7,1-.9.4-.2.9-.3,1.3-.3s1,.2,1.3.5c.3.3.5.8.5,1.3s0,.3,0,.4,0,.3,0,.5Z"/>
              <path id="DejaVuSans-2212-2" data-name="DejaVuSans-2212" d="M219.8,320.3h5.3v.7h-5.3v-.7Z"/>
              <path id="DejaVuSans-31-7" data-name="DejaVuSans-31" d="M227,322.6h1.4v-4.7l-1.5.3v-.8l1.5-.3h.8v5.4h1.4v.7h-3.5v-.7Z"/>
              <path id="DejaVuSans-29" d="M232.6,318.7h.9c.6.9,1,1.8,1.3,2.7.3.9.4,1.8.4,2.6s-.1,1.8-.4,2.6c-.3.9-.7,1.8-1.3,2.7h-.9c.5-.9.9-1.8,1.2-2.7.3-.9.4-1.8.4-2.7s-.1-1.8-.4-2.7c-.3-.9-.6-1.8-1.2-2.7Z"/>
            </g>
          </g>
        </g>
        <g id="matplotlib.axis_6">
          <g id="ytick_62">
            <g id="line2d_131">
              <path id="mb2f71952e9" class="cls-7" d="M49,257h-3.5"/>
            </g>
            <g id="text_44">
              <g>
                <path id="DejaVuSans-31-8" data-name="DejaVuSans-31" d="M19.8,259.9h1.6v-5.6l-1.8.4v-.9l1.7-.4h1v6.5h1.6v.8h-4.2v-.8Z"/>
                <path id="DejaVuSans-30-8" data-name="DejaVuSans-30" d="M28.1,254.1c-.5,0-.9.3-1.1.8-.3.5-.4,1.3-.4,2.3s.1,1.7.4,2.2c.3.5.6.8,1.1.8s.9-.3,1.2-.8c.3-.5.4-1.2.4-2.2s-.1-1.8-.4-2.3c-.3-.5-.6-.8-1.2-.8ZM28.1,253.3c.8,0,1.4.3,1.9,1,.4.6.6,1.6.6,2.8s-.2,2.2-.6,2.8c-.4.6-1.1,1-1.9,1s-1.4-.3-1.9-1c-.4-.6-.6-1.6-.6-2.8s.2-2.2.6-2.8c.4-.6,1.1-1,1.9-1Z"/>
                <path id="DejaVuSans-2212-3" data-name="DejaVuSans-2212" d="M32.1,254.4h4.4v.6h-4.4v-.6Z"/>
                <path id="DejaVuSans-32-3" data-name="DejaVuSans-32" d="M38.5,256.3h2.4v.6h-3.2v-.6c.3-.3.6-.6,1.1-1.1.5-.5.7-.8.9-.9.2-.2.4-.5.5-.6,0-.2.1-.3.1-.5,0-.3,0-.5-.3-.7-.2-.2-.4-.3-.7-.3s-.4,0-.7.1c-.2,0-.5.2-.8.3v-.7c.3-.1.5-.2.8-.3.2,0,.5,0,.7,0,.5,0,1,.1,1.3.4.3.3.5.6.5,1.1s0,.4-.1.6c0,.2-.2.4-.4.7,0,0-.2.3-.5.6-.3.3-.7.8-1.3,1.3Z"/>
              </g>
            </g>
          </g>
          <g id="ytick_63">
            <g id="line2d_132">
              <path id="mb2f71952e9-2" data-name="mb2f71952e9" class="cls-7" d="M49,212.7h-3.5"/>
            </g>
            <g id="text_45">
              <g>
                <path id="DejaVuSans-31-9" data-name="DejaVuSans-31" d="M25.7,215.6h1.6v-5.6l-1.8.4v-.9l1.7-.4h1v6.5h1.6v.8h-4.2v-.8Z"/>
                <path id="DejaVuSans-30-9" data-name="DejaVuSans-30" d="M34,209.8c-.5,0-.9.3-1.1.8-.3.5-.4,1.3-.4,2.3s.1,1.7.4,2.2c.3.5.6.8,1.1.8s.9-.3,1.2-.8c.3-.5.4-1.2.4-2.2s-.1-1.8-.4-2.3c-.3-.5-.6-.8-1.2-.8ZM34,209c.8,0,1.4.3,1.9,1,.4.6.6,1.6.6,2.8s-.2,2.2-.6,2.8c-.4.6-1.1,1-1.9,1s-1.4-.3-1.9-1c-.4-.6-.6-1.6-.6-2.8s.2-2.2.6-2.8c.4-.6,1.1-1,1.9-1Z"/>
                <path id="DejaVuSans-30-10" data-name="DejaVuSans-30" d="M39.5,207.9c-.4,0-.6.2-.8.5-.2.3-.3.9-.3,1.6s0,1.2.3,1.6c.2.4.4.5.8.5s.6-.2.8-.5c.2-.4.3-.9.3-1.6s0-1.2-.3-1.6c-.2-.4-.4-.5-.8-.5ZM39.5,207.4c.6,0,1,.2,1.3.7.3.5.5,1.1.5,2s-.2,1.5-.5,2c-.3.5-.7.7-1.3.7s-1-.2-1.3-.7c-.3-.5-.5-1.1-.5-2s.2-1.5.5-2c.3-.5.7-.7,1.3-.7Z"/>
              </g>
            </g>
          </g>
          <g id="ytick_64">
            <g id="line2d_133">
              <path id="mb2f71952e9-3" data-name="mb2f71952e9" class="cls-7" d="M49,168.3h-3.5"/>
            </g>
            <g id="text_46">
              <g>
                <path id="DejaVuSans-31-10" data-name="DejaVuSans-31" d="M25.7,171.2h1.6v-5.6l-1.8.4v-.9l1.7-.4h1v6.5h1.6v.8h-4.2v-.8Z"/>
                <path id="DejaVuSans-30-11" data-name="DejaVuSans-30" d="M34,165.4c-.5,0-.9.3-1.1.8-.3.5-.4,1.3-.4,2.3s.1,1.7.4,2.2c.3.5.6.8,1.1.8s.9-.3,1.2-.8c.3-.5.4-1.2.4-2.2s-.1-1.8-.4-2.3c-.3-.5-.6-.8-1.2-.8ZM34,164.6c.8,0,1.4.3,1.9,1,.4.6.6,1.6.6,2.8s-.2,2.2-.6,2.8c-.4.6-1.1,1-1.9,1s-1.4-.3-1.9-1c-.4-.6-.6-1.6-.6-2.8s.2-2.2.6-2.8c.4-.6,1.1-1,1.9-1Z"/>
                <path id="DejaVuSans-32-4" data-name="DejaVuSans-32" d="M38.6,167.6h2.4v.6h-3.2v-.6c.3-.3.6-.6,1.1-1.1.5-.5.7-.8.9-.9.2-.2.4-.5.5-.6,0-.2.1-.3.1-.5,0-.3,0-.5-.3-.7-.2-.2-.4-.3-.7-.3s-.4,0-.7.1c-.2,0-.5.2-.8.3v-.7c.3-.1.5-.2.8-.3.2,0,.5,0,.7,0,.5,0,1,.1,1.3.4.3.3.5.6.5,1.1s0,.4-.1.6c0,.2-.2.4-.4.7,0,0-.2.3-.5.6-.3.3-.7.8-1.3,1.3Z"/>
              </g>
            </g>
          </g>
          <g id="ytick_65">
            <g id="line2d_134">
              <path id="mb2f71952e9-4" data-name="mb2f71952e9" class="cls-7" d="M49,124h-3.5"/>
            </g>
            <g id="text_47">
              <g>
                <path id="DejaVuSans-31-11" data-name="DejaVuSans-31" d="M25.7,126.9h1.6v-5.6l-1.8.4v-.9l1.7-.4h1v6.5h1.6v.8h-4.2v-.8Z"/>
                <path id="DejaVuSans-30-12" data-name="DejaVuSans-30" d="M34,121.1c-.5,0-.9.3-1.1.8-.3.5-.4,1.3-.4,2.3s.1,1.7.4,2.2c.3.5.6.8,1.1.8s.9-.3,1.2-.8c.3-.5.4-1.2.4-2.2s-.1-1.8-.4-2.3c-.3-.5-.6-.8-1.2-.8ZM34,120.3c.8,0,1.4.3,1.9,1,.4.6.6,1.6.6,2.8s-.2,2.2-.6,2.8c-.4.6-1.1,1-1.9,1s-1.4-.3-1.9-1c-.4-.6-.6-1.6-.6-2.8s.2-2.2.6-2.8c.4-.6,1.1-1,1.9-1Z"/>
                <path id="DejaVuSans-34-2" data-name="DejaVuSans-34" d="M39.9,119.4l-1.7,2.7h1.7v-2.7ZM39.7,118.8h.9v3.3h.7v.6h-.7v1.2h-.7v-1.2h-2.3v-.7l2.1-3.2Z"/>
              </g>
            </g>
          </g>
          <g id="ytick_66">
            <g id="line2d_135">
              <path id="mb2f71952e9-5" data-name="mb2f71952e9" class="cls-7" d="M49,79.6h-3.5"/>
            </g>
            <g id="text_48">
              <g>
                <path id="DejaVuSans-31-12" data-name="DejaVuSans-31" d="M25.7,82.5h1.6v-5.6l-1.8.4v-.9l1.7-.4h1v6.5h1.6v.8h-4.2v-.8Z"/>
                <path id="DejaVuSans-30-13" data-name="DejaVuSans-30" d="M34,76.7c-.5,0-.9.3-1.1.8-.3.5-.4,1.3-.4,2.3s.1,1.7.4,2.2c.3.5.6.8,1.1.8s.9-.3,1.2-.8c.3-.5.4-1.2.4-2.2s-.1-1.8-.4-2.3c-.3-.5-.6-.8-1.2-.8ZM34,75.9c.8,0,1.4.3,1.9,1,.4.6.6,1.6.6,2.8s-.2,2.2-.6,2.8c-.4.6-1.1,1-1.9,1s-1.4-.3-1.9-1c-.4-.6-.6-1.6-.6-2.8s.2-2.2.6-2.8c.4-.6,1.1-1,1.9-1Z"/>
                <path id="DejaVuSans-36-2" data-name="DejaVuSans-36" d="M39.6,76.7c-.3,0-.6.1-.7.3-.2.2-.3.5-.3.9s0,.7.3.9c.2.2.4.3.7.3s.6-.1.7-.3c.2-.2.3-.5.3-.9s0-.7-.3-.9c-.2-.2-.4-.3-.7-.3ZM40.9,74.6v.6c-.2,0-.3-.1-.5-.2-.2,0-.4,0-.5,0-.5,0-.8.2-1,.5-.2.3-.4.8-.4,1.4.1-.2.3-.4.5-.5.2-.1.4-.2.7-.2.5,0,.9.2,1.2.5.3.3.4.7.4,1.3s-.2.9-.5,1.3c-.3.3-.7.5-1.2.5s-1-.2-1.4-.7c-.3-.5-.5-1.1-.5-2s.2-1.4.6-1.9c.4-.5.9-.7,1.5-.7s.3,0,.5,0,.4,0,.6.2Z"/>
              </g>
            </g>
          </g>
          <g id="ytick_67">
            <g id="line2d_136">
              <path id="mb2f71952e9-6" data-name="mb2f71952e9" class="cls-7" d="M49,35.3h-3.5"/>
            </g>
            <g id="text_49">
              <g>
                <path id="DejaVuSans-31-13" data-name="DejaVuSans-31" d="M25.7,38.2h1.6v-5.6l-1.8.4v-.9l1.7-.4h1v6.5h1.6v.8h-4.2v-.8Z"/>
                <path id="DejaVuSans-30-14" data-name="DejaVuSans-30" d="M34,32.4c-.5,0-.9.3-1.1.8-.3.5-.4,1.3-.4,2.3s.1,1.7.4,2.2c.3.5.6.8,1.1.8s.9-.3,1.2-.8c.3-.5.4-1.2.4-2.2s-.1-1.8-.4-2.3c-.3-.5-.6-.8-1.2-.8ZM34,31.6c.8,0,1.4.3,1.9,1,.4.6.6,1.6.6,2.8s-.2,2.2-.6,2.8c-.4.6-1.1,1-1.9,1s-1.4-.3-1.9-1c-.4-.6-.6-1.6-.6-2.8s.2-2.2.6-2.8c.4-.6,1.1-1,1.9-1Z"/>
                <path id="DejaVuSans-38-2" data-name="DejaVuSans-38" d="M39.5,32.8c-.3,0-.6,0-.8.3-.2.2-.3.4-.3.7s0,.5.3.7c.2.2.4.3.8.3s.6,0,.8-.3c.2-.2.3-.4.3-.7s0-.5-.3-.7c-.2-.2-.4-.3-.8-.3ZM38.8,32.5c-.3,0-.5-.2-.7-.4-.2-.2-.2-.5-.2-.7s.1-.7.4-1c.3-.2.7-.4,1.2-.4s.9.1,1.2.4.4.6.4,1,0,.5-.2.7c-.2.2-.4.3-.7.4.3,0,.6.2.8.5.2.2.3.5.3.8,0,.5-.2.9-.5,1.1-.3.3-.7.4-1.3.4s-1-.1-1.3-.4c-.3-.3-.5-.6-.5-1.1s0-.6.3-.8c.2-.2.4-.4.8-.5ZM38.5,31.4c0,.3,0,.5.2.6.2.1.4.2.7.2s.5,0,.7-.2c.2-.1.3-.4.3-.6s0-.5-.3-.6c-.2-.1-.4-.2-.7-.2s-.5,0-.7.2c-.2.1-.2.4-.2.6Z"/>
              </g>
            </g>
          </g>
          <g id="text_50">
            <g>
              <path id="DejaVuSans-72" d="M5.2,201.5c0,.1-.1.3-.2.4,0,.1,0,.3,0,.5,0,.6.2,1.1.6,1.4s1,.5,1.7.5h3.5v1.1h-6.6v-1.1h1c-.4-.2-.7-.5-.9-.9-.2-.4-.3-.8-.3-1.3s0-.2,0-.2c0,0,0-.2,0-.3h1.1Z"/>
              <path id="DejaVuSans-74" d="M2.3,199.3h1.9v-2.2h.8v2.2h3.6c.5,0,.9,0,1-.2s.2-.4.2-.9v-1.1h.9v1.1c0,.8-.2,1.4-.5,1.7-.3.3-.9.5-1.7.5h-3.6v.8h-.8v-.8h-1.9v-1.1Z"/>
              <path id="DejaVuSans-52-2" data-name="DejaVuSans-52" d="M6.6,191.5c0-.3.3-.5.6-.7s.7-.5,1.2-.7l2.4-1.2v1.3l-2.2,1.1c-.6.3-1,.6-1.2.8s-.3.6-.3,1.1v1.3h3.7v1.2H2v-2.7c0-1,.2-1.7.6-2.2.4-.5,1-.7,1.9-.7s1,.1,1.4.4c.4.3.6.6.8,1.1ZM2.9,194.4h3.1v-1.5c0-.6-.1-1-.4-1.3s-.7-.4-1.2-.4-.9.1-1.2.4-.4.7-.4,1.3v1.5Z"/>
              <path id="DejaVuSans-42-2" data-name="DejaVuSans-42" d="M6.5,186.1h3.2v-1.9c0-.6-.1-1.1-.4-1.4-.3-.3-.7-.5-1.2-.5s-1,.2-1.2.5c-.3.3-.4.8-.4,1.4v1.9ZM2.9,186.1h2.6v-1.8c0-.6-.1-1-.3-1.3-.2-.3-.5-.4-1-.4s-.8.1-1,.4c-.2.3-.3.7-.3,1.3v1.8ZM2,187.3v-3c0-.9.2-1.6.6-2.1.4-.5.9-.7,1.6-.7s1,.1,1.3.4.5.6.6,1.1c.1-.6.4-1,.8-1.4.4-.3.9-.5,1.5-.5s1.4.3,1.8.8c.4.5.6,1.3.6,2.3v3.1H2Z"/>
              <path id="DejaVuSans-41-2" data-name="DejaVuSans-41" d="M3.1,176.1l4.4,1.6v-3.2l-4.4,1.6ZM2,176.8v-1.3l8.7-3.3v1.2l-2.2.8v3.9l2.2.8v1.2l-8.7-3.3Z"/>
              <path id="DejaVuSans-20-3" data-name="DejaVuSans-20" d="M10.7,172"/>
              <path id="DejaVuSans-Oblique-6b-2" data-name="DejaVuSans-Oblique-6b" d="M1.6,166v-1.1l5.3,1-2.8-3.7v-1.4l3.1,4.1,3.4-3v1.3l-3.2,2.8,3.2.6v1.1l-9.1-1.8Z"/>
              <path id="DejaVuSans-Oblique-61-2" data-name="DejaVuSans-Oblique-61" d="M10.1,156.7l2.6.5v.8h-.7c.3,0,.5.3.6.6.1.3.2.6.2.9s-.1.7-.4,1c-.2.2-.5.4-.9.4-.5,0-1-.2-1.3-.6-.3-.4-.5-1-.5-1.8v-1h-.2s0,0,0,0c0,0,0,0-.1,0-.2,0-.4,0-.6.3-.1.2-.2.5-.2.8s0,.5,0,.8c0,.3.2.5.3.8h-.7c-.1-.4-.2-.7-.2-1,0-.3,0-.5,0-.8,0-.5.1-1,.4-1.2.2-.3.6-.4,1-.4s.2,0,.3,0c.1,0,.3,0,.4,0ZM10.4,157.5v.8c0,.6,0,1.1.2,1.4s.4.4.8.4.4,0,.6-.2c.1-.2.2-.4.2-.6,0-.4-.1-.8-.4-1.1s-.7-.5-1.2-.6h-.2Z"/>
              <path id="DejaVuSans-Oblique-70-3" data-name="DejaVuSans-Oblique-70" d="M9.9,151.9c-.4,0-.7,0-.9.3-.2.2-.3.4-.3.8s0,.4.2.6c.1.2.3.4.5.5.2.2.5.3.8.4.3,0,.6.1.9.1s.7,0,.9-.3c.2-.2.3-.4.3-.7s0-.5-.2-.7c-.1-.2-.3-.4-.5-.5-.2-.2-.5-.3-.8-.4-.3,0-.6-.1-.9-.1ZM8.8,154.3c-.3-.2-.5-.4-.6-.7-.1-.3-.2-.6-.2-.9s.2-.8.5-1.1c.3-.3.7-.4,1.3-.4s.9,0,1.3.2c.4.2.8.4,1.1.7.2.2.4.4.5.7.1.3.2.5.2.8s0,.6-.2.8c-.1.2-.3.4-.6.5l2.4.5v.8l-6.3-1.2v-.8h.7Z"/>
              <path id="DejaVuSans-Oblique-70-4" data-name="DejaVuSans-Oblique-70" d="M9.9,146.6c-.4,0-.7,0-.9.3-.2.2-.3.4-.3.8s0,.4.2.6c.1.2.3.4.5.5.2.2.5.3.8.4.3,0,.6.1.9.1s.7,0,.9-.3c.2-.2.3-.4.3-.7s0-.5-.2-.7c-.1-.2-.3-.4-.5-.5-.2-.2-.5-.3-.8-.4-.3,0-.6-.1-.9-.1ZM8.8,148.9c-.3-.2-.5-.4-.6-.7-.1-.3-.2-.6-.2-.9s.2-.8.5-1.1c.3-.3.7-.4,1.3-.4s.9,0,1.3.2c.4.2.8.4,1.1.7.2.2.4.4.5.7.1.3.2.5.2.8s0,.6-.2.8c-.1.2-.3.4-.6.5l2.4.5v.8l-6.3-1.2v-.8h.7Z"/>
              <path id="DejaVuSans-20-4" data-name="DejaVuSans-20" d="M10.7,145.1"/>
              <path id="DejaVuSans-28-2" data-name="DejaVuSans-28" d="M1.6,137.6c.9.5,1.8.9,2.7,1.2.9.3,1.8.4,2.7.4s1.8-.1,2.7-.4,1.8-.6,2.7-1.2v.9c-.9.6-1.8,1-2.7,1.3-.9.3-1.8.4-2.6.4s-1.7-.1-2.6-.4c-.9-.3-1.8-.7-2.7-1.3v-.9Z"/>
              <path id="DejaVuSans-Oblique-68-2" data-name="DejaVuSans-Oblique-68" d="M6.8,129.9l4,.8v1.1l-3.9-.8c-.2,0-.3,0-.5,0-.1,0-.3,0-.3,0-.3,0-.6.1-.8.3-.2.2-.3.5-.3.9,0,.6.2,1.1.6,1.5.4.4.9.7,1.6.8l3.6.7v1.1l-9.1-1.8v-1.1l3.6.7c-.4-.3-.7-.6-.9-1-.2-.4-.3-.9-.3-1.3s.2-1,.5-1.3c.3-.3.8-.5,1.3-.5s.3,0,.4,0,.3,0,.5,0Z"/>
              <path id="DejaVuSans-2212-4" data-name="DejaVuSans-2212" d="M3.1,127.2v-5.3h.7v5.3h-.7Z"/>
              <path id="DejaVuSans-31-14" data-name="DejaVuSans-31" d="M5.4,120v-1.4H.8l.3,1.5H.3l-.3-1.5v-.8h5.4v-1.4h.7v3.5h-.7Z"/>
              <path id="DejaVuSans-29-2" data-name="DejaVuSans-29" d="M1.6,114.4v-.9c.9-.6,1.8-1,2.7-1.3.9-.3,1.8-.4,2.6-.4s1.8.1,2.6.4c.9.3,1.8.7,2.7,1.3v.9c-.9-.5-1.8-.9-2.7-1.2-.9-.3-1.8-.4-2.7-.4s-1.8.1-2.7.4c-.9.3-1.8.6-2.7,1.2Z"/>
            </g>
          </g>
        </g>
        <g id="line2d_137">
          <g class="cls-4">
            <path class="cls-3" d="M49,296.4L320.9,24.5"/>
          </g>
        </g>
        <g id="patch_13">
          <path class="cls-2" d="M49,296.4V20.6"/>
        </g>
        <g id="patch_14">
          <path class="cls-1" d="M324.8,296.4V20.6"/>
        </g>
        <g id="patch_15">
          <path class="cls-2" d="M49,296.4h275.8"/>
        </g>
        <g id="patch_16">
          <path class="cls-1" d="M49,20.6h275.8"/>
        </g>
        <g id="text_51">
          <g>
            <path id="DejaVuSans-6e" d="M283.2,276.2v4h-1.1v-3.9c0-.6-.1-1.1-.4-1.4-.2-.3-.6-.5-1.1-.5s-1,.2-1.4.6c-.3.4-.5.9-.5,1.5v3.7h-1.1v-6.6h1.1v1c.3-.4.6-.7.9-.9.3-.2.8-.3,1.2-.3.8,0,1.3.2,1.7.7.4.5.6,1.2.6,2.1Z"/>
            <path id="DejaVuSans-20-5" data-name="DejaVuSans-20" d="M284.2,280.2"/>
            <path id="DejaVuSans-3d" d="M289.3,274.7h7.5v1h-7.5v-1ZM289.3,277.1h7.5v1h-7.5v-1Z"/>
            <path id="DejaVuSans-20-6" data-name="DejaVuSans-20" d="M298.1,280.2"/>
            <path id="DejaVuSans-32-5" data-name="DejaVuSans-32" d="M304.2,279.2h4.1v1h-5.6v-1c.4-.5,1.1-1.1,1.8-1.9.8-.8,1.3-1.3,1.5-1.5.4-.4.6-.8.8-1.1.2-.3.2-.6.2-.9,0-.5-.2-.8-.5-1.1-.3-.3-.8-.4-1.3-.4s-.8,0-1.2.2c-.4.1-.9.3-1.3.6v-1.2c.5-.2.9-.3,1.3-.4.4,0,.8-.1,1.1-.1.9,0,1.6.2,2.2.7.5.5.8,1.1.8,1.8s0,.7-.2,1c-.1.3-.4.7-.7,1.1,0,.1-.4.4-.9,1-.5.5-1.3,1.3-2.2,2.3Z"/>
            <path id="DejaVuSans-37" d="M310.5,271.4h5.6v.5l-3.2,8.2h-1.2l3-7.8h-4.2v-1Z"/>
            <path id="DejaVuSans-33" d="M322.1,275.4c.6.1,1,.4,1.3.8.3.4.5.9.5,1.4,0,.9-.3,1.5-.9,2-.6.5-1.4.7-2.5.7s-.7,0-1.1-.1c-.4,0-.8-.2-1.2-.3v-1.1c.3.2.7.3,1.1.4.4,0,.8.1,1.2.1.7,0,1.3-.1,1.7-.4s.6-.7.6-1.3-.2-.9-.5-1.2c-.4-.3-.9-.4-1.5-.4h-1v-1h1.1c.6,0,1-.1,1.3-.3s.5-.6.5-1-.2-.8-.5-1c-.3-.2-.8-.4-1.4-.4s-.7,0-1,.1c-.4,0-.8.2-1.2.3v-1.1c.4-.1.9-.2,1.3-.3s.8,0,1.1,0c.9,0,1.6.2,2.1.6.5.4.8,1,.8,1.7s-.1.9-.4,1.2-.7.6-1.2.7Z"/>
          </g>
        </g>
        <g id="text_53">
          <g>
            <path id="DejaVuSans-Oblique-6b-3" data-name="DejaVuSans-Oblique-6b" d="M150.4,0h1.3l-1.2,6.2,4.3-3.2h1.6l-4.8,3.7,3.5,4h-1.5l-3.3-3.7-.7,3.7h-1.3l2.1-10.6Z"/>
            <path id="DejaVuSans-Oblique-61-3" data-name="DejaVuSans-Oblique-61" d="M161.2,9.9l-.6,3.1h-.9l.2-.8c-.3.3-.6.6-.9.7-.3.2-.7.2-1.1.2s-.8-.1-1.1-.4c-.3-.3-.4-.6-.4-1.1,0-.6.2-1.1.7-1.5.5-.4,1.2-.5,2.1-.5h1.2v-.2c0,0,0,0,0,0,0,0,0,0,0-.1,0-.3-.1-.5-.3-.7-.2-.2-.6-.2-1-.2s-.6,0-.9.1c-.3,0-.6.2-.9.3l.2-.8c.3-.1.7-.2,1-.3.3,0,.6,0,.9,0,.6,0,1.1.1,1.4.4.3.3.5.7.5,1.2s0,.2,0,.4c0,.1,0,.3,0,.5ZM160.2,10.2h-.9c-.7,0-1.3,0-1.6.3s-.5.5-.5.9,0,.5.3.7c.2.2.4.2.7.2.5,0,.9-.2,1.3-.5s.6-.8.7-1.4v-.2Z"/>
            <path id="DejaVuSans-Oblique-70-5" data-name="DejaVuSans-Oblique-70" d="M166.8,9.6c0-.5-.1-.8-.3-1.1-.2-.2-.5-.4-.9-.4s-.5,0-.7.2c-.2.1-.4.3-.6.6-.2.3-.3.6-.4.9-.1.4-.2.7-.2,1.1s.1.8.3,1c.2.2.5.4.9.4s.5,0,.8-.2c.2-.1.4-.3.6-.6.2-.3.3-.6.4-.9.1-.4.2-.7.2-1ZM164,8.4c.2-.3.5-.5.8-.7.3-.2.7-.2,1.1-.2s1,.2,1.3.5c.3.4.5.9.5,1.5s0,1-.3,1.5c-.2.5-.5.9-.8,1.3-.2.3-.5.4-.8.6-.3.1-.6.2-.9.2s-.7,0-1-.2c-.3-.2-.5-.4-.6-.7l-.6,2.8h-.9l1.4-7.4h.9l-.2.8Z"/>
            <path id="DejaVuSans-Oblique-70-6" data-name="DejaVuSans-Oblique-70" d="M173,9.6c0-.5-.1-.8-.3-1.1-.2-.2-.5-.4-.9-.4s-.5,0-.7.2c-.2.1-.4.3-.6.6-.2.3-.3.6-.4.9-.1.4-.2.7-.2,1.1s.1.8.3,1c.2.2.5.4.9.4s.5,0,.8-.2c.2-.1.4-.3.6-.6.2-.3.3-.6.4-.9.1-.4.2-.7.2-1ZM170.3,8.4c.2-.3.5-.5.8-.7.3-.2.7-.2,1.1-.2s1,.2,1.3.5c.3.4.5.9.5,1.5s0,1-.3,1.5c-.2.5-.5.9-.8,1.3-.2.3-.5.4-.8.6-.3.1-.6.2-.9.2s-.7,0-1-.2c-.3-.2-.5-.4-.6-.7l-.6,2.8h-.9l1.4-7.4h.9l-.2.8Z"/>
            <path id="DejaVuSans-20-7" data-name="DejaVuSans-20" d="M174.7,10.6"/>
            <path id="DejaVuSans-56" d="M183.2,10.6l-3.9-10.2h1.4l3.2,8.6,3.2-8.6h1.4l-3.9,10.2h-1.6Z"/>
            <path id="DejaVuSans-61" d="M193.6,6.8c-1,0-1.7.1-2.1.3s-.6.6-.6,1.2.1.8.4,1.1c.3.3.7.4,1.2.4s1.3-.2,1.7-.7.6-1.2.6-2v-.3h-1.3ZM196.1,6.3v4.4h-1.3v-1.2c-.3.5-.6.8-1.1,1-.4.2-1,.3-1.6.3s-1.4-.2-1.9-.7c-.5-.4-.7-1-.7-1.8s.3-1.5.9-1.9c.6-.4,1.4-.7,2.6-.7h1.8c0-.7-.2-1.2-.6-1.5s-.9-.5-1.6-.5-.9,0-1.3.2c-.4.1-.8.3-1.2.5v-1.2c.5-.2.9-.3,1.3-.4.4,0,.9-.1,1.3-.1,1.1,0,1.9.3,2.5.9.5.6.8,1.4.8,2.6Z"/>
            <path id="DejaVuSans-6c" d="M198.7,0h1.3v10.6h-1.3V0Z"/>
            <path id="DejaVuSans-75" d="M202.4,7.6V3h1.3v4.6c0,.7.1,1.3.4,1.6.3.4.7.5,1.3.5s1.2-.2,1.6-.6c.4-.4.6-1,.6-1.8V3h1.3v7.7h-1.3v-1.2c-.3.5-.7.8-1.1,1-.4.2-.9.3-1.4.3-.9,0-1.5-.3-2-.8-.5-.5-.7-1.3-.7-2.4ZM205.6,2.8h0Z"/>
            <path id="DejaVuSans-65" d="M218,6.5v.6h-5.8c0,.9.3,1.5.8,2,.5.5,1.1.7,2,.7s1,0,1.4-.2.9-.3,1.4-.5v1.2c-.5.2-.9.3-1.4.4s-1,.2-1.4.2c-1.2,0-2.2-.4-2.9-1.1-.7-.7-1.1-1.7-1.1-2.9s.3-2.2,1-3c.7-.7,1.6-1.1,2.7-1.1s1.8.3,2.4,1c.6.7.9,1.6.9,2.7ZM216.7,6.1c0-.7-.2-1.2-.6-1.6-.4-.4-.9-.6-1.5-.6s-1.3.2-1.7.6-.7,1-.7,1.7h4.5Z"/>
            <path id="DejaVuSans-73-2" data-name="DejaVuSans-73" d="M224.9,3.2v1.2c-.4-.2-.7-.3-1.1-.4-.4,0-.8-.1-1.2-.1-.6,0-1.1,0-1.4.3-.3.2-.5.5-.5.9s.1.5.3.7.7.3,1.3.5h.4c.9.3,1.5.6,1.9.9s.6.8.6,1.5-.3,1.3-.8,1.7c-.6.4-1.3.6-2.3.6s-.8,0-1.3-.1c-.4,0-.9-.2-1.4-.4v-1.3c.5.2.9.4,1.4.5.5.1.9.2,1.3.2s1-.1,1.4-.3c.3-.2.5-.5.5-.9s-.1-.6-.3-.8c-.2-.2-.7-.4-1.5-.5h-.4c-.8-.3-1.3-.5-1.7-.9-.3-.3-.5-.8-.5-1.4s.3-1.3.8-1.7c.5-.4,1.2-.6,2.2-.6s.9,0,1.3.1c.4,0,.8.2,1.1.3Z"/>
          </g>
        </g>
      </g>
    </g>
  </g>
</svg>